<svg width="61" height="61" viewBox="0 0 61 61" fill="none" xmlns="http://www.w3.org/2000/svg">
<g clip-path="url(#clip0_101_2)">
<path fill-rule="evenodd" clip-rule="evenodd" d="M8.09058 3.5231C13.004 4.29425 18.1435 6.61173 22.0195 9.7333C24.5888 8.9284 27.3438 8.4931 30.2043 8.4931C33.084 8.4931 35.8568 8.93425 38.4408 9.74948C42.4093 6.68043 47.311 4.27665 52.2928 3.5267C53.3533 3.37053 54.4563 3.90658 54.9405 4.87505C56.884 9.46718 56.95 14.9429 55.7548 19.7244L55.7363 19.7986C55.416 21.0816 55.002 22.7399 53.6733 23.2978C54.661 25.7261 55.2043 28.3597 55.2043 31.1247C55.2043 38.0557 52.3588 45.1867 49.8073 51.5802L49.549 52.2272C47.9998 56.1147 44.5333 58.7922 40.5168 59.5382L34.8415 60.5925C33.0915 60.9175 31.3448 60.2862 30.2043 59.0137C29.0638 60.2862 27.3173 60.9175 25.5673 60.5925L19.8919 59.5382C15.8756 58.7922 12.409 56.1147 10.8596 52.2272L10.6016 51.5802C8.0501 45.1867 5.20438 38.0557 5.20438 31.1247C5.20438 28.3597 5.7477 25.7261 6.73553 23.2978C5.40543 22.7394 5.00218 21.1213 4.68153 19.8347L4.65403 19.7244C3.51205 15.1564 3.29255 9.23523 5.4683 4.87505C5.94995 3.91175 7.02693 3.35787 8.09058 3.5231ZM16.6662 12.0945C13.8422 13.7449 11.3911 15.9062 9.4886 18.4465C8.74358 15.4048 8.73518 12.0221 9.39168 8.96208C11.9253 9.69395 14.4047 10.7316 16.6662 12.0945ZM50.92 18.4466C49.03 15.9228 46.5985 13.7731 43.7978 12.1269C46.0453 10.7445 48.465 9.63695 51.01 8.9296C51.6753 11.9982 51.6675 15.3949 50.92 18.4466ZM22.3384 14.9106C24.7462 14.0004 27.4035 13.4931 30.2043 13.4931C33.0053 13.4931 35.6625 14.0004 38.0703 14.9106C45.3428 17.6598 50.2043 23.9887 50.2043 31.1247C50.2043 37.1622 47.677 43.4622 45.42 49.0882C45.2463 49.5215 45.0738 49.9512 44.9045 50.376C44.027 52.5777 42.0318 54.1712 39.6035 54.6222L33.9283 55.6765L32.4843 52.4672C32.0805 51.57 31.188 50.993 30.2043 50.993C29.2205 50.993 28.3283 51.57 27.9245 52.4672L26.4803 55.6765L20.8051 54.6222C18.377 54.1712 16.3818 52.5777 15.5043 50.376C15.3352 49.9517 15.1632 49.523 14.9896 49.0902C12.7327 43.4642 10.2044 37.1622 10.2044 31.1247C10.2044 23.9887 15.0661 17.6598 22.3384 14.9106ZM26.4543 40.993C25.5073 40.993 24.6417 41.528 24.2182 42.375C23.7947 43.222 23.8861 44.2355 24.4543 44.993L28.2043 49.993C28.6765 50.6225 29.4173 50.993 30.2043 50.993C30.9913 50.993 31.732 50.6225 32.2043 49.993L35.9543 44.993C36.5225 44.2355 36.6138 43.222 36.1903 42.375C35.7668 41.528 34.9013 40.993 33.9543 40.993H26.4543ZM24.2576 28.7962C24.2576 30.8675 22.5787 32.5462 20.5076 32.5462C18.4366 32.5462 16.7576 30.8675 16.7576 28.7962C16.7576 26.7252 18.4366 25.0464 20.5076 25.0464C22.5787 25.0464 24.2576 26.7252 24.2576 28.7962ZM40.2043 32.243C42.2753 32.243 43.9543 30.5642 43.9543 28.493C43.9543 26.422 42.2753 24.7431 40.2043 24.7431C38.1333 24.7431 36.4543 26.422 36.4543 28.493C36.4543 30.5642 38.1333 32.243 40.2043 32.243Z" fill="black"/>
</g>
<defs>
<clipPath id="clip0_101_2">
<rect width="60" height="60" fill="white" transform="translate(0.204224 0.993286)"/>
</clipPath>
</defs>
</svg>
