<svg width="252" height="291" viewBox="0 0 252 291" fill="none" xmlns="http://www.w3.org/2000/svg">
<path d="M96.5009 95.0974C95.7104 104.371 96.1738 113.703 97.5066 122.927C104.773 173.208 128.897 129.036 119.628 86.2844" stroke="black" stroke-opacity="0.9" stroke-width="8.31429" stroke-linecap="round" stroke-linejoin="round"/>
<path d="M129.513 79.6959C137.92 74.6194 195.538 37.132 199.71 56.3777C204.244 77.2894 158.016 97.9635 146.104 111.7C119.96 141.85 125.442 194.381 140.071 228.123" stroke="black" stroke-opacity="0.9" stroke-width="8.31429" stroke-linecap="round" stroke-linejoin="round"/>
<path d="M84.764 125.615C62.7051 155.438 48.5346 188.374 41.0238 223.02" stroke="black" stroke-opacity="0.9" stroke-width="8.31429" stroke-linecap="round" stroke-linejoin="round"/>
<path d="M83.7604 183.594C93.8279 175.106 119.4 181.88 113.424 196.582C109.561 206.083 98.9176 215.601 90.7991 222.093C87.913 224.4 84.3436 226.794 80.7434 228.123C79.9049 228.432 77.5917 228.462 78.2293 229.05C79.6763 230.385 115.607 220.409 117.446 227.195C118.282 230.281 91.0694 237.72 87.7822 238.328C70.6948 241.48 50.3234 240.954 35.4948 231.833C32.202 229.808 31.1467 225.139 28.4553 223.485C28.1235 223.281 -0.107795 240.698 -12.7715 233.689" stroke="black" stroke-opacity="0.9" stroke-width="8.31429" stroke-linecap="round" stroke-linejoin="round"/>
<path d="M136.677 84.3396C137.143 85.7008 138.327 86.7585 139.301 87.8367" stroke="black" stroke-opacity="0.9" stroke-width="8.31429" stroke-linecap="round" stroke-linejoin="round"/>
<path d="M194.15 55.833C212.388 53.6752 178.676 69.7352 192.934 56.5807" stroke="black" stroke-opacity="0.9" stroke-width="8.31429" stroke-linecap="round" stroke-linejoin="round"/>
</svg>
