<svg width="986" height="140" viewBox="0 0 986 140" fill="none" xmlns="http://www.w3.org/2000/svg">
<path d="M73.1356 5.24373C73.7436 5.24373 75.0203 5.36533 76.9657 5.60851L76.7833 10.7152C76.4185 18.7401 76.1145 28.3456 75.8714 39.5318C75.6282 50.5963 75.5066 60.6882 75.5066 69.8074L75.5066 69.9897C77.2089 69.9897 78.4855 70.0505 79.3367 70.1721L84.261 70.3545L84.0786 74.0022L85.3553 74.1846L87.9087 74.0022L86.8144 103.548C84.6258 104.278 82.6196 104.643 80.7957 104.643L77.3304 104.46C76.3577 104.46 74.9595 104.643 73.1356 105.007L73.6828 105.007C74.8987 105.007 75.5066 105.554 75.5066 106.649C74.4123 123.185 73.5612 132.973 72.9532 136.012C72.2237 136.985 70.7039 137.532 68.3937 137.654C66.0835 137.897 61.9495 138.019 55.9916 138.019L44.3191 138.019C43.8327 137.532 43.5896 136.316 43.5896 134.371L40.6714 134.371C40.0635 133.763 39.7595 131.574 39.7595 127.805C39.7595 123.185 40.1851 115.646 41.0362 105.19L41.2186 102.636L28.2694 102.636C21.3388 102.636 16.0497 102.576 12.4021 102.454C8.75439 102.211 6.74817 101.785 6.38341 101.177C6.38341 100.934 6.32261 100.63 6.20103 100.265C6.07944 99.9006 5.89705 99.3534 5.65388 98.6239C3.70846 98.3807 2.37098 96.6785 1.64145 93.5172C0.911915 90.3559 0.547149 84.3372 0.547149 75.4612C0.547149 73.0295 0.790326 71.084 1.27668 69.625C1.88463 68.1659 3.03972 65.9165 4.74196 62.8768C5.22832 61.7825 5.95785 60.445 6.93056 58.8644C15.3202 42.5715 26.8711 23.6644 41.5833 2.14323L47.2372 1.96084C54.5325 1.71766 60.7336 1.59608 65.8403 1.59608L68.9408 1.59608C70.7646 1.59608 72.2237 1.71766 73.318 1.96084L73.1356 5.24373ZM70.2175 71.996C70.0959 71.5096 70.0351 69.5034 70.0351 65.9773C70.0351 53.6969 70.4607 34.1819 71.3118 7.43234L71.4942 3.60229L71.1294 3.60229C70.5215 3.4807 68.8192 3.41991 66.0227 3.41991C60.1864 3.41991 53.8638 3.5415 47.0548 3.78468L42.4953 3.96706L42.3129 4.14944C30.5188 21.9014 19.5758 39.9573 9.48392 58.3172C6.07944 64.883 3.76925 68.8346 2.55336 70.1721C2.43177 71.5096 2.37098 73.3334 2.37098 75.6436C2.37098 80.7503 2.61416 85.2491 3.10051 89.14C3.58687 93.0308 4.01243 95.5234 4.37719 96.6177C4.49878 96.7393 7.05215 96.8609 12.0373 96.9824C17.0224 97.104 20.7309 97.1648 23.1627 97.1648C35.6863 97.1648 42.4345 97.2864 43.4072 97.5296L42.86 105.737C41.7657 118.868 41.2186 127.501 41.2186 131.635L41.2186 132.365C41.2186 132.486 41.2794 132.547 41.401 132.547L52.3439 132.547C57.937 132.547 61.7671 132.486 63.8341 132.365C65.9011 132.243 67.1778 131.878 67.6641 131.27C68.0289 129.568 68.8192 120.145 70.0351 103.001C70.0351 101.907 70.0351 101.056 70.0351 100.448C70.1567 99.7182 70.2175 99.2926 70.2175 99.171C70.5823 99.0495 71.3726 98.9887 72.5885 98.9887L77.5128 99.171C78.8503 99.171 80.127 98.9887 81.3429 98.6239L82.4372 72.1783L78.6071 71.996C76.4185 71.7528 74.7771 71.6312 73.6828 71.6312C72.4669 71.6312 71.6766 71.692 71.3118 71.8136L70.2175 71.996ZM48.3315 72.3607C47.7236 72.4823 45.9605 72.5431 43.0424 72.5431C41.4618 72.4215 38.7868 72.3607 35.0176 72.3607L27.5398 72.3607L24.257 72.1783C25.4728 69.8682 27.8438 65.6733 31.3699 59.5939C35.0176 53.3929 38.6044 47.435 42.1305 41.7204C45.7782 36.0057 47.9668 33.1483 48.6963 33.1483C48.8179 33.1483 48.8787 33.2091 48.8787 33.3307L48.3315 72.3607ZM46.8725 43.7266C40.5498 54.6696 35.7471 63.6671 32.4642 70.7193L42.4953 70.7193C43.5896 70.7193 44.3191 70.7801 44.6839 70.9017C45.0486 70.9017 45.3526 70.9017 45.5958 70.9017C45.839 70.9017 45.9605 70.9017 45.9605 70.9017C46.0821 70.7801 46.2645 70.7193 46.5077 70.7193L46.8725 43.7266ZM98.9884 18.3753C102.393 13.147 107.013 8.8914 112.85 5.60851C118.686 2.32561 125.008 0.684161 131.817 0.684162C142.76 0.684162 151.819 3.96706 158.992 10.5329C166.288 16.9771 171.577 25.0019 174.86 34.6074C178.264 44.2129 179.967 53.7576 179.967 63.2416L179.967 69.8074C179.967 80.0208 178.325 90.3559 175.042 100.812C171.759 111.148 166.713 119.78 159.904 126.711C153.217 133.641 144.888 137.107 134.918 137.107C128.109 137.107 122.029 135.83 116.68 133.277C111.451 130.723 107.256 127.501 104.095 123.61C99.8396 119.841 96.6782 115.403 94.6112 110.296C92.5442 105.068 91.2068 99.9006 90.5988 94.7938C90.1125 89.5655 89.7477 82.8174 89.5045 74.5493L89.3221 69.8074C89.0789 65.187 88.9574 61.7217 88.9574 59.4115C88.9574 51.6298 89.6869 44.3953 91.146 37.7079C92.605 31.0206 95.1584 24.6371 98.806 18.5577L98.9884 18.3753ZM90.7812 59.4115C90.7812 61.7217 90.9028 65.187 91.146 69.8074L91.3283 74.5493C91.5715 84.2764 92.1795 92.3621 93.1522 98.8063C94.1249 105.25 96.4351 111.269 100.083 116.862C103.852 122.455 109.567 126.589 117.227 129.264C121.726 130.966 126.832 131.818 132.547 131.818C142.031 131.818 149.934 128.596 156.257 122.151C162.579 115.707 167.2 107.682 170.118 98.0767C173.158 88.3496 174.677 78.5618 174.677 68.7131L174.495 63.9711C174.617 62.8768 174.677 61.2354 174.677 59.0468C174.677 50.1708 173.218 41.4164 170.3 32.7836C167.504 24.1508 162.883 16.9771 156.439 11.2624C150.116 5.42612 142.031 2.50799 132.182 2.50799C125.616 2.50799 119.415 4.08865 113.579 7.24996C107.864 10.2897 103.487 14.3021 100.447 19.2872C96.7998 25.0019 94.2465 31.2029 92.7874 37.8903C91.4499 44.4561 90.7812 51.6298 90.7812 59.4115ZM102.454 22.2054L102.454 22.023L102.636 22.023L102.454 22.2054ZM117.774 68.7131C117.774 55.9462 118.686 46.5231 120.51 40.4437C122.333 34.3642 126.103 31.3245 131.817 31.3245C136.681 31.3245 139.964 34.425 141.666 40.6261C143.368 46.8271 144.219 54.7304 144.219 64.3359L144.219 71.6312C144.219 80.7503 143.429 88.1065 141.848 93.6995C140.268 99.171 136.924 101.907 131.817 101.907C129.994 101.907 128.595 101.664 127.623 101.177C123.975 100.569 121.422 96.8609 119.962 90.0519C118.503 83.2429 117.774 76.13 117.774 68.7131ZM128.17 99.5358C129.264 100.022 130.541 100.265 132 100.265C136.012 100.265 138.626 98.0767 139.842 93.6995C141.18 89.2008 141.848 85.1275 141.848 81.4799C141.97 77.8322 142.092 75.6436 142.213 74.9141C142.335 72.9687 142.396 69.4426 142.396 64.3359C142.396 52.177 140.997 43.2402 138.201 37.5256C136.863 37.1608 135.587 36.9784 134.371 36.9784C132.182 36.9784 130.298 37.6471 128.717 38.9846C127.258 40.2005 125.981 43.3618 124.887 48.4685C123.914 53.5753 123.428 61.5393 123.428 72.3607C123.428 80.0208 124.279 86.9514 125.981 93.1524L125.799 92.97C126.164 93.8211 126.467 94.9154 126.711 96.2529C127.075 97.4688 127.379 98.5023 127.623 99.3534L127.987 99.3534L128.17 99.5358ZM252.135 5.24374C252.743 5.24374 254.019 5.36533 255.965 5.60851L255.782 10.7152C255.418 18.7401 255.114 28.3456 254.87 39.5318C254.627 50.5963 254.506 60.6882 254.506 69.8074L254.506 69.9897C256.208 69.9897 257.485 70.0505 258.336 70.1721L263.26 70.3545L263.078 74.0022L264.354 74.1846L266.908 74.0022L265.813 103.548C263.625 104.278 261.619 104.643 259.795 104.643L256.329 104.46C255.357 104.46 253.958 104.643 252.135 105.007L252.682 105.007C253.898 105.007 254.506 105.554 254.506 106.649C253.411 123.185 252.56 132.973 251.952 136.012C251.223 136.985 249.703 137.532 247.393 137.654C245.083 137.897 240.948 138.019 234.991 138.019L223.318 138.019C222.832 137.532 222.589 136.316 222.589 134.371L219.67 134.371C219.063 133.763 218.759 131.574 218.759 127.805C218.759 123.185 219.184 115.646 220.035 105.19L220.218 102.636L207.268 102.636C200.338 102.636 195.049 102.576 191.401 102.454C187.753 102.211 185.747 101.785 185.382 101.177C185.382 100.934 185.322 100.63 185.2 100.265C185.078 99.9006 184.896 99.3534 184.653 98.6239C182.707 98.3807 181.37 96.6785 180.64 93.5172C179.911 90.3559 179.546 84.3372 179.546 75.4612C179.546 73.0295 179.789 71.084 180.276 69.625C180.884 68.1659 182.039 65.9165 183.741 62.8768C184.227 61.7825 184.957 60.445 185.93 58.8644C194.319 42.5715 205.87 23.6644 220.582 2.14323L226.236 1.96084C233.532 1.71766 239.733 1.59608 244.839 1.59608L247.94 1.59608C249.764 1.59608 251.223 1.71766 252.317 1.96084L252.135 5.24374ZM249.217 71.996C249.095 71.5096 249.034 69.5034 249.034 65.9773C249.034 53.6969 249.46 34.1819 250.311 7.43234L250.493 3.60229L250.128 3.60229C249.521 3.4807 247.818 3.41991 245.022 3.41991C239.185 3.41991 232.863 3.5415 226.054 3.78468L221.494 3.96706L221.312 4.14944C209.518 21.9014 198.575 39.9573 188.483 58.3172C185.078 64.883 182.768 68.8346 181.552 70.1721C181.431 71.5096 181.37 73.3334 181.37 75.6436C181.37 80.7503 181.613 85.2491 182.1 89.14C182.586 93.0308 183.011 95.5234 183.376 96.6177C183.498 96.7393 186.051 96.8609 191.036 96.9824C196.021 97.104 199.73 97.1648 202.162 97.1648C214.685 97.1648 221.434 97.2864 222.406 97.5296L221.859 105.737C220.765 118.868 220.218 127.501 220.218 131.635L220.218 132.365C220.218 132.486 220.278 132.547 220.4 132.547L231.343 132.547C236.936 132.547 240.766 132.486 242.833 132.365C244.9 132.243 246.177 131.878 246.663 131.27C247.028 129.568 247.818 120.145 249.034 103.001C249.034 101.907 249.034 101.056 249.034 100.448C249.156 99.7182 249.217 99.2926 249.217 99.171C249.581 99.0495 250.372 98.9887 251.588 98.9887L256.512 99.171C257.849 99.171 259.126 98.9887 260.342 98.6239L261.436 72.1783L257.606 71.996C255.418 71.7528 253.776 71.6312 252.682 71.6312C251.466 71.6312 250.676 71.692 250.311 71.8136L249.217 71.996ZM227.331 72.3607C226.723 72.4823 224.96 72.5431 222.041 72.5431C220.461 72.4215 217.786 72.3607 214.017 72.3607L206.539 72.3607L203.256 72.1783C204.472 69.8682 206.843 65.6733 210.369 59.5939C214.017 53.3929 217.603 47.435 221.13 41.7204C224.777 36.0057 226.966 33.1483 227.695 33.1483C227.817 33.1483 227.878 33.2091 227.878 33.3307L227.331 72.3607ZM225.871 43.7266C219.549 54.6696 214.746 63.6671 211.463 70.7193L221.494 70.7193C222.589 70.7193 223.318 70.7801 223.683 70.9017C224.048 70.9017 224.352 70.9017 224.595 70.9017C224.838 70.9017 224.96 70.9017 224.96 70.9017C225.081 70.7801 225.264 70.7193 225.507 70.7193L225.871 43.7266ZM362.466 133.824L360.46 133.824L352.435 116.315C349.882 111.087 347.389 105.858 344.958 100.63C342.648 95.2802 340.763 90.599 339.304 86.5866L339.304 106.649C339.304 121.483 339.425 131.635 339.669 137.107C337.115 137.958 333.832 138.383 329.82 138.383C327.631 138.383 325.686 138.323 323.984 138.201C322.403 138.079 321.065 137.958 319.971 137.836C316.931 137.471 313.77 137.289 310.487 137.289L310.487 133.641L306.84 133.641L306.84 119.051C306.84 111.391 306.718 100.265 306.475 85.6747L306.292 53.2105C306.292 34.1211 306.9 17.3418 308.116 2.87276C311.034 2.14323 314.317 1.77846 317.965 1.77846C320.518 1.77846 323.923 2.14323 328.178 2.87276C332.434 3.48071 334.683 4.27103 334.927 5.24374C335.291 6.58122 335.96 7.49313 336.933 7.97949C337.906 8.34425 338.453 8.64822 338.574 8.8914C340.641 13.9981 343.012 19.4696 345.687 25.3059C348.362 31.1421 352.253 39.4102 357.36 50.11L357.36 46.2799C357.36 42.997 357.238 38.5591 356.995 32.966L356.813 19.8344C356.691 18.2537 356.752 15.7612 356.995 12.3567L357.177 5.97327L357.177 1.96084C361.433 1.10972 366.418 0.684162 372.133 0.684162C376.51 0.684162 381.13 1.17052 385.994 2.14323L385.994 5.24374L389.642 5.79089L389.642 65.9773L389.824 97.1648L389.642 107.561L389.642 124.705L389.824 132L389.642 137.107C389.277 137.228 388.426 137.471 387.088 137.836C385.751 138.201 384.048 138.383 381.981 138.383C379.063 138.383 375.963 138.201 372.68 137.836C368.789 137.593 365.932 137.471 364.108 137.471L362.466 133.824ZM384.352 128.352L384.17 113.762L384.352 93.5172L384.352 77.8322C384.352 70.9017 384.292 65.7341 384.17 62.3297L384.17 3.60229C380.766 2.87276 376.753 2.50799 372.133 2.50799C367.634 2.50799 363.257 2.87276 359.001 3.60229C358.758 11.6271 358.636 17.0379 358.636 19.8344L358.819 32.4188C359.062 38.2551 359.184 42.8755 359.184 46.2799C359.184 48.4685 359.062 50.6571 358.819 52.8457C358.576 54.9127 358.272 56.0678 357.907 56.311C357.664 56.311 355.536 52.2986 351.523 44.2737C347.511 36.1273 344.532 29.987 342.587 25.853C341.614 23.5428 340.641 21.415 339.669 19.4696C338.696 17.5242 337.966 16.0651 337.48 15.0924L335.474 10.8976L333.103 5.42613C333.103 4.93977 331.157 4.51421 327.267 4.14944C323.376 3.78467 320.275 3.60229 317.965 3.60229C314.561 3.60229 311.825 3.84546 309.758 4.33182C308.663 17.585 308.116 33.8779 308.116 53.2105L308.299 85.8571C308.542 100.205 308.663 111.269 308.663 119.051L308.663 131.818C311.46 131.818 314.317 132 317.235 132.365C318.208 132.486 319.424 132.608 320.883 132.73C322.342 132.851 324.105 132.912 326.172 132.912C329.212 132.912 331.887 132.608 334.197 132C334.075 130.663 334.015 128.352 334.015 125.069L334.015 116.862C334.015 105.919 334.136 95.4626 334.379 85.4923C334.623 75.522 334.927 70.5369 335.291 70.5369C335.656 70.5369 336.446 72.3607 337.662 76.0084L339.486 81.4799C341.796 87.9241 346.538 98.9887 353.712 114.674L361.555 132C364.229 132 367.026 132.182 369.944 132.547C373.835 132.79 376.632 132.912 378.334 132.912C380.522 132.912 382.529 132.608 384.352 132L384.352 128.352ZM398.404 48.1038C400.228 44.2129 403.815 41.2948 409.165 39.3494C414.637 37.404 420.777 36.4312 427.586 36.4312C428.558 36.5528 430.808 36.6136 434.334 36.6136L438.711 36.4312C443.332 36.4312 447.83 37.1608 452.207 38.6198C456.585 40.0789 460.232 42.2067 463.15 45.0033L462.968 45.0033C463.333 45.4896 463.88 46.1584 464.61 47.0095C465.339 47.739 466.008 48.2862 466.616 48.6509L466.433 48.4685C469.716 50.6571 471.905 55.0343 472.999 61.6001C474.215 68.1659 474.823 76.3124 474.823 86.0395C474.823 94.6723 474.276 103.609 473.182 112.85C472.087 122.091 470.567 127.805 468.622 129.994C466.069 133.641 462.603 136.134 458.226 137.471C453.849 138.809 448.742 139.478 442.906 139.478C436.705 139.478 431.659 139.295 427.768 138.931C423.999 138.566 420.23 137.532 416.46 135.83C412.813 134.249 409.287 131.696 405.882 128.17L404.241 126.529C400.471 123.002 397.918 118.504 396.581 113.032C395.243 107.439 394.574 100.934 394.574 93.5172L394.574 86.9514L394.757 80.7503C394.757 79.2913 394.696 77.893 394.574 76.5555C394.453 75.2181 394.392 74.0022 394.392 72.9079C394.392 67.6796 394.514 63.7279 394.757 61.053C395 58.378 395.912 55.1559 397.493 51.3867L397.31 51.3867C397.432 50.6571 397.553 49.9276 397.675 49.1981C397.918 48.4685 398.161 47.9822 398.404 47.739L398.404 47.9214L398.222 48.4685L398.404 48.1038ZM396.398 80.3856L396.398 93.8819C396.398 104.582 398.161 113.458 401.687 120.51C405.335 127.44 411.84 131.696 421.202 133.277L429.774 133.459C433.908 133.702 437.13 133.824 439.441 133.824C445.155 133.824 450.019 133.216 454.031 132C458.044 130.784 461.205 128.535 463.515 125.252C465.582 123.185 466.92 118.564 467.528 111.391C468.257 104.217 468.865 94.5507 469.352 82.3918C469.352 81.2975 469.23 77.4067 468.987 70.7193C468.744 63.9103 468.014 58.4996 466.798 54.4872C465.704 50.3532 464.062 47.6174 461.874 46.2799C456.402 40.93 448.438 38.2551 437.982 38.2551L431.051 38.4375C429.47 38.4375 428.255 38.3767 427.403 38.2551C421.202 38.2551 415.488 39.167 410.259 40.9908C405.031 42.8147 401.627 45.4288 400.046 48.8333C398.708 53.5753 397.736 57.7701 397.128 61.4177C396.52 65.0654 396.216 68.8346 396.216 72.7255L396.398 80.3856ZM433.787 65.7949C442.298 65.7949 446.554 72.1175 446.554 84.7628C446.554 89.9911 446.31 94.1859 445.824 97.3472C445.338 100.387 444.061 102.879 441.994 104.825C439.927 106.77 436.766 107.743 432.51 107.743C428.862 107.743 425.884 106.953 423.573 105.372C421.263 103.791 420.108 101.238 420.108 97.712C420.23 96.1313 420.29 93.3348 420.29 89.3224C420.29 83.7293 420.412 79.4129 420.655 76.3732C421.02 73.2118 421.75 71.2056 422.844 70.3545C425.276 67.3148 428.923 65.7949 433.787 65.7949ZM427.586 75.4612C426.613 76.0692 426.005 78.8657 425.762 83.8509C425.64 88.7144 425.58 94.6115 425.58 101.542C425.58 103.487 426.188 104.703 427.403 105.19C428.619 105.676 430.322 105.919 432.51 105.919C439.927 105.919 443.635 103.366 443.635 98.2591C444.365 91.6933 444.73 86.9514 444.73 84.0332C444.73 80.0208 444.243 76.9203 443.271 74.7317C442.42 72.5431 440.353 71.4488 437.07 71.4488C436.34 71.4488 435.003 71.5704 433.057 71.8136L433.24 71.8136C430.929 72.4215 429.166 73.5158 427.951 75.0965L427.586 75.4612ZM517.384 40.0789C521.396 39.9573 527.597 39.5926 535.987 38.9846L540.546 38.6198C541.519 40.0789 542.188 41.3556 542.553 42.4499L544.194 42.2675C545.896 44.3345 546.747 47.1919 546.747 50.8395C546.747 52.177 546.626 54.1832 546.383 56.8582C546.14 59.5331 546.018 61.6001 546.018 63.0592C546.018 64.3967 546.2 66.2813 546.565 68.7131L517.931 68.7131C517.931 83.9117 517.992 95.0978 518.113 102.272C520.424 103.366 523.342 104.217 526.868 104.825C530.394 105.311 533.981 105.554 537.628 105.554C539.939 105.554 541.58 105.494 542.553 105.372L542.735 108.473L542.735 109.202C544.194 109.202 545.349 109.141 546.2 109.02C546.2 111.087 546.383 113.397 546.747 115.95C547.234 119.841 547.477 123.124 547.477 125.799C547.477 130.298 546.869 134.189 545.653 137.471C544.073 137.593 541.215 137.654 537.081 137.654C525.53 137.654 515.378 135.952 506.623 132.547C497.99 129.143 492.093 123.671 488.932 116.133C487.716 109.202 486.926 102.576 486.561 96.2529C486.196 89.9303 486.014 82.4526 486.014 73.8198L486.014 69.4426L476.53 69.2602L476.53 65.6125L472.882 65.6125L473.429 39.7141C476.712 39.8357 481.029 39.8965 486.379 39.8965C486.379 35.6409 486.318 32.4188 486.196 30.2302L486.014 19.4696C486.014 13.8765 486.257 9.07378 486.743 5.06136C489.418 4.81818 491.425 4.69659 492.762 4.69659C494.586 4.69659 497.078 4.81818 500.24 5.06136C502.672 5.42612 505.164 5.60851 507.718 5.60851L510.088 5.60851C511.669 5.60851 512.885 5.48692 513.736 5.24374L513.736 9.25617C514.466 9.25617 515.682 9.13458 517.384 8.89141L517.384 40.0789ZM511.912 7.24996C511.061 7.37154 509.663 7.43234 507.718 7.43234C504.678 7.43234 501.881 7.24995 499.328 6.88518C495.923 6.64201 493.431 6.52042 491.85 6.52042C490.391 6.52042 489.236 6.58122 488.385 6.7028C488.02 10.1073 487.838 14.3021 487.838 19.2872L488.02 31.5069C488.142 33.9387 488.203 37.3432 488.203 41.7204L482.001 41.7204C479.083 41.7204 476.834 41.6596 475.253 41.538L474.706 63.7887L481.637 63.7887C484.433 63.7887 486.5 63.7279 487.838 63.6063L487.838 73.8198C487.838 82.331 488.02 89.7479 488.385 96.0705C488.75 102.393 489.54 109.02 490.756 115.95C493.188 121.908 498.294 126.103 506.076 128.535C513.858 130.966 522.977 132.182 533.434 132.182C536.716 132.182 539.148 132.122 540.729 132C541.58 129.325 542.006 126.042 542.006 122.151C542.006 118.868 541.58 113.944 540.729 107.378C539.878 107.5 538.601 107.561 536.899 107.561C531.792 107.561 526.929 107.014 522.308 105.919C517.688 104.703 514.466 102.758 512.642 100.083C512.52 96.3137 512.459 90.4774 512.459 82.5742L512.459 63.2416L540.729 63.2416C540.607 62.8768 540.546 61.9041 540.546 60.3234C540.546 59.1076 540.668 57.0405 540.911 54.1224C541.154 51.2043 541.276 48.9549 541.276 47.3742C541.276 43.9698 540.729 41.6596 539.635 40.4437L531.792 40.9908L512.095 41.9027L511.912 31.6893L511.912 7.24996ZM648.866 55.7639C649.717 58.3172 650.143 61.1138 650.143 64.1535C650.143 67.0716 650.082 69.321 649.961 70.9017L649.778 79.1089C649.778 80.9327 649.839 82.5742 649.961 84.0332C650.082 85.3707 650.143 86.5866 650.143 87.6809C650.143 88.8968 648.38 89.8087 644.854 90.4167C641.449 90.903 636.647 91.3894 630.446 91.8757C629.595 91.9973 628.743 92.0581 627.892 92.0581C627.163 92.0581 626.494 92.1189 625.886 92.2405C625.035 104.521 624.609 117.045 624.609 129.811L624.609 137.107C619.26 137.715 612.147 138.019 603.271 138.019C595.489 138.019 590.747 137.411 589.045 136.195L589.045 133.824C587.099 133.459 585.883 133.034 585.397 132.547C585.397 107.743 585.458 89.5655 585.579 78.0146L585.762 6.33804C589.896 5.48692 596.948 4.75738 606.918 4.14944C616.889 3.41991 626.616 3.05515 636.1 3.05515C650.569 3.05515 662.18 4.08865 670.935 6.15565L670.935 9.07379C671.421 9.31696 672.637 9.56014 674.582 9.80332C674.582 12.843 674.643 15.3356 674.765 17.281L674.947 27.4945C674.947 30.291 674.765 34.425 674.4 39.8965L657.621 40.8085C641.936 41.6596 631.175 42.3283 625.339 42.8147C624.609 45.4896 624.245 47.6174 624.245 49.1981L624.062 51.2043C624.062 52.4202 624.974 53.0281 626.798 53.0281C634.337 53.0281 640.477 52.7241 645.219 52.1162C645.583 52.9673 645.887 54.3048 646.131 56.1286L648.866 55.7639ZM644.672 84.0332C644.428 81.3583 644.307 79.1089 644.307 77.2851L644.489 68.5307C644.611 66.7068 644.672 64.1535 644.672 60.8706C644.672 57.4661 644.489 55.2167 644.124 54.1224C642.057 54.4872 639.139 54.6696 635.37 54.6696C631.722 54.6696 629.351 54.6696 628.257 54.6696C625.704 54.6696 623.758 54.4872 622.421 54.1224C621.205 53.7576 620.293 52.9673 619.685 51.7514C619.077 50.414 618.773 48.3469 618.773 45.5504C618.773 42.5107 619.32 39.8357 620.415 37.5256C625.765 37.0392 636.16 36.3705 651.602 35.5193C657.195 35.3977 663.031 35.0938 669.111 34.6074C669.232 33.5131 669.293 31.5677 669.293 28.7712L669.293 21.2934L669.111 7.61472C661.816 5.79089 650.812 4.87898 636.1 4.87898C626.616 4.87898 617.192 5.24374 607.83 5.97327C598.468 6.58121 591.72 7.24995 587.586 7.97949L587.586 34.0603L587.403 76.1908C587.282 83.8509 587.221 95.5234 587.221 111.208L587.403 131.818C588.254 132.304 592.328 132.547 599.623 132.547C608.256 132.547 614.761 132.304 619.138 131.818L619.138 126.164C619.381 108.898 619.867 95.8881 620.597 87.1338L620.779 87.1338C623.211 86.6474 627.102 86.161 632.452 85.6747C637.802 85.1883 641.693 84.7628 644.124 84.398C644.489 84.398 644.672 84.2764 644.672 84.0332ZM662.183 48.1038C664.007 44.2129 667.594 41.2948 672.944 39.3494C678.415 37.404 684.555 36.4312 691.364 36.4312C692.337 36.5528 694.587 36.6136 698.113 36.6136L702.49 36.4312C707.11 36.4312 711.609 37.1608 715.986 38.6198C720.363 40.0789 724.011 42.2067 726.929 45.0033L726.747 45.0033C727.112 45.4896 727.659 46.1584 728.388 47.0095C729.118 47.739 729.787 48.2862 730.394 48.6509L730.212 48.4685C733.495 50.6571 735.684 55.0343 736.778 61.6001C737.994 68.1659 738.602 76.3124 738.602 86.0395C738.602 94.6723 738.055 103.609 736.96 112.85C735.866 122.091 734.346 127.805 732.401 129.994C729.847 133.641 726.382 136.134 722.005 137.471C717.628 138.809 712.521 139.478 706.685 139.478C700.484 139.478 695.438 139.295 691.547 138.931C687.778 138.566 684.008 137.532 680.239 135.83C676.591 134.249 673.065 131.696 669.661 128.17L668.019 126.529C664.25 123.002 661.697 118.504 660.359 113.032C659.022 107.439 658.353 100.934 658.353 93.5172L658.353 86.9514L658.535 80.7503C658.535 79.2913 658.475 77.893 658.353 76.5555C658.232 75.2181 658.171 74.0022 658.171 72.9079C658.171 67.6796 658.292 63.7279 658.536 61.053C658.779 58.378 659.691 55.1559 661.271 51.3867L661.089 51.3867C661.21 50.6571 661.332 49.9276 661.454 49.1981C661.697 48.4685 661.94 47.9822 662.183 47.739L662.183 47.9214L662.001 48.4685L662.183 48.1038ZM660.177 80.3856L660.177 93.8819C660.177 104.582 661.94 113.458 665.466 120.51C669.114 127.44 675.619 131.696 684.981 133.277L693.553 133.459C697.687 133.702 700.909 133.824 703.219 133.824C708.934 133.824 713.798 133.216 717.81 132C721.822 130.784 724.984 128.535 727.294 125.252C729.361 123.185 730.698 118.564 731.306 111.391C732.036 104.217 732.644 94.5507 733.13 82.3918C733.13 81.2975 733.009 77.4067 732.765 70.7193C732.522 63.9103 731.793 58.4996 730.577 54.4872C729.483 50.3532 727.841 47.6174 725.652 46.2799C720.181 40.93 712.217 38.2551 701.76 38.2551L694.83 38.4375C693.249 38.4375 692.033 38.3767 691.182 38.2551C684.981 38.2551 679.266 39.167 674.038 40.9908C668.81 42.8147 665.405 45.4288 663.825 48.8333C662.487 53.5753 661.514 57.7701 660.906 61.4177C660.299 65.0654 659.995 68.8347 659.995 72.7255L660.177 80.3856ZM697.565 65.7949C706.077 65.7949 710.332 72.1175 710.332 84.7628C710.332 89.9911 710.089 94.1859 709.603 97.3472C709.116 100.387 707.84 102.879 705.773 104.825C703.706 106.77 700.544 107.743 696.289 107.743C692.641 107.743 689.662 106.953 687.352 105.372C685.042 103.791 683.887 101.238 683.887 97.712C684.008 96.1313 684.069 93.3348 684.069 89.3224C684.069 83.7293 684.191 79.4129 684.434 76.3732C684.799 73.2118 685.528 71.2056 686.622 70.3545C689.054 67.3148 692.702 65.7949 697.565 65.7949ZM691.364 75.4612C690.392 76.0692 689.784 78.8657 689.541 83.8509C689.419 88.7144 689.358 94.6115 689.358 101.542C689.358 103.487 689.966 104.703 691.182 105.19C692.398 105.676 694.1 105.919 696.289 105.919C703.706 105.919 707.414 103.366 707.414 98.2591C708.144 91.6933 708.508 86.9514 708.508 84.0332C708.508 80.0208 708.022 76.9203 707.049 74.7317C706.198 72.5431 704.131 71.4488 700.848 71.4488C700.119 71.4488 698.781 71.5704 696.836 71.8136L697.018 71.8136C694.708 72.4215 692.945 73.5158 691.729 75.0965L691.364 75.4612ZM786.977 131.27C780.533 134.797 774.15 136.56 767.827 136.56C763.936 136.56 760.046 135.891 756.155 134.553C752.264 133.337 749.65 131.392 748.312 128.717C745.759 126.65 743.935 123.124 742.841 118.139C741.868 113.154 741.382 105.798 741.382 96.0705C741.382 91.3286 741.503 84.2156 741.746 74.7317C741.99 65.491 742.111 58.7428 742.111 54.4872C742.111 49.6236 741.99 44.6385 741.746 39.5318C746.002 38.9238 750.987 38.6198 756.702 38.6198L768.01 38.6198C768.01 40.2005 768.07 41.4164 768.192 42.2675L771.657 42.2675C772.022 46.0368 772.204 53.3929 772.204 64.3359L772.204 73.455C772.204 80.5072 772.326 85.9787 772.569 89.8695C772.812 93.6388 773.542 96.9824 774.758 99.9006C776.46 100.144 777.676 100.265 778.405 100.265C781.81 100.265 784.242 99.171 785.701 96.9824C787.281 94.7938 788.072 90.7206 788.072 84.7628C788.072 81.8446 787.95 77.2243 787.707 70.9017C787.342 66.2813 787.16 61.5393 787.16 56.6758C787.16 50.4748 787.464 45.4896 788.072 41.7204L788.072 39.8965C791.598 38.9238 795.063 38.4375 798.468 38.4375L807.04 38.6199L809.046 38.6199C810.87 38.6199 812.633 38.4983 814.335 38.2551L814.335 42.2675L817.983 41.9027L818.165 76.3732C818.408 91.6933 818.53 103.305 818.53 111.208C818.53 117.653 818.408 126.346 818.165 137.289C812.329 136.924 809.593 136.742 809.958 136.742C808.863 136.742 807.161 136.924 804.851 137.289C802.541 137.654 799.562 137.836 795.914 137.836C793.969 137.836 792.57 137.593 791.719 137.107C790.99 136.62 790.625 135.648 790.625 134.189C788.558 134.067 787.403 133.337 787.16 132L786.977 131.27ZM790.99 132.547C794.516 132.547 798.407 132.243 802.662 131.635C804.608 131.392 805.824 131.27 806.31 131.27C806.675 131.27 808.803 131.392 812.693 131.635C812.937 118.99 813.058 109.749 813.058 103.913C813.058 96.4961 812.937 85.7355 812.693 71.6312L812.511 40.2613C811.052 40.3829 809.107 40.4437 806.675 40.4437L797.738 40.2613C795.306 40.2613 792.692 40.6261 789.896 41.3556L789.896 42.0851C789.288 45.8544 788.984 50.4748 788.984 55.9462C788.984 58.986 789.105 63.6671 789.348 69.9897C789.713 74.7317 789.896 79.4737 789.896 84.2156C789.896 91.0246 788.923 95.7058 786.977 98.2591C785.154 100.812 782.296 102.089 778.405 102.089C775.001 102.089 772.508 101.238 770.928 99.5358C769.347 97.712 768.374 95.645 768.01 93.3348C767.645 91.0246 767.341 87.4985 767.098 82.7566C766.854 80.9327 766.733 78.0146 766.733 74.0022L766.733 67.8011L766.733 54.1224L766.733 48.2862C766.733 44.6385 766.611 42.0243 766.368 40.4437L755.79 40.2613C751.413 40.2613 747.339 40.5653 743.57 41.1732C743.692 43.4834 743.753 47.3134 743.753 52.6633C743.753 56.7974 743.631 63.7279 743.388 73.455C743.145 83.1821 743.023 90.4774 743.023 95.341C743.023 112.971 744.482 123.002 747.4 125.434C751.534 129.203 757.127 131.088 764.18 131.088C768.678 131.088 772.508 130.419 775.67 129.082C778.831 127.744 783.147 125.434 788.619 122.151L788.436 126.529C788.436 130.541 789.288 132.547 790.99 132.547ZM855.407 45.368C861.364 41.7204 867.809 39.8965 874.739 39.8965C878.63 39.8965 882.399 40.5653 886.047 41.9027C889.695 43.2402 892.43 45.3072 894.254 48.1038L896.443 49.7452C899.604 52.177 901.185 62.3904 901.185 80.3856C901.185 85.1275 901.063 92.2405 900.82 101.724C900.577 110.965 900.455 117.713 900.455 121.969C900.455 126.832 900.577 131.818 900.82 136.924C896.443 137.532 891.336 137.836 885.5 137.836L874.557 137.836C874.435 136.985 874.374 135.769 874.374 134.189L870.909 134.189C870.544 130.419 870.362 123.063 870.362 112.12L870.362 103.001C870.362 95.9489 870.24 90.4774 869.997 86.5866C869.754 82.6958 869.085 79.4129 867.991 76.7379C867.018 76.3732 865.742 76.1908 864.161 76.1908C860.513 76.1908 857.96 77.4067 856.501 79.8384C855.163 82.2702 854.495 86.9514 854.495 93.8819C854.495 97.1648 854.616 101.724 854.859 107.561C855.103 113.64 855.224 118.078 855.224 120.875C855.224 126.103 854.981 130.663 854.495 134.553L854.495 136.56C850.239 137.654 846.713 138.201 843.917 138.201C842.214 138.201 840.877 138.14 839.904 138.019L835.527 137.836L833.521 137.836C831.697 137.836 829.934 137.958 828.232 138.201L828.232 134.189L824.584 134.553L824.402 100.083C824.158 84.7628 824.037 73.1511 824.037 65.2478C824.037 58.8036 824.158 50.11 824.402 39.167C827.32 39.5318 830.055 39.7141 832.609 39.7141C833.581 39.7141 835.162 39.5318 837.351 39.167C839.661 38.8022 842.761 38.6199 846.652 38.6199C849.935 38.6199 851.637 39.3494 851.759 40.8085C851.759 41.538 852.306 42.2067 853.4 42.8147C854.616 43.301 855.285 43.8482 855.407 44.4561L855.407 45.368ZM847.747 40.2613C844.342 40.2613 840.512 40.5653 836.256 41.1732C834.311 41.4164 833.095 41.538 832.609 41.538L830.42 41.538C828.84 41.538 827.441 41.4164 826.225 41.1732C825.982 44.9425 825.861 50.4748 825.861 57.7701L825.861 68.8954C825.861 76.3124 825.982 87.073 826.225 101.177L826.408 132.547C827.867 132.426 829.812 132.365 832.244 132.365L840.998 132.547C843.552 132.547 846.227 132.182 849.023 131.453L849.023 130.723C849.51 126.711 849.753 122.212 849.753 117.227C849.753 114.066 849.631 109.445 849.388 103.366C849.145 97.2864 849.023 92.666 849.023 89.5047C849.023 82.2094 849.935 77.2851 851.759 74.7317C853.583 72.0568 856.501 70.7193 860.513 70.7193C864.891 70.7193 867.687 72.0568 868.903 74.7317C870.24 77.2851 871.031 80.2032 871.274 83.4861C871.517 86.6474 871.7 88.836 871.821 90.0519C872.064 91.8757 872.186 94.7938 872.186 98.8063L872.186 105.19L872.186 118.686L872.186 124.522C872.186 128.17 872.307 130.784 872.551 132.365L883.129 132.547C887.506 132.547 891.579 132.243 895.349 131.635C895.105 127.015 894.984 123.185 894.984 120.145C894.984 115.889 895.105 109.02 895.349 99.5358C895.592 89.5655 895.713 82.2702 895.713 77.6498C895.713 69.2602 895.409 62.512 894.801 57.4053C894.193 52.177 893.099 48.8333 891.518 47.3742C887.384 43.605 881.731 41.7204 874.557 41.7204C870.666 41.7204 867.201 42.3283 864.161 43.5442C861.121 44.7601 858.264 46.1584 855.589 47.739C852.914 49.1981 851.151 50.1708 850.3 50.6571L850.482 46.4623C850.482 42.3283 849.57 40.2613 847.747 40.2613ZM984.205 19.2872C984.205 30.3518 984.448 46.4623 984.934 67.6188C985.056 72.8471 985.177 79.2913 985.299 86.9514C985.421 94.6115 985.481 103.427 985.481 113.397C985.481 124.583 985.421 132.547 985.299 137.289L974.356 137.471C971.924 137.593 968.337 137.654 963.595 137.654C961.407 137.654 959.705 137.411 958.489 136.924C957.394 136.438 956.847 135.465 956.847 134.006L956.847 133.641L954.476 133.459L954.112 133.094C950.95 135.769 946.999 137.107 942.257 137.107C936.907 137.107 932.165 136.134 928.031 134.189C924.018 132.243 920.675 129.69 918 126.529C908.394 118.868 903.591 103.366 903.591 80.0208C903.591 70.6585 904.929 62.3904 907.604 55.2167C910.279 48.043 914.291 43.4226 919.641 41.3556C924.14 39.5318 929.794 38.6199 936.603 38.6199C943.898 38.6199 949.491 39.6534 953.382 41.7204L953.017 23.1173C953.017 20.3207 953.139 16.9771 953.382 13.0862L953.929 5.79089L953.929 3.78468C953.929 3.17674 955.388 2.56879 958.306 1.96084C961.346 1.3529 964.629 1.04893 968.155 1.04893C972.897 1.04893 977.031 1.41369 980.557 2.14323L980.557 5.24374L984.205 5.79089L984.205 19.2872ZM979.828 131.818C979.949 127.562 980.01 120.935 980.01 111.938C980.01 102.089 979.949 93.3348 979.828 85.6747C979.706 77.893 979.584 71.3272 979.463 65.9773C978.976 44.0913 978.733 27.3121 978.733 15.6396L978.733 3.60229C976.18 3.11594 972.654 2.87277 968.155 2.87277C965.115 2.87277 962.258 2.99435 959.583 3.23753C957.03 3.35911 955.753 3.5415 955.753 3.78468L955.753 5.79089L955.388 12.1743C955.145 14.4845 955.023 18.1322 955.023 23.1173L955.023 31.5069C955.023 36.9784 955.084 41.5988 955.206 45.368C954.719 44.0305 952.652 42.8755 949.005 41.9027C945.357 40.93 941.162 40.4437 936.42 40.4437C930.949 40.4437 925.538 41.2948 920.188 42.997C915.082 44.8209 911.312 49.1373 908.881 55.9462C906.57 62.7552 905.415 70.7801 905.415 80.0208C905.658 90.4774 906.51 99.2926 907.969 106.466C909.549 113.64 912.771 119.659 917.635 124.522C922.62 129.264 929.915 131.635 939.521 131.635C945.722 131.635 950.221 128.96 953.017 123.61C953.139 123.124 953.382 122.881 953.747 122.881C954.233 122.881 954.659 124.279 955.023 127.076C955.388 129.872 955.449 131.392 955.206 131.635C958.002 132 961.103 132.182 964.507 132.182L972.532 132C974.234 131.878 976.666 131.818 979.828 131.818ZM944.81 61.6001C948.458 61.6001 951.011 62.0865 952.47 63.0592C953.929 63.9103 954.841 65.6733 955.206 68.3483C955.692 71.0232 955.935 75.7652 955.935 82.5742C955.935 88.6536 955.631 93.5172 955.023 97.1648C954.537 100.812 953.321 103.731 951.376 105.919C949.552 107.986 946.695 109.02 942.804 109.02C937.819 109.02 933.806 106.649 930.767 101.907C927.727 97.1648 926.207 91.5717 926.207 85.1275C926.207 80.3856 926.632 76.8595 927.484 74.5493C928.821 65.9165 934.597 61.6001 944.81 61.6001ZM954.112 75.6436C954.112 72.3607 953.747 70.1113 953.017 68.8954C952.409 67.6796 950.889 67.0716 948.458 67.0716C939.217 67.0716 934.049 70.8409 932.955 78.3794L932.773 78.7441C932.043 80.4464 931.678 82.9997 931.678 86.4042C931.678 100.265 935.387 107.196 942.804 107.196C946.208 107.196 948.701 106.223 950.281 104.278C951.984 102.211 953.017 99.5358 953.382 96.2529C953.868 92.8484 954.112 88.2889 954.112 82.5742L954.112 75.6436Z" fill="black"/>
</svg>
