<svg width="540" height="173" viewBox="0 0 540 174" fill="none" xmlns="http://www.w3.org/2000/svg">
<path d="M87.5377 136.107C82.6741 136.958 78.7833 137.383 75.8652 137.383C70.2721 137.383 64.8006 136.775 59.4507 135.56C58.9643 134.101 58.5388 133.189 58.174 132.824C57.8092 132.459 57.3837 132.216 56.8973 132.094C56.411 132.094 56.0462 132.034 55.803 131.912C54.8303 128.872 53.4928 123.948 51.7906 117.139C50.8179 113.126 49.9668 110.208 49.2372 108.384C48.6293 106.561 47.9605 105.649 47.231 105.649C46.2583 105.649 45.4072 105.71 44.6776 105.831C44.0697 105.831 43.2186 105.831 42.1243 105.831C41.2732 108.141 40.422 111.85 39.5709 116.956C38.5982 121.698 37.7471 125.468 37.0176 128.264C36.288 131.061 35.2545 133.736 33.917 136.289C33.5523 136.289 33.0051 136.35 32.2756 136.471C31.6677 136.593 30.8773 136.654 29.9046 136.654C28.5671 136.532 25.7706 136.471 21.515 136.471L13.6725 136.289L4.00621 136.107L4.55336 132.459L0.358551 132.459L2.91191 118.963C6.3164 99.2653 10.0249 79.8719 14.0373 60.7825C18.0497 41.5715 23.0956 21.8741 29.1751 1.69037C31.3637 1.4472 32.6404 1.32561 33.0051 1.32561C33.4915 1.32561 35.0721 1.3864 37.7471 1.50799C40.422 1.62958 46.0151 1.26481 54.5263 0.413695C55.0127 2.4807 55.3167 3.81818 55.4383 4.42613L58.174 4.06135C59.2683 10.2624 63.0983 27.0416 69.6641 54.3991C72.0959 64.3694 73.3726 69.6585 73.4942 70.2664L87.5377 136.107ZM53.0673 2.41991C47.7174 2.90626 42.4283 3.14944 37.1999 3.14944L33.3699 3.14944C31.9108 3.14944 30.9989 3.21023 30.6341 3.33182C24.7979 22.9076 19.9343 41.9362 16.0435 60.4177C12.2742 78.8992 8.505 98.5966 4.73575 119.51C4.37098 121.82 4.00621 124.009 3.64145 126.076C3.27668 128.021 2.97271 129.541 2.72953 130.635L3.0943 130.818L7.47149 130.818L21.8798 131C23.0956 131.122 24.5547 131.182 26.257 131.182C27.5944 131.182 28.3848 131.122 28.6279 131L29.1751 130.818C30.2694 128.994 31.1205 126.805 31.7284 124.252C32.3364 121.698 33.0051 118.294 33.7347 114.038C34.9505 107.229 36.1056 102.67 37.1999 100.36C38.5374 100.36 39.6317 100.36 40.4828 100.36C41.334 100.238 42.0027 100.177 42.4891 100.177L44.86 100.177L48.5077 100.542C49.4804 102.731 50.4531 105.77 51.4258 109.661C52.5201 113.552 53.1889 115.984 53.432 116.957C54.6479 122.671 55.8638 127.109 57.0797 130.27L57.2621 130.27C62.004 131.365 66.9892 131.912 72.2175 131.912C75.2572 131.912 78.4185 131.608 81.7014 131L81.7014 130.818L68.0227 66.9835L53.0673 2.41991ZM35.9233 78.8384C37.3823 68.017 38.0511 63.0927 37.9295 64.0654C38.9022 55.919 39.6925 50.0219 40.3005 46.3742C41.03 42.605 41.7595 40.7204 42.4891 40.7204C43.3402 40.7204 44.2521 43.5777 45.2248 49.2924C46.3191 55.007 47.7174 64.8557 49.4196 78.8384L40.3005 79.0208L35.9233 78.8384ZM44.86 56.2229L41.9419 77.0146L47.231 77.0146L44.86 56.2229ZM162.809 18.2872C162.809 29.3518 163.052 45.4623 163.539 66.6188C163.66 71.8471 163.782 78.2913 163.903 85.9514C164.025 93.6115 164.086 102.427 164.086 112.397C164.086 123.583 164.025 131.547 163.903 136.289L152.96 136.471C150.529 136.593 146.942 136.654 142.2 136.654C140.011 136.654 138.309 136.411 137.093 135.924C135.999 135.438 135.452 134.465 135.452 133.006L135.452 132.641L133.081 132.459L132.716 132.094C129.555 134.769 125.603 136.107 120.861 136.107C115.511 136.107 110.769 135.134 106.635 133.189C102.623 131.243 99.2791 128.69 96.6041 125.529C86.9986 117.868 82.1958 102.366 82.1958 79.0208C82.1958 69.6585 83.5333 61.3904 86.2083 54.2167C88.8832 47.043 92.8957 42.4226 98.2456 40.3556C102.744 38.5318 108.398 37.6198 115.207 37.6198C122.503 37.6198 128.096 38.6534 131.986 40.7204L131.622 22.1173C131.622 19.3207 131.743 15.9771 131.986 12.0862L132.534 4.79089L132.534 2.78468C132.534 2.17673 133.993 1.56879 136.911 0.960838C139.95 0.352895 143.233 0.0489231 146.759 0.0489231C151.501 0.0489231 155.635 0.413692 159.162 1.14323L159.162 4.24373L162.809 4.79089L162.809 18.2872ZM158.432 130.818C158.554 126.562 158.614 119.935 158.614 110.938C158.614 101.089 158.554 92.3348 158.432 84.6747C158.31 76.893 158.189 70.3272 158.067 64.9773C157.581 43.0913 157.338 26.3121 157.338 14.6396L157.338 2.60229C154.784 2.11594 151.258 1.87276 146.759 1.87276C143.72 1.87276 140.862 1.99435 138.187 2.23752C135.634 2.35911 134.357 2.5415 134.357 2.78468L134.357 4.79089L133.993 11.1743C133.749 13.4845 133.628 17.1321 133.628 22.1173L133.628 30.5069C133.628 35.9784 133.689 40.5988 133.81 44.368C133.324 43.0305 131.257 41.8755 127.609 40.9027C123.962 39.93 119.767 39.4437 115.025 39.4437C109.553 39.4437 104.143 40.2948 98.7927 41.997C93.686 43.8209 89.9167 48.1373 87.485 54.9462C85.1748 61.7552 84.0197 69.7801 84.0197 79.0208C84.2629 89.4774 85.114 98.2926 86.573 105.466C88.1537 112.64 91.3758 118.659 96.2393 123.522C101.224 128.264 108.52 130.635 118.125 130.635C124.326 130.635 128.825 127.96 131.622 122.61C131.743 122.124 131.986 121.881 132.351 121.881C132.838 121.881 133.263 123.279 133.628 126.076C133.993 128.872 134.053 130.392 133.81 130.635C136.607 131 139.707 131.182 143.112 131.182L151.137 131C152.839 130.878 155.271 130.818 158.432 130.818ZM123.414 60.6001C127.062 60.6001 129.615 61.0865 131.075 62.0592C132.534 62.9103 133.445 64.6733 133.81 67.3483C134.297 70.0232 134.54 74.7652 134.54 81.5742C134.54 87.6536 134.236 92.5172 133.628 96.1648C133.142 99.8125 131.926 102.731 129.98 104.919C128.156 106.986 125.299 108.02 121.408 108.02C116.423 108.02 112.411 105.649 109.371 100.907C106.331 96.1648 104.811 90.5717 104.811 84.1275C104.811 79.3856 105.237 75.8595 106.088 73.5493C107.426 64.9165 113.201 60.6001 123.414 60.6001ZM132.716 74.6436C132.716 71.3607 132.351 69.1113 131.622 67.8954C131.014 66.6796 129.494 66.0716 127.062 66.0716C117.821 66.0716 112.654 69.8409 111.56 77.3794L111.377 77.7441C110.648 79.4464 110.283 81.9997 110.283 85.4042C110.283 99.2653 113.991 106.196 121.408 106.196C124.813 106.196 127.305 105.223 128.886 103.278C130.588 101.211 131.622 98.5358 131.986 95.2529C132.473 91.8484 132.716 87.2888 132.716 81.5742L132.716 74.6436ZM247.233 18.2872C247.233 29.3518 247.476 45.4623 247.962 66.6188C248.084 71.8471 248.205 78.2913 248.327 85.9514C248.449 93.6115 248.509 102.427 248.509 112.397C248.509 123.583 248.449 131.547 248.327 136.289L237.384 136.471C234.952 136.593 231.365 136.654 226.623 136.654C224.435 136.654 222.732 136.411 221.517 135.924C220.422 135.438 219.875 134.465 219.875 133.006L219.875 132.641L217.504 132.459L217.139 132.094C213.978 134.769 210.026 136.107 205.284 136.107C199.935 136.107 195.193 135.134 191.059 133.189C187.046 131.243 183.702 128.69 181.028 125.529C171.422 117.868 166.619 102.366 166.619 79.0208C166.619 69.6585 167.957 61.3904 170.632 54.2167C173.307 47.043 177.319 42.4226 182.669 40.3556C187.168 38.5318 192.822 37.6198 199.631 37.6198C206.926 37.6198 212.519 38.6534 216.41 40.7204L216.045 22.1173C216.045 19.3207 216.167 15.9771 216.41 12.0862L216.957 4.79089L216.957 2.78468C216.957 2.17674 218.416 1.56879 221.334 0.960838C224.374 0.352895 227.657 0.0489234 231.183 0.0489234C235.925 0.0489234 240.059 0.413692 243.585 1.14323L243.585 4.24374L247.233 4.79089L247.233 18.2872ZM242.855 130.818C242.977 126.562 243.038 119.935 243.038 110.938C243.038 101.089 242.977 92.3348 242.855 84.6747C242.734 76.893 242.612 70.3272 242.491 64.9773C242.004 43.0913 241.761 26.3121 241.761 14.6396L241.761 2.60229C239.208 2.11594 235.682 1.87276 231.183 1.87276C228.143 1.87276 225.286 1.99435 222.611 2.23753C220.058 2.35911 218.781 2.5415 218.781 2.78468L218.781 4.79089L218.416 11.1743C218.173 13.4845 218.051 17.1321 218.051 22.1173L218.051 30.5069C218.051 35.9784 218.112 40.5988 218.234 44.368C217.747 43.0305 215.68 41.8755 212.033 40.9027C208.385 39.93 204.19 39.4437 199.448 39.4437C193.977 39.4437 188.566 40.2948 183.216 41.997C178.109 43.8209 174.34 48.1373 171.908 54.9462C169.598 61.7552 168.443 69.7801 168.443 79.0208C168.686 89.4774 169.537 98.2926 170.996 105.466C172.577 112.64 175.799 118.659 180.663 123.522C185.648 128.264 192.943 130.635 202.549 130.635C208.75 130.635 213.249 127.96 216.045 122.61C216.167 122.124 216.41 121.881 216.775 121.881C217.261 121.881 217.687 123.279 218.051 126.076C218.416 128.872 218.477 130.392 218.234 130.635C221.03 131 224.131 131.182 227.535 131.182L235.56 131C237.262 130.878 239.694 130.818 242.855 130.818ZM207.838 60.6001C211.486 60.6001 214.039 61.0865 215.498 62.0592C216.957 62.9103 217.869 64.6733 218.234 67.3483C218.72 70.0232 218.963 74.7652 218.963 81.5742C218.963 87.6536 218.659 92.5172 218.051 96.1648C217.565 99.8125 216.349 102.731 214.404 104.919C212.58 106.986 209.722 108.02 205.832 108.02C200.847 108.02 196.834 105.649 193.794 100.907C190.755 96.1648 189.235 90.5717 189.235 84.1275C189.235 79.3856 189.66 75.8595 190.511 73.5493C191.849 64.9165 197.624 60.6001 207.838 60.6001ZM217.139 74.6436C217.139 71.3607 216.775 69.1113 216.045 67.8954C215.437 66.6796 213.917 66.0716 211.486 66.0716C202.245 66.0716 197.077 69.8409 195.983 77.3794L195.801 77.7441C195.071 79.4464 194.706 81.9997 194.706 85.4042C194.706 99.2653 198.415 106.196 205.832 106.196C209.236 106.196 211.729 105.223 213.309 103.278C215.012 101.211 216.045 98.5358 216.41 95.2529C216.896 91.8484 217.139 87.2888 217.139 81.5742L217.139 74.6436ZM362.332 21.2054C367.56 29.1086 371.33 38.2278 373.64 48.5628L373.457 48.3805C374.43 51.2986 375.038 55.3718 375.281 60.6001L374.734 70.996C374.491 81.331 373.822 89.1735 372.728 94.5234C370.174 101.94 366.831 108.932 362.697 115.497C358.684 122.063 353.942 128.751 348.471 135.56C336.798 135.924 324.336 136.107 311.082 136.107C307.921 136.228 303.483 136.289 297.768 136.289L297.221 132.459L294.121 132.641C291.932 116.713 290.838 96.3472 290.838 71.5431C290.838 61.2081 290.899 53.4264 291.02 48.1981L291.203 23.394C291.203 15.4907 291.142 9.59364 291.02 5.7028C291.02 5.45963 291.081 5.27724 291.203 5.15565C291.446 4.54771 291.871 3.93976 292.479 3.33182C295.641 2.4807 298.802 1.93355 301.963 1.69037C305.246 1.32561 309.076 1.14323 313.453 1.14323C317.223 1.14323 320.08 1.20402 322.025 1.32561L330.415 1.50799C333.576 1.50799 335.947 1.4472 337.528 1.32561C342.391 2.78467 347.194 5.45962 351.936 9.35046C356.678 13.1197 360.204 17.0713 362.514 21.2054L362.332 21.2054ZM332.056 3.33182C328.166 3.33182 325.187 3.27103 323.12 3.14944L314.001 2.96706C305.611 2.96706 298.741 3.6358 293.391 4.97327L292.844 5.7028C292.966 9.59364 293.026 15.4299 293.026 23.2116L292.844 48.0157C292.722 53.3656 292.662 61.4512 292.662 72.2726C292.662 84.4315 292.844 95.1313 293.209 104.372C293.695 113.613 294.546 122.428 295.762 130.818L295.945 130.635C317.223 130.635 333.212 130.453 343.911 130.088C349.504 123.158 354.186 116.653 357.955 110.573C361.846 104.494 364.885 98.1102 367.074 91.4229L367.256 91.0581C368.472 84.6139 369.202 75.9203 369.445 64.9773L369.81 56.7701C369.445 50.2043 368.168 43.5777 365.98 36.8903C363.791 30.2029 360.873 24.0627 357.225 18.4696C355.037 14.822 352.119 11.5999 348.471 8.80332C344.945 6.00678 341.236 4.12215 337.346 3.14944L332.056 3.33182ZM331.509 91.6053C329.442 91.97 327.314 92.1524 325.126 92.1524C322.329 92.1524 320.323 91.6052 319.107 90.5109C318.864 84.9179 318.742 80.6015 318.742 77.5617L318.925 65.3421C319.046 62.7887 319.107 59.1411 319.107 54.3991C319.107 51.6026 318.986 47.8941 318.742 43.2737L318.742 42.5442L319.29 42.5442C321.478 42.1794 323.788 41.997 326.22 41.997C333.515 41.997 338.561 44.672 341.358 50.0219C344.155 55.2502 345.553 61.3904 345.553 68.4426C345.553 73.9141 343.851 79.3248 340.446 84.6747C339.23 86.4985 337.832 88.14 336.251 89.599C334.671 90.9365 333.212 91.6053 331.874 91.6053L331.509 91.6053ZM338.987 83.7628C342.148 79.0208 343.729 73.9141 343.729 68.4426C343.729 65.7676 343.243 62.5455 342.27 58.7763C341.297 54.8854 339.96 51.5418 338.257 48.7452L336.434 47.8333C333.515 47.5901 331.327 47.4685 329.868 47.4685C328.774 47.4685 326.889 47.5901 324.214 47.8333C324.457 52.4537 324.579 56.2837 324.579 59.3234L324.396 73.3669C324.153 79.6896 324.032 84.3707 324.032 87.4104L324.214 90.3286L325.126 90.3286C326.463 90.3286 327.74 90.2678 328.956 90.1462C330.172 89.903 331.084 89.7814 331.692 89.7814L332.056 89.9638C332.421 89.9638 333.09 89.599 334.063 88.8695L333.88 88.8695C335.704 87.7752 337.406 86.0122 338.987 83.5804L338.987 83.7628ZM380.1 47.1038C381.924 43.2129 385.511 40.2948 390.861 38.3494C396.332 36.404 402.472 35.4312 409.281 35.4312C410.254 35.5528 412.504 35.6136 416.03 35.6136L420.407 35.4312C425.027 35.4312 429.526 36.1608 433.903 37.6198C438.28 39.0789 441.928 41.2067 444.846 44.0033L444.664 44.0033C445.029 44.4896 445.576 45.1584 446.305 46.0095C447.035 46.739 447.703 47.2862 448.311 47.6509L448.129 47.4685C451.412 49.6571 453.601 54.0343 454.695 60.6001C455.911 67.1659 456.519 75.3124 456.519 85.0395C456.519 93.6723 455.971 102.609 454.877 111.85C453.783 121.091 452.263 126.805 450.318 128.994C447.764 132.641 444.299 135.134 439.922 136.471C435.545 137.809 430.438 138.478 424.602 138.478C418.401 138.478 413.355 138.295 409.464 137.931C405.695 137.566 401.925 136.532 398.156 134.83C394.508 133.249 390.982 130.696 387.578 127.17L385.936 125.529C382.167 122.002 379.614 117.504 378.276 112.032C376.939 106.439 376.27 99.9341 376.27 92.5172L376.27 85.9514L376.452 79.7503C376.452 78.2913 376.392 76.893 376.27 75.5555C376.148 74.2181 376.088 73.0022 376.088 71.9079C376.088 66.6796 376.209 62.7279 376.452 60.053C376.696 57.378 377.608 54.1559 379.188 50.3867L379.006 50.3867C379.127 49.6571 379.249 48.9276 379.371 48.1981C379.614 47.4685 379.857 46.9822 380.1 46.739L380.1 46.9214L379.918 47.4685L380.1 47.1038ZM378.094 79.3856L378.094 92.8819C378.094 103.582 379.857 112.458 383.383 119.51C387.031 126.44 393.536 130.696 402.898 132.277L411.47 132.459C415.604 132.702 418.826 132.824 421.136 132.824C426.851 132.824 431.715 132.216 435.727 131C439.739 129.784 442.901 127.535 445.211 124.252C447.278 122.185 448.615 117.564 449.223 110.391C449.953 103.217 450.561 93.5507 451.047 81.3918C451.047 80.2975 450.926 76.4067 450.682 69.7193C450.439 62.9103 449.71 57.4996 448.494 53.4872C447.399 49.3532 445.758 46.6174 443.569 45.2799C438.098 39.93 430.134 37.2551 419.677 37.2551L412.747 37.4375C411.166 37.4375 409.95 37.3767 409.099 37.2551C402.898 37.2551 397.183 38.167 391.955 39.9908C386.727 41.8147 383.322 44.4288 381.742 47.8333C380.404 52.5753 379.431 56.7701 378.823 60.4177C378.215 64.0654 377.912 67.8346 377.912 71.7255L378.094 79.3856ZM415.482 64.7949C423.994 64.7949 428.249 71.1175 428.249 83.7628C428.249 88.9911 428.006 93.1859 427.52 96.3472C427.033 99.3869 425.757 101.879 423.69 103.825C421.623 105.77 418.461 106.743 414.206 106.743C410.558 106.743 407.579 105.953 405.269 104.372C402.959 102.791 401.804 100.238 401.804 96.712C401.925 95.1313 401.986 92.3348 401.986 88.3224C401.986 82.7293 402.108 78.4129 402.351 75.3732C402.716 72.2118 403.445 70.2056 404.539 69.3545C406.971 66.3148 410.619 64.7949 415.482 64.7949ZM409.281 74.4612C408.309 75.0692 407.701 77.8657 407.458 82.8509C407.336 87.7144 407.275 93.6115 407.275 100.542C407.275 102.487 407.883 103.703 409.099 104.19C410.315 104.676 412.017 104.919 414.206 104.919C421.623 104.919 425.331 102.366 425.331 97.2591C426.061 90.6933 426.425 85.9514 426.425 83.0332C426.425 79.0208 425.939 75.9203 424.966 73.7317C424.115 71.5431 422.048 70.4488 418.765 70.4488C418.036 70.4488 416.698 70.5704 414.753 70.8136L414.935 70.8136C412.625 71.4215 410.862 72.5158 409.646 74.0965L409.281 74.4612ZM539 41.8147C539.486 56.0405 539.73 73.1846 539.73 93.2467C539.73 112.093 539.426 128.507 538.818 142.49L538.818 146.867C538.818 156.351 536.264 162.917 531.158 166.565C526.051 170.334 520.822 172.462 515.473 172.948C513.77 173.191 512.25 173.313 510.913 173.313C503.253 173.313 496.809 172.887 491.58 172.036C486.474 171.307 481.61 169.604 476.99 166.929C472.369 164.255 468.235 160.121 464.588 154.527C463.615 153.19 462.885 151.123 462.399 148.326C461.913 145.651 461.67 143.037 461.67 140.484C461.67 139.025 461.73 137.991 461.852 137.383C464.77 136.168 468.6 135.56 473.342 135.56C473.95 135.56 475.287 135.56 477.354 135.56C479.421 135.56 481.185 135.681 482.644 135.924C478.388 134.83 474.376 132.885 470.606 130.088C466.837 127.292 464.223 124.13 462.764 120.604L462.764 120.787C459.846 115.193 458.083 107.837 457.475 98.7182C457.475 87.8968 458.022 78.5345 459.116 70.6312C460.332 62.6063 463.25 55.4934 467.871 49.2924C472.613 42.9698 479.847 39.3829 489.574 38.5318C492.857 38.5318 496.018 39.0181 499.058 39.9908C502.098 40.842 504.59 42.2402 506.536 44.1856C506.536 41.997 506.961 40.1124 507.812 38.5318C512.19 38.0454 516.141 37.8022 519.667 37.8022C522.829 37.8022 525.26 37.863 526.963 37.9846L535.352 38.167L535.535 41.8147L539 41.8147ZM533.346 140.666C533.346 131.79 533.528 123.097 533.893 114.586C534.136 103.399 534.258 95.0705 534.258 89.599C534.258 70.7528 534.015 54.2167 533.528 39.9908L524.045 39.8085C521.856 39.6869 518.634 39.6261 514.378 39.6261C510.366 39.6261 508.36 40.6596 508.36 42.7266L508.542 45.8271L508.542 47.4685C508.542 48.5628 508.42 49.11 508.177 49.11L507.812 48.9276C506.475 46.0095 504.408 43.8817 501.611 42.5442C498.936 41.0851 495.714 40.3556 491.945 40.3556C481.61 40.3556 474.072 43.3953 469.33 49.4748C464.588 55.4326 461.73 62.2416 460.758 69.9017C459.785 77.4402 459.299 86.9849 459.299 98.5358C459.663 102.913 460.21 106.804 460.94 110.208C461.67 113.491 462.825 116.713 464.405 119.875C468.175 127.535 476.078 131.365 488.115 131.365C489.088 131.243 490.608 131.182 492.675 131.182C496.809 131.061 500.092 130.757 502.523 130.27C505.077 129.663 507.205 128.447 508.907 126.623C508.785 127.474 508.724 128.568 508.724 129.906L508.907 134.283C508.907 139.268 507.873 142.976 505.806 145.408C503.861 147.962 501.186 149.238 497.781 149.238C494.742 149.238 492.128 148.266 489.939 146.32C487.872 144.496 486.838 141.882 486.838 138.478C482.948 137.87 477.902 137.566 471.701 137.566C469.026 137.566 466.959 137.748 465.5 138.113C464.041 138.478 463.311 139.268 463.311 140.484C463.311 148.63 466.108 155.135 471.701 159.999C477.415 164.984 484.407 167.477 492.675 167.477L507.812 167.659C509.879 167.659 511.095 167.598 511.46 167.477C516.445 166.869 521.309 165.045 526.051 162.005C530.914 159.087 533.346 153.676 533.346 145.773L533.346 140.666ZM496.869 62.7887C501.976 62.7887 505.381 65.2205 507.083 70.084C508.907 74.826 509.819 81.027 509.819 88.6871L509.636 98.3534C509.272 101.272 508.785 103.521 508.177 105.102C507.691 106.682 506.597 108.02 504.894 109.114C503.314 110.087 500.943 110.573 497.781 110.573C492.188 110.573 487.811 108.506 484.65 104.372C481.489 100.238 479.908 95.2529 479.908 89.4167L479.908 84.3099C479.908 81.027 480.577 77.7441 481.914 74.4612C483.373 71.0568 485.379 68.2602 487.933 66.0716C490.486 63.883 493.465 62.7887 496.869 62.7887ZM507.812 98.171C507.812 93.3075 507.63 88.2008 507.265 82.8509C506.901 77.3794 506.293 72.8806 505.441 69.3545C503.982 68.625 502.341 68.2602 500.517 68.2602C496.991 68.2602 494.255 69.1721 492.31 70.996L492.675 70.8136C490.121 73.7317 488.237 76.7106 487.021 79.7503C485.926 82.6685 485.379 86.073 485.379 89.9638L485.379 93.0643C485.379 97.6847 486.23 101.454 487.933 104.372C489.757 107.169 493.1 108.567 497.964 108.567C500.76 108.567 502.767 108.202 503.982 107.473C505.32 106.743 506.171 105.71 506.536 104.372C507.022 103.035 507.448 100.968 507.812 98.171ZM488.115 136.654C488.358 136.775 488.541 137.262 488.662 138.113C488.784 139.086 488.905 139.694 489.027 139.937L492.31 140.484C492.31 142.916 492.675 144.679 493.404 145.773C494.134 146.867 495.593 147.414 497.781 147.414C499.848 147.414 501.855 146.563 503.8 144.861C505.867 143.159 506.901 140.97 506.901 138.295L507.083 135.377C505.259 135.985 503.253 136.35 501.064 136.471C498.997 136.593 497.721 136.654 497.234 136.654C494.802 136.654 493.039 136.715 491.945 136.836C490.243 136.836 488.966 136.775 488.115 136.654Z" fill="black"/>
</svg>
