<svg width="335" height="173" viewBox="0 0 335 173" fill="none" xmlns="http://www.w3.org/2000/svg">
<path d="M71.7833 20.2054C77.0116 28.1086 80.7809 37.2278 83.091 47.5628L82.9087 47.3805C83.8814 50.2986 84.4893 54.3718 84.7325 59.6001L84.1853 69.996C83.9422 80.331 83.2734 88.1735 82.1791 93.5234C79.6258 100.94 76.2821 107.932 72.1481 114.497C68.1356 121.063 63.3937 127.751 57.9222 134.56C46.2497 134.924 33.7868 135.107 20.5336 135.107C17.3723 135.228 12.9343 135.289 7.21967 135.289L6.67252 131.459L3.57201 131.641C1.38341 115.713 0.28911 95.3472 0.28911 70.5431C0.28911 60.2081 0.349904 52.4264 0.471493 47.1981L0.653876 22.394C0.653876 14.4907 0.593082 8.59364 0.471493 4.7028C0.471493 4.45963 0.532288 4.27724 0.653876 4.15565C0.897054 3.54771 1.32261 2.93976 1.93056 2.33182C5.09187 1.4807 8.25317 0.933553 11.4145 0.690371C14.6974 0.32561 18.5274 0.143229 22.9046 0.143229C26.6739 0.143229 29.5312 0.204023 31.4766 0.32561L39.8662 0.50799C43.0276 0.50799 45.3985 0.447197 46.9792 0.32561C51.8427 1.78467 56.6455 4.45962 61.3875 8.35046C66.1294 12.1197 69.6555 16.0713 71.9657 20.2054L71.7833 20.2054ZM41.5077 2.33182C37.6169 2.33182 34.6379 2.27103 32.5709 2.14944L23.4518 1.96706C15.0621 1.96706 8.19238 2.63579 2.84247 3.97327L2.29532 4.7028C2.41691 8.59364 2.47771 14.4299 2.47771 22.2116L2.29532 47.0157C2.17374 52.3656 2.11294 60.4512 2.11294 71.2726C2.11294 83.4315 2.29532 94.1313 2.66009 103.372C3.14645 112.613 3.99757 121.428 5.21345 129.818L5.39584 129.635C26.6739 129.635 42.6628 129.453 53.3626 129.088C58.9557 122.158 63.6368 115.653 67.4061 109.573C71.2969 103.494 74.3367 97.1102 76.5253 90.4229L76.7076 90.0581C77.9235 83.6139 78.6531 74.9203 78.8962 63.9773L79.261 55.7701C78.8962 49.2043 77.6195 42.5777 75.431 35.8903C73.2424 29.2029 70.3242 23.0627 66.6766 17.4696C64.488 13.822 61.5698 10.5999 57.9222 7.80332C54.3961 5.00678 50.6876 3.12215 46.7968 2.14944L41.5077 2.33182ZM40.9605 90.6052C38.8935 90.97 36.7657 91.1524 34.5771 91.1524C31.7806 91.1524 29.7744 90.6052 28.5585 89.5109C28.3153 83.9179 28.1937 79.6015 28.1937 76.5617L28.3761 64.3421C28.4977 61.7887 28.5585 58.1411 28.5585 53.3991C28.5585 50.6026 28.4369 46.8941 28.1937 42.2737L28.1937 41.5442L28.7409 41.5442C30.9295 41.1794 33.2397 40.997 35.6714 40.997C42.9668 40.997 48.0127 43.672 50.8092 49.0219C53.6058 54.2502 55.004 60.3904 55.004 67.4426C55.004 72.9141 53.3018 78.3248 49.8973 83.6747C48.6814 85.4985 47.2832 87.14 45.7025 88.599C44.1219 89.9365 42.6628 90.6052 41.3253 90.6052L40.9605 90.6052ZM48.4383 82.7628C51.5996 78.0208 53.1802 72.9141 53.1802 67.4426C53.1802 64.7676 52.6939 61.5455 51.7211 57.7763C50.7484 53.8854 49.411 50.5418 47.7087 47.7452L45.8849 46.8333C42.9668 46.5901 40.7782 46.4685 39.3191 46.4685C38.2248 46.4685 36.3402 46.5901 33.6652 46.8333C33.9084 51.4537 34.03 55.2837 34.03 58.3234L33.8476 72.3669C33.6044 78.6896 33.4828 83.3707 33.4828 86.4104L33.6652 89.3286L34.5771 89.3286C35.9146 89.3286 37.1913 89.2678 38.4072 89.1462C39.6231 88.903 40.535 88.7814 41.1429 88.7814L41.5077 88.9638C41.8725 88.9638 42.5412 88.599 43.5139 87.8695L43.3315 87.8695C45.1554 86.7752 46.8576 85.0122 48.4383 82.5804L48.4383 82.7628ZM89.5514 46.1038C91.3752 42.2129 94.9621 39.2948 100.312 37.3494C105.783 35.404 111.924 34.4312 118.733 34.4312C119.705 34.5528 121.955 34.6136 125.481 34.6136L129.858 34.4312C134.478 34.4312 138.977 35.1608 143.354 36.6198C147.732 38.0789 151.379 40.2067 154.297 43.0033L154.115 43.0033C154.48 43.4896 155.027 44.1584 155.756 45.0095C156.486 45.739 157.155 46.2862 157.763 46.6509L157.58 46.4685C160.863 48.6571 163.052 53.0343 164.146 59.6001C165.362 66.1659 165.97 74.3124 165.97 84.0395C165.97 92.6723 165.423 101.609 164.328 110.85C163.234 120.091 161.714 125.805 159.769 127.994C157.216 131.641 153.75 134.134 149.373 135.471C144.996 136.809 139.889 137.478 134.053 137.478C127.852 137.478 122.806 137.295 118.915 136.931C115.146 136.566 111.377 135.532 107.607 133.83C103.96 132.249 100.434 129.696 97.0291 126.17L95.3876 124.529C91.6184 121.002 89.065 116.504 87.7276 111.032C86.3901 105.439 85.7213 98.9341 85.7213 91.5172L85.7213 84.9514L85.9037 78.7503C85.9037 77.2913 85.8429 75.893 85.7213 74.5555C85.5998 73.2181 85.539 72.0022 85.539 70.9079C85.539 65.6796 85.6605 61.7279 85.9037 59.053C86.1469 56.378 87.0588 53.1559 88.6395 49.3867L88.4571 49.3867C88.5787 48.6571 88.7003 47.9276 88.8219 47.1981C89.065 46.4685 89.3082 45.9822 89.5514 45.739L89.5514 45.9214L89.369 46.4685L89.5514 46.1038ZM87.5452 78.3856L87.5452 91.8819C87.5452 102.582 89.3082 111.458 92.8343 118.51C96.4819 125.44 102.987 129.696 112.349 131.277L120.921 131.459C125.055 131.702 128.277 131.824 130.588 131.824C136.302 131.824 141.166 131.216 145.178 130C149.191 128.784 152.352 126.535 154.662 123.252C156.729 121.185 158.067 116.564 158.675 109.391C159.404 102.217 160.012 92.5507 160.498 80.3918C160.498 79.2975 160.377 75.4067 160.134 68.7193C159.89 61.9103 159.161 56.4996 157.945 52.4872C156.851 48.3532 155.209 45.6174 153.021 44.2799C147.549 38.93 139.585 36.2551 129.129 36.2551L122.198 36.4375C120.617 36.4375 119.401 36.3767 118.55 36.2551C112.349 36.2551 106.635 37.167 101.406 38.9908C96.178 40.8147 92.7735 43.4288 91.1928 46.8333C89.8554 51.5753 88.8826 55.7701 88.2747 59.4177C87.6668 63.0654 87.3628 66.8346 87.3628 70.7255L87.5452 78.3856ZM124.934 63.7949C133.445 63.7949 137.701 70.1175 137.701 82.7628C137.701 87.9911 137.457 92.1859 136.971 95.3472C136.485 98.3869 135.208 100.879 133.141 102.825C131.074 104.77 127.913 105.743 123.657 105.743C120.009 105.743 117.03 104.953 114.72 103.372C112.41 101.791 111.255 99.238 111.255 95.712C111.377 94.1313 111.437 91.3348 111.437 87.3224C111.437 81.7293 111.559 77.4129 111.802 74.3732C112.167 71.2118 112.896 69.2056 113.991 68.3545C116.422 65.3148 120.07 63.7949 124.934 63.7949ZM118.733 73.4612C117.76 74.0692 117.152 76.8657 116.909 81.8509C116.787 86.7144 116.726 92.6115 116.726 99.542C116.726 101.487 117.334 102.703 118.55 103.19C119.766 103.676 121.468 103.919 123.657 103.919C131.074 103.919 134.782 101.366 134.782 96.2591C135.512 89.6933 135.877 84.9514 135.877 82.0332C135.877 78.0208 135.39 74.9203 134.418 72.7317C133.567 70.5431 131.5 69.4488 128.217 69.4488C127.487 69.4488 126.15 69.5704 124.204 69.8136L124.387 69.8136C122.076 70.4215 120.313 71.5158 119.097 73.0965L118.733 73.4612ZM248.451 40.8147C248.938 55.0405 249.181 72.1846 249.181 92.2467C249.181 111.093 248.877 127.507 248.269 141.49L248.269 145.867C248.269 155.351 245.715 161.917 240.609 165.565C235.502 169.334 230.274 171.462 224.924 171.948C223.222 172.191 221.702 172.313 220.364 172.313C212.704 172.313 206.26 171.887 201.032 171.036C195.925 170.307 191.061 168.604 186.441 165.929C181.821 163.255 177.687 159.121 174.039 153.527C173.066 152.19 172.337 150.123 171.85 147.326C171.364 144.651 171.121 142.037 171.121 139.484C171.121 138.025 171.182 136.991 171.303 136.383C174.221 135.168 178.051 134.56 182.793 134.56C183.401 134.56 184.739 134.56 186.806 134.56C188.873 134.56 190.636 134.681 192.095 134.924C187.839 133.83 183.827 131.885 180.058 129.088C176.288 126.292 173.674 123.13 172.215 119.604L172.215 119.787C169.297 114.193 167.534 106.837 166.926 97.7182C166.926 86.8968 167.473 77.5345 168.567 69.6312C169.783 61.6063 172.701 54.4934 177.322 48.2924C182.064 41.9698 189.298 38.3829 199.025 37.5318C202.308 37.5318 205.47 38.0181 208.509 38.9908C211.549 39.842 214.042 41.2402 215.987 43.1856C215.987 40.997 216.413 39.1124 217.264 37.5318C221.641 37.0454 225.593 36.8022 229.119 36.8022C232.28 36.8022 234.712 36.863 236.414 36.9846L244.804 37.167L244.986 40.8147L248.451 40.8147ZM242.797 139.666C242.797 130.79 242.98 122.097 243.345 113.586C243.588 102.399 243.709 94.0705 243.709 88.599C243.709 69.7528 243.466 53.2167 242.98 38.9908L233.496 38.8084C231.307 38.6869 228.085 38.6261 223.83 38.6261C219.817 38.6261 217.811 39.6596 217.811 41.7266L217.993 44.8271L217.993 46.4685C217.993 47.5628 217.872 48.11 217.628 48.11L217.264 47.9276C215.926 45.0095 213.859 42.8817 211.063 41.5442C208.388 40.0851 205.166 39.3556 201.396 39.3556C191.061 39.3556 183.523 42.3953 178.781 48.4747C174.039 54.4326 171.182 61.2416 170.209 68.9017C169.236 76.4402 168.75 85.9849 168.75 97.5358C169.115 101.913 169.662 105.804 170.391 109.208C171.121 112.491 172.276 115.713 173.857 118.875C177.626 126.535 185.529 130.365 197.566 130.365C198.539 130.243 200.059 130.182 202.126 130.182C206.26 130.061 209.543 129.757 211.975 129.27C214.528 128.663 216.656 127.447 218.358 125.623C218.236 126.474 218.176 127.568 218.176 128.906L218.358 133.283C218.358 138.268 217.325 141.976 215.258 144.408C213.312 146.962 210.637 148.238 207.233 148.238C204.193 148.238 201.579 147.266 199.39 145.32C197.323 143.496 196.29 140.882 196.29 137.478C192.399 136.87 187.353 136.566 181.152 136.566C178.477 136.566 176.41 136.748 174.951 137.113C173.492 137.478 172.762 138.268 172.762 139.484C172.762 147.63 175.559 154.135 181.152 158.999C186.867 163.984 193.858 166.477 202.126 166.477L217.264 166.659C219.331 166.659 220.547 166.598 220.911 166.477C225.897 165.869 230.76 164.045 235.502 161.005C240.366 158.087 242.797 152.676 242.797 144.773L242.797 139.666ZM206.321 61.7887C211.427 61.7887 214.832 64.2205 216.534 69.084C218.358 73.826 219.27 80.027 219.27 87.6871L219.088 97.3534C218.723 100.272 218.236 102.521 217.628 104.102C217.142 105.682 216.048 107.02 214.346 108.114C212.765 109.087 210.394 109.573 207.233 109.573C201.64 109.573 197.262 107.506 194.101 103.372C190.94 99.238 189.359 94.2529 189.359 88.4167L189.359 83.3099C189.359 80.027 190.028 76.7441 191.365 73.4612C192.824 70.0568 194.831 67.2602 197.384 65.0716C199.937 62.883 202.916 61.7887 206.321 61.7887ZM217.264 97.171C217.264 92.3075 217.081 87.2008 216.717 81.8509C216.352 76.3794 215.744 71.8806 214.893 68.3545C213.434 67.625 211.792 67.2602 209.968 67.2602C206.442 67.2602 203.707 68.1721 201.761 69.996L202.126 69.8136C199.573 72.7317 197.688 75.7106 196.472 78.7503C195.378 81.6685 194.831 85.073 194.831 88.9638L194.831 92.0643C194.831 96.6847 195.682 100.454 197.384 103.372C199.208 106.169 202.551 107.567 207.415 107.567C210.212 107.567 212.218 107.202 213.434 106.473C214.771 105.743 215.622 104.71 215.987 103.372C216.473 102.035 216.899 99.9676 217.264 97.171ZM197.566 135.654C197.81 135.775 197.992 136.262 198.114 137.113C198.235 138.086 198.357 138.694 198.478 138.937L201.761 139.484C201.761 141.916 202.126 143.679 202.855 144.773C203.585 145.867 205.044 146.414 207.233 146.414C209.3 146.414 211.306 145.563 213.251 143.861C215.318 142.159 216.352 139.97 216.352 137.295L216.534 134.377C214.71 134.985 212.704 135.35 210.516 135.471C208.449 135.593 207.172 135.654 206.686 135.654C204.254 135.654 202.491 135.715 201.396 135.836C199.694 135.836 198.417 135.775 197.566 135.654ZM333.405 72.3669C329.149 73.0965 324.468 73.4612 319.361 73.4612C315.106 73.4612 310.242 72.9749 304.771 72.0022L304.953 70.5431C304.953 69.8136 304.649 69.3272 304.041 69.084C303.433 68.7193 302.825 68.5369 302.217 68.5369C301.609 68.4153 301.245 68.3545 301.123 68.3545L301.305 66.8954C301.305 64.95 300.697 63.6125 299.481 62.883C298.266 62.0319 296.685 61.4239 294.74 61.0592C292.551 61.6671 290.849 62.579 289.633 63.7949C288.417 65.0108 287.809 66.3483 287.809 67.8074C287.809 70.1175 289.025 71.759 291.457 72.7317L291.092 72.5493C304.71 74.7379 315.227 78.264 322.644 83.1275C330.061 87.9911 333.769 95.712 333.769 106.29C333.769 117.476 330.122 125.623 322.827 130.73C315.531 135.836 305.926 138.39 294.01 138.39C285.499 138.39 277.899 136.748 271.212 133.465C264.525 130.304 259.296 125.988 255.527 120.516C251.879 114.923 250.056 108.844 250.056 102.278L250.056 99.7244C253.825 99.2381 257.959 98.9949 262.458 98.9949L271.942 99.1773C273.887 99.2988 276.744 99.3596 280.514 99.3596C280.514 100.332 280.818 101.548 281.426 103.007L284.161 103.007C284.161 107.263 286.897 109.391 292.369 109.391C297.354 109.391 299.846 106.959 299.846 102.095C299.846 100.272 298.874 98.9949 296.928 98.2653C295.104 97.4142 292.125 96.5631 287.991 95.712C282.763 94.7393 278.751 93.645 275.954 92.4291L276.136 92.4291C268.72 89.8757 262.822 85.7417 258.445 80.027C254.068 74.1908 251.879 68.1721 251.879 61.9711C251.879 56.2564 253.703 50.8457 257.351 45.739C261.12 40.6323 266.045 37.167 272.124 35.3432C276.258 34.1273 282.581 33.5193 291.092 33.5193C299.238 33.5193 305.926 34.1273 311.154 35.3432C316.382 36.5591 320.638 39.234 323.921 43.368C331.216 49.3259 334.864 58.3842 334.864 70.5431L333.405 72.3669ZM313.525 37.5318C306.959 36.0727 299.481 35.3432 291.092 35.3432C266.166 35.3432 253.703 44.2191 253.703 61.9711C253.703 67.4426 255.345 72.4885 258.628 77.1089C261.911 81.6077 266.713 84.9514 273.036 87.14C275.954 88.4774 280.574 89.7541 286.897 90.97C292.125 92.1859 295.895 93.4018 298.205 94.6177C300.515 95.8336 301.67 97.9006 301.67 100.819C301.67 104.466 300.88 107.141 299.299 108.844C297.718 110.424 295.408 111.215 292.369 111.215C288.964 111.215 285.924 110.303 283.249 108.479C280.574 106.655 279.115 104.223 278.872 101.183L257.898 101.001C255.102 101.001 253.095 101.123 251.879 101.366L251.879 102.278C251.879 111.64 255.406 119.118 262.458 124.711C269.51 130.182 278.811 132.918 290.362 132.918C301.427 132.918 310.485 130.669 317.537 126.17C324.59 121.55 328.116 113.707 328.116 102.643C328.116 96.3199 326.657 91.274 323.738 87.5047C320.82 83.7355 316.747 80.9389 311.519 79.1151C306.412 77.2913 299.542 75.7106 290.909 74.3732C288.113 73.4004 285.985 72.0022 284.526 70.1783C283.067 68.3545 282.337 66.4091 282.337 64.3421C282.337 62.2751 283.128 60.3297 284.708 58.5058C286.411 56.5604 288.721 55.5877 291.639 55.5877C294.436 55.5877 297.11 56.6212 299.664 58.6882C302.217 60.7552 303.494 63.0046 303.494 65.4364C303.494 66.1659 303.433 66.6523 303.312 66.8954C307.081 67.625 311.215 67.9897 315.714 67.9897C320.699 67.9897 325.258 67.625 329.392 66.8954C329.392 59.9649 328.116 53.9462 325.562 48.8395C323.009 43.6112 318.996 39.8419 313.525 37.5318Z" fill="black"/>
</svg>
