<svg width="388" height="138" viewBox="0 0 388 138" fill="none" xmlns="http://www.w3.org/2000/svg">
<path d="M84.9149 109.026C85.1581 112.674 85.2796 115.47 85.2796 117.416C85.2796 123.252 84.5501 129.088 83.091 134.924C77.7411 134.924 69.7163 135.046 59.0165 135.289L35.3067 135.471C24.4853 135.471 14.3934 135.107 5.03107 134.377L5.03107 130.912L1.38341 130.73C1.38341 124.407 1.32261 117.051 1.20103 108.661C1.07944 100.272 0.957848 93.8881 0.836259 89.5109C0.471493 76.3794 0.28911 63.187 0.28911 49.9338C0.28911 34.6136 0.775465 18.8071 1.74817 2.5142C11.2321 2.02785 22.1751 1.66309 34.5771 1.41991C47.1008 1.05514 57.4358 0.872763 65.5823 0.872763C75.1878 0.872763 80.2337 1.60229 80.7201 3.06135C80.7201 3.91248 80.9024 4.58122 81.2672 5.06756C81.7536 5.43233 82.3615 5.73631 83.091 5.97949C83.8206 6.22266 84.2461 6.46584 84.3677 6.70901L84.3677 6.52663C84.8541 9.32317 85.0973 12.5453 85.0973 16.1929C85.0973 18.1384 84.9757 21.0565 84.7325 24.9473C84.4893 29.0813 84.3677 32.2426 84.3677 34.4312C78.1667 35.8903 70.3242 36.6198 60.8403 36.6198L54.2745 36.6198L47.1616 36.4375C43.3923 36.4375 39.6231 36.6198 35.8538 36.9846C35.8538 38.8084 35.7322 41.1794 35.4891 44.0976L35.3067 50.1162L35.3067 51.7576L38.5896 51.94L45.7025 51.7576C46.3105 51.7576 49.3502 51.94 54.8217 52.3048C54.9432 52.6696 55.0648 53.2775 55.1864 54.1286C55.308 54.8582 55.5512 55.3445 55.916 55.5877C56.4023 55.8309 57.2534 55.9525 58.4693 55.9525C59.0773 59.1138 59.3812 62.8222 59.3812 67.0778C59.3812 70.8471 59.3204 73.7044 59.1989 75.6498L59.0165 84.4042C55.3688 85.3769 50.6876 85.8633 44.973 85.8633C40.4742 85.8633 37.7384 85.9849 36.7657 86.2281C36.401 88.0519 36.2186 90.8484 36.2186 94.6177C36.2186 98.2653 36.2794 100.879 36.401 102.46C50.9916 103.19 62.5425 103.554 71.0538 103.554C73.9719 103.554 77.3764 103.433 81.2672 103.19L81.2672 105.378L81.4496 107.02C82.9087 107.02 84.0638 106.959 84.9149 106.837L84.9149 109.026ZM79.4434 105.196C77.6195 105.317 75.0054 105.378 71.6009 105.378C68.5612 105.378 65.0351 105.317 61.0227 105.196C57.0103 105.074 53.9097 104.953 51.7211 104.831C45.1554 104.466 38.468 104.284 31.659 104.284L31.4766 104.102C30.9903 101.062 30.7471 96.6847 30.7471 90.97C30.7471 87.0792 30.9903 83.8571 31.4766 81.3037C31.963 80.9389 33.0573 80.6958 34.7595 80.5742C36.4618 80.4526 38.3464 80.3918 40.4134 80.3918C46.736 80.3918 51.1132 80.027 53.545 79.2975L53.7274 63.4302C53.7274 59.1746 53.545 56.0133 53.1802 53.9462L53.1802 53.7639C49.8973 53.7639 47.4047 53.7031 45.7025 53.5815C39.0151 53.5815 34.03 53.4599 30.7471 53.2167L30.5647 53.0343C30.0784 51.2105 29.8352 48.9003 29.8352 46.1038C29.8352 44.4015 29.9568 41.9698 30.1999 38.8084L30.3823 31.6955L31.1119 31.5131C33.3005 31.2699 35.6714 31.1483 38.2248 31.1483C40.7782 31.1483 42.4804 31.1483 43.3315 31.1483L57.7398 31.1483C66.6158 31.1483 73.6679 30.5404 78.8962 29.3245L78.8962 29.1421L79.0786 20.5701C79.3218 16.6793 79.4434 13.7612 79.4434 11.8157C79.4434 9.01921 79.261 6.16187 78.8962 3.24373C78.8962 2.87897 74.4582 2.69659 65.5823 2.69659C46.6144 2.69659 25.8835 3.24374 3.38962 4.33804C2.66009 16.1321 2.29532 30.7228 2.29532 48.11C2.29532 57.1075 2.41691 70.4823 2.66009 88.2343C3.02486 101.731 3.20724 115.349 3.20724 129.088C10.381 129.696 19.1962 130 29.6528 130C34.8811 130 42.9668 129.878 53.9097 129.635L77.9843 129.453C79.2002 124.711 79.8081 119.543 79.8081 113.95C79.8081 112.005 79.6866 109.208 79.4434 105.561L79.4434 105.196ZM118.737 43.368C124.695 39.7204 131.139 37.8965 138.07 37.8965C141.96 37.8965 145.73 38.5653 149.377 39.9027C153.025 41.2402 155.761 43.3072 157.585 46.1038L159.773 47.7452C162.934 50.177 164.515 60.3904 164.515 78.3856C164.515 83.1275 164.394 90.2405 164.15 99.7244C163.907 108.965 163.786 115.713 163.786 119.969C163.786 124.832 163.907 129.818 164.15 134.924C159.773 135.532 154.666 135.836 148.83 135.836L137.887 135.836C137.766 134.985 137.705 133.769 137.705 132.189L134.24 132.189C133.875 128.419 133.692 121.063 133.692 110.12L133.692 101.001C133.692 93.9489 133.571 88.4774 133.328 84.5866C133.084 80.6958 132.416 77.4129 131.321 74.7379C130.349 74.3732 129.072 74.1908 127.491 74.1908C123.844 74.1908 121.29 75.4067 119.831 77.8384C118.494 80.2702 117.825 84.9514 117.825 91.8819C117.825 95.1648 117.947 99.7244 118.19 105.561C118.433 111.64 118.555 116.078 118.555 118.875C118.555 124.103 118.311 128.663 117.825 132.553L117.825 134.56C113.569 135.654 110.043 136.201 107.247 136.201C105.545 136.201 104.207 136.14 103.234 136.019L98.8572 135.836L96.851 135.836C95.0272 135.836 93.2641 135.958 91.5619 136.201L91.5619 132.189L87.9142 132.553L87.7318 98.083C87.4887 82.7628 87.3671 71.151 87.3671 63.2478C87.3671 56.8036 87.4887 48.11 87.7318 37.167C90.65 37.5318 93.3857 37.7141 95.9391 37.7141C96.9118 37.7141 98.4924 37.5318 100.681 37.167C102.991 36.8022 106.092 36.6198 109.983 36.6198C113.265 36.6198 114.968 37.3494 115.089 38.8084C115.089 39.538 115.636 40.2067 116.731 40.8147C117.947 41.301 118.615 41.8482 118.737 42.4561L118.737 43.368ZM111.077 38.2613C107.672 38.2613 103.842 38.5653 99.5867 39.1732C97.6413 39.4164 96.4254 39.538 95.9391 39.538L93.7505 39.538C92.1698 39.538 90.7715 39.4164 89.5557 39.1732C89.3125 42.9425 89.1909 48.4748 89.1909 55.7701L89.1909 66.8954C89.1909 74.3124 89.3125 85.073 89.5557 99.1773L89.738 130.547C91.1971 130.426 93.1425 130.365 95.5743 130.365L104.329 130.547C106.882 130.547 109.557 130.182 112.354 129.453L112.354 128.723C112.84 124.711 113.083 120.212 113.083 115.227C113.083 112.066 112.961 107.445 112.718 101.366C112.475 95.2864 112.354 90.666 112.354 87.5047C112.354 80.2094 113.265 75.2851 115.089 72.7317C116.913 70.0568 119.831 68.7193 123.844 68.7193C128.221 68.7193 131.017 70.0568 132.233 72.7317C133.571 75.2851 134.361 78.2032 134.604 81.4861C134.847 84.6474 135.03 86.836 135.151 88.0519C135.395 89.8757 135.516 92.7938 135.516 96.8063L135.516 103.19L135.516 116.686L135.516 122.522C135.516 126.17 135.638 128.784 135.881 130.365L146.459 130.547C150.836 130.547 154.91 130.243 158.679 129.635C158.436 125.015 158.314 121.185 158.314 118.145C158.314 113.889 158.436 107.02 158.679 97.5358C158.922 87.5655 159.044 80.2702 159.044 75.6498C159.044 67.2602 158.74 60.512 158.132 55.4053C157.524 50.177 156.429 46.8333 154.849 45.3742C150.715 41.605 145.061 39.7204 137.887 39.7204C133.996 39.7204 130.531 40.3283 127.491 41.5442C124.452 42.7601 121.594 44.1583 118.919 45.739C116.244 47.1981 114.481 48.1708 113.63 48.6571L113.813 44.4623C113.813 40.3283 112.901 38.2613 111.077 38.2613ZM209.599 38.0789C213.612 37.9573 219.813 37.5926 228.202 36.9846L232.762 36.6198C233.735 38.0789 234.403 39.3556 234.768 40.4499L236.41 40.2675C238.112 42.3345 238.963 45.1919 238.963 48.8395C238.963 50.177 238.841 52.1832 238.598 54.8582C238.355 57.5331 238.234 59.6001 238.234 61.0592C238.234 62.3967 238.416 64.2813 238.781 66.7131L210.147 66.7131C210.147 81.9117 210.207 93.0978 210.329 100.272C212.639 101.366 215.557 102.217 219.083 102.825C222.609 103.311 226.196 103.554 229.844 103.554C232.154 103.554 233.796 103.494 234.768 103.372L234.951 106.473L234.951 107.202C236.41 107.202 237.565 107.141 238.416 107.02C238.416 109.087 238.598 111.397 238.963 113.95C239.449 117.841 239.693 121.124 239.693 123.799C239.693 128.298 239.085 132.189 237.869 135.471C236.288 135.593 233.431 135.654 229.297 135.654C217.746 135.654 207.593 133.952 198.839 130.547C190.206 127.143 184.309 121.671 181.148 114.133C179.932 107.202 179.141 100.576 178.777 94.2529C178.412 87.9303 178.229 80.4526 178.229 71.8198L178.229 67.4426L168.746 67.2602L168.746 63.6125L165.098 63.6125L165.645 37.7141C168.928 37.8357 173.244 37.8965 178.594 37.8965C178.594 33.6409 178.533 30.4188 178.412 28.2302L178.229 17.4696C178.229 11.8765 178.473 7.07378 178.959 3.06135C181.634 2.81818 183.64 2.69659 184.978 2.69659C186.801 2.69659 189.294 2.81818 192.455 3.06135C194.887 3.42612 197.38 3.60851 199.933 3.60851L202.304 3.60851C203.885 3.60851 205.101 3.48692 205.952 3.24374L205.952 7.25617C206.681 7.25617 207.897 7.13458 209.599 6.8914L209.599 38.0789ZM204.128 5.24996C203.277 5.37154 201.878 5.43234 199.933 5.43234C196.893 5.43234 194.097 5.24995 191.543 4.88518C188.139 4.64201 185.646 4.52042 184.066 4.52042C182.607 4.52042 181.452 4.58122 180.6 4.7028C180.236 8.10729 180.053 12.3021 180.053 17.2872L180.236 29.5069C180.357 31.9387 180.418 35.3432 180.418 39.7204L174.217 39.7204C171.299 39.7204 169.05 39.6596 167.469 39.538L166.922 61.7887L173.852 61.7887C176.649 61.7887 178.716 61.7279 180.053 61.6063L180.053 71.8198C180.053 80.331 180.236 87.7479 180.6 94.0705C180.965 100.393 181.756 107.02 182.971 113.95C185.403 119.908 190.51 124.103 198.292 126.535C206.073 128.966 215.192 130.182 225.649 130.182C228.932 130.182 231.364 130.122 232.944 130C233.796 127.325 234.221 124.042 234.221 120.151C234.221 116.868 233.796 111.944 232.944 105.378C232.093 105.5 230.817 105.561 229.114 105.561C224.008 105.561 219.144 105.014 214.524 103.919C209.903 102.703 206.681 100.758 204.857 98.083C204.736 94.3137 204.675 88.4774 204.675 80.5742L204.675 61.2416L232.944 61.2416C232.823 60.8768 232.762 59.9041 232.762 58.3234C232.762 57.1076 232.884 55.0405 233.127 52.1224C233.37 49.2043 233.492 46.9549 233.492 45.3742C233.492 41.9698 232.944 39.6596 231.85 38.4437L224.008 38.9908L204.31 39.9027L204.128 29.6893L204.128 5.24996ZM269.37 93.1586C269.37 96.3199 269.552 98.9341 269.917 101.001C270.403 102.947 271.315 105.074 272.653 107.384L272.653 107.749C274.233 108.6 276.179 109.026 278.489 109.026C281.042 109.026 283.17 107.871 284.872 105.561C286.575 103.129 287.426 99.542 287.426 94.8001L287.426 92.9762C290.101 93.2194 292.107 93.341 293.444 93.341L299.828 93.1586C301.165 93.037 303.232 92.9762 306.029 92.9762C308.096 92.9762 310.831 93.2802 314.236 93.8881L314.054 96.9887L317.884 97.5358C317.884 110.667 316.425 120.091 313.506 125.805C310.71 131.52 307.062 134.924 302.563 136.019C298.186 137.235 291.438 137.842 282.319 137.842C275.024 137.842 269.187 137.295 264.81 136.201C260.555 135.228 256.907 132.918 253.867 129.27C248.274 124.65 244.14 118.024 241.465 109.391C238.79 100.758 237.453 91.3956 237.453 81.3037C237.453 69.5096 238.851 59.8433 241.647 52.3048C244.201 46.4685 248.639 42.0305 254.961 38.9908C261.284 35.8295 268.336 34.2489 276.118 34.2489C285.48 34.2489 293.323 36.2551 299.645 40.2675C306.09 44.2799 310.831 49.6906 313.871 56.4996C317.033 63.187 318.613 70.5431 318.613 78.568C318.613 79.2975 318.431 82.398 318.066 87.8695C315.756 88.4774 309.616 89.0246 299.645 89.5109C289.797 89.9973 281.042 90.2405 273.382 90.2405C271.558 90.2405 270.221 90.1797 269.37 90.0581L269.37 93.1586ZM263.898 84.2218C265.357 84.5866 269.552 84.769 276.483 84.769C283.17 84.769 290.405 84.5866 298.186 84.2218C305.968 83.7355 310.831 83.2491 312.777 82.7628C313.02 79.1151 313.142 76.501 313.142 74.9203C313.142 62.7614 310.406 53.2775 304.934 46.4685C299.585 39.538 289.979 36.0727 276.118 36.0727C268.823 36.0727 262.074 37.5926 255.873 40.6323C249.794 43.5504 245.599 47.6236 243.289 52.8519C240.492 60.3904 239.094 70.4823 239.094 83.1275C239.094 95.7728 241.222 106.716 245.478 115.957C249.733 125.197 256.36 130.486 265.357 131.824L273.382 132.006C277.516 132.249 280.738 132.371 283.048 132.371C288.763 132.371 293.627 131.763 297.639 130.547C301.773 129.331 304.995 127.082 307.305 123.799C308.886 122.461 309.98 119.665 310.588 115.409C311.196 111.032 311.804 104.345 312.412 95.3472C310.588 94.9824 308.217 94.8001 305.299 94.8001L298.186 94.9824C296.727 95.104 294.721 95.1648 292.168 95.1648C290.709 95.1648 289.797 95.104 289.432 94.9824L289.432 96.4415C289.432 101.183 288.338 104.77 286.149 107.202C284.082 109.634 281.529 110.85 278.489 110.85C269.127 110.85 264.263 103.068 263.898 87.5047L263.898 84.2218ZM293.08 69.8136C293.08 70.1783 292.654 70.3607 291.803 70.3607C291.195 70.3607 289.979 70.2999 288.155 70.1783C286.331 70.0568 284.143 69.996 281.589 69.996L269.734 70.1783C267.424 70.1783 265.904 70.0568 265.175 69.8136C264.445 69.5704 264.081 69.0232 264.081 68.1721C264.081 58.8098 269.248 54.1286 279.583 54.1286C281.893 54.1286 284.021 54.7366 285.967 55.9525C288.155 57.0468 289.857 58.6882 291.073 60.8768C292.411 63.0654 293.08 65.3756 293.08 67.8074L293.08 69.8136ZM288.702 61.0592C287.122 60.0865 285.298 59.6001 283.231 59.6001C278.975 59.6001 275.875 60.3297 273.929 61.7887C272.105 63.2478 270.829 65.4364 270.099 68.3545L273.565 68.1721L281.589 68.1721L289.432 68.3545L291.256 68.5369L291.256 67.8074C291.256 65.0108 290.465 62.8222 288.885 61.2416L288.702 61.0592ZM349.68 40.6323C351.26 40.8755 352.233 41.1186 352.598 41.3618C359.528 39.1732 366.155 38.0789 372.477 38.0789C375.517 38.0789 378.131 38.2613 380.32 38.6261C382.509 38.8692 383.603 39.1124 383.603 39.3556L383.603 42.0913C386.035 42.4561 387.25 42.7601 387.25 43.0033L387.068 58.5058C386.947 60.5728 386.886 63.2478 386.886 66.5307C386.886 68.4761 387.068 72.1846 387.433 77.6561L383.238 76.197L383.42 76.3794L381.232 75.6498L381.414 75.8322C376.551 74.6163 373.268 73.8868 371.566 73.6436C369.985 73.4004 368.587 73.2789 367.371 73.2789C366.155 73.2789 365.304 73.2789 364.817 73.2789C360.683 73.2789 357.583 74.13 355.516 75.8322C353.57 77.4129 352.598 80.331 352.598 84.5866C353.084 99.542 353.327 115.47 353.327 132.371L353.327 134.56C349.436 135.654 345.85 136.201 342.567 136.201C340.621 136.201 339.162 136.14 338.189 136.019L332.718 135.836L330.529 135.836C328.706 135.836 326.942 135.958 325.24 136.201L325.24 132.189L321.593 132.553L321.41 98.083C321.167 82.7628 321.045 71.151 321.045 63.2478C321.045 56.8036 321.167 48.11 321.41 37.167C324.328 37.5318 327.064 37.7141 329.617 37.7141C330.59 37.7141 332.171 37.5926 334.359 37.3494C336.67 36.9846 339.77 36.8022 343.661 36.8022C347.673 36.8022 349.68 37.5318 349.68 38.9908L349.68 40.6323ZM347.856 38.9908C347.856 38.7476 347.126 38.6261 345.667 38.6261C341.655 38.6261 338.25 38.8084 335.454 39.1732C332.657 39.4164 330.712 39.538 329.617 39.538L327.429 39.538C325.848 39.538 324.45 39.4164 323.234 39.1732C322.991 42.9425 322.869 48.4748 322.869 55.7701L322.869 66.8954C322.869 74.3124 322.991 85.073 323.234 99.1773L323.416 130.547C324.875 130.426 326.882 130.365 329.435 130.365L339.284 130.547C342.202 130.547 345.059 130.182 347.856 129.453L347.856 128.723C347.856 122.279 347.734 113.95 347.491 103.737C347.248 93.5234 347.126 85.5593 347.126 79.8446C347.126 75.3459 348.281 72.2454 350.591 70.5431C353.023 68.7193 356.549 67.8074 361.17 67.8074C361.899 67.8074 362.933 67.8074 364.27 67.8074C365.729 67.6858 367.371 67.8074 369.195 68.1721C371.14 68.4153 373.511 68.9017 376.307 69.6312C376.915 69.8744 377.523 70.1175 378.131 70.3607C378.861 70.4823 379.53 70.6647 380.138 70.9079L381.779 71.455C381.657 70.1175 381.597 68.1721 381.597 65.6188L381.597 58.8706L381.779 39.3556C381.779 39.1124 380.502 38.9908 377.949 38.9908C373.329 38.9908 367.857 39.6596 361.534 40.997C355.333 42.2129 350.835 43.6112 348.038 45.1919C348.038 44.3407 347.977 43.7328 347.856 43.368C347.856 43.0033 347.856 42.6993 347.856 42.4561L347.856 38.9908Z" fill="black"/>
</svg>
