<svg width="174" height="43" viewBox="0 0 174 43" fill="none" xmlns="http://www.w3.org/2000/svg">
<path d="M3.3125 5.45312C2.47917 5.29688 1.85417 5.01042 1.4375 4.59375C1.02083 4.125 0.8125 3.65625 0.8125 3.1875C0.8125 2.61458 1.04688 2.09375 1.51562 1.625C1.98438 1.15625 2.6875 0.921875 3.625 0.921875C4.71875 1.02604 5.83854 1.10417 6.98438 1.15625C8.13021 1.20833 9.27604 1.23438 10.4219 1.23438C12.401 1.23438 14.3021 1.18229 16.125 1.07812C18 0.973958 19.7188 0.817708 21.2812 0.609375C22.1667 0.609375 22.8438 0.84375 23.3125 1.3125C23.8333 1.72917 24.0938 2.22396 24.0938 2.79688C24.0938 4.25521 22.8698 5.14062 20.4219 5.45312C18.026 5.76562 14.1979 5.92188 8.9375 5.92188C8.52083 8.26562 8.20833 10.7396 8 13.3438C7.79167 15.8958 7.6875 18.6302 7.6875 21.5469C7.6875 23.4219 7.71354 25.2188 7.76562 26.9375C7.81771 28.6562 7.89583 30.349 8 32.0156C8.10417 33.0573 8.28646 33.8906 8.54688 34.5156C8.85938 35.0885 9.27604 35.5312 9.79688 35.8438C10.3698 36.1042 11.0729 36.2604 11.9062 36.3125C12.7917 36.3646 13.8854 36.3906 15.1875 36.3906C16.8542 36.3906 18.4948 36.2865 20.1094 36.0781C21.776 35.8177 23.3646 35.401 24.875 34.8281C25.3438 34.6719 25.7865 34.5938 26.2031 34.5938C26.8802 34.5938 27.349 34.776 27.6094 35.1406C27.9219 35.5052 28.0781 35.9219 28.0781 36.3906C28.0781 37.3802 27.6094 38.1875 26.6719 38.8125C25.7344 39.4375 24.6146 39.9323 23.3125 40.2969C22.0625 40.6615 20.7344 40.8958 19.3281 41C17.9219 41.1562 16.75 41.2344 15.8125 41.2344C14.8229 41.2344 13.7031 41.2083 12.4531 41.1562C11.2552 41.1562 10.0573 41 8.85938 40.6875C7.71354 40.3229 6.67188 39.75 5.73438 38.9688C4.79688 38.1875 4.14583 37.0677 3.78125 35.6094C3.41667 34.2552 3.15625 32.5885 3 30.6094C2.84375 28.5781 2.76562 26.4167 2.76562 24.125C2.76562 22.25 2.79167 20.401 2.84375 18.5781C2.94792 16.7031 3.05208 14.9323 3.15625 13.2656C3.26042 11.599 3.39062 10.1146 3.54688 8.8125C3.70312 7.45833 3.83333 6.39062 3.9375 5.60938C3.67708 5.60938 3.52083 5.58333 3.46875 5.53125C3.46875 5.47917 3.41667 5.45312 3.3125 5.45312ZM12.8438 23.8906C12.0104 23.8385 11.4375 23.5781 11.125 23.1094C10.8646 22.6406 10.7344 22.1198 10.7344 21.5469C10.7344 21.026 10.9427 20.5573 11.3594 20.1406C11.8281 19.724 12.4271 19.5156 13.1562 19.5156C14.0417 19.5156 14.9271 19.5417 15.8125 19.5938C16.75 19.6458 17.6615 19.6719 18.5469 19.6719C21.4115 19.6719 24.25 19.5156 27.0625 19.2031C27.8958 19.2552 28.5208 19.4896 28.9375 19.9062C29.4062 20.3229 29.6667 20.7656 29.7188 21.2344C29.7188 22.0156 29.3281 22.6146 28.5469 23.0312C27.7656 23.3958 26.8281 23.6823 25.7344 23.8906C24.6406 24.099 23.4948 24.2292 22.2969 24.2812C21.099 24.2812 20.0573 24.2812 19.1719 24.2812C18.0781 24.2812 17.0104 24.2552 15.9688 24.2031C14.9271 24.099 13.8854 23.9948 12.8438 23.8906ZM43 17.3281C43.8333 16.8073 44.7969 16.4427 45.8906 16.2344C47.0365 16.026 48.2083 15.9219 49.4062 15.9219C51.0729 16.026 52.5052 16.3125 53.7031 16.7812C54.901 17.25 55.8906 17.9531 56.6719 18.8906C57.4531 19.776 58.026 20.9479 58.3906 22.4062C58.7552 23.8125 58.9375 25.5573 58.9375 27.6406C58.9375 29.776 58.8333 31.7812 58.625 33.6562C58.4167 35.4792 58.1302 37.0938 57.7656 38.5C57.401 39.8542 56.9583 40.9219 56.4375 41.7031C55.9688 42.5365 55.4219 42.9531 54.7969 42.9531C54.3281 42.9531 53.9115 42.7969 53.5469 42.4844C53.1823 42.1719 53 41.6771 53 41C53 40.3229 53.0781 39.4635 53.2344 38.4219C53.4427 37.3281 53.651 36.1823 53.8594 34.9844C54.1198 33.7344 54.3281 32.4844 54.4844 31.2344C54.6927 29.9323 54.7969 28.7344 54.7969 27.6406C54.7969 26.1302 54.6667 24.9323 54.4062 24.0469C54.1979 23.1094 53.8594 22.3802 53.3906 21.8594C52.974 21.2865 52.4271 20.8958 51.75 20.6875C51.0729 20.4271 50.2917 20.2448 49.4062 20.1406C48.3125 20.1406 47.2188 20.3229 46.125 20.6875C45.0312 21.0521 44.0938 21.2344 43.3125 21.2344C42.8438 21.2344 42.4531 21.0521 42.1406 20.6875C41.8802 20.3229 41.75 19.9062 41.75 19.4375C41.75 19.0729 41.8281 18.7083 41.9844 18.3438C42.1927 17.9271 42.5312 17.5885 43 17.3281ZM39.5625 16.5469C39.5625 19.9844 39.5885 23.474 39.6406 27.0156C39.6927 30.5052 39.9271 33.6823 40.3438 36.5469V37.0938C40.3438 37.9792 40.1094 38.6562 39.6406 39.125C39.224 39.5417 38.7552 39.75 38.2344 39.75C37.7656 39.75 37.3229 39.5417 36.9062 39.125C36.4896 38.7083 36.2292 38.0573 36.125 37.1719C35.8646 34.6719 35.6562 32.0938 35.5 29.4375C35.3438 26.7812 35.2656 24.0469 35.2656 21.2344C35.2656 20.6615 35.2396 20.0104 35.1875 19.2812C35.1354 18.5521 35.1354 17.875 35.1875 17.25C35.2917 16.5729 35.5 16.026 35.8125 15.6094C36.1771 15.1406 36.724 14.9062 37.4531 14.9062C37.974 14.9062 38.4427 15.0885 38.8594 15.4531C39.3281 15.7656 39.5625 16.1302 39.5625 16.5469ZM85.1875 40.9219C80.0833 40.5052 76.3333 38.8125 73.9375 35.8438C71.5417 32.875 70.3438 28.6302 70.3438 23.1094V19.8281C68.3125 19.8281 66.6198 19.6458 65.2656 19.2812C63.9115 18.8646 63.2344 18.0052 63.2344 16.7031C63.3385 16.2344 63.5729 15.8438 63.9375 15.5312C64.3021 15.1667 64.8229 14.9844 65.5 14.9844C66.125 14.9844 66.8802 15.0625 67.7656 15.2188C68.651 15.375 69.6146 15.4531 70.6562 15.4531C70.6562 13.7865 70.7083 12.0938 70.8125 10.375C70.9167 8.60417 71.099 7.01562 71.3594 5.60938C71.6719 4.20312 72.0625 3.05729 72.5312 2.17188C73 1.23438 73.625 0.765625 74.4062 0.765625C74.9792 0.765625 75.5 1.02604 75.9688 1.54688C76.4375 2.01562 76.6719 2.66667 76.6719 3.5C76.6719 4.80208 76.5156 6.54688 76.2031 8.73438C75.8906 10.9219 75.6562 13.2135 75.5 15.6094C75.9167 15.6615 76.3333 15.7135 76.75 15.7656C77.2188 15.7656 77.6875 15.7656 78.1562 15.7656C78.9896 15.7656 79.8229 15.7396 80.6562 15.6875C81.5417 15.6354 82.4271 15.5573 83.3125 15.4531C84.0417 15.4531 84.6406 15.6615 85.1094 16.0781C85.5781 16.4948 85.8125 16.9635 85.8125 17.4844C85.8125 18.2135 85.6042 18.7604 85.1875 19.125C84.7708 19.4375 84.224 19.6719 83.5469 19.8281C82.9219 19.9323 82.1667 19.9844 81.2812 19.9844C80.4479 19.9844 79.6146 19.9844 78.7812 19.9844H75.1875C75.1354 20.5573 75.1094 21.1042 75.1094 21.625C75.1094 22.1458 75.1094 22.6667 75.1094 23.1875C75.1094 25.0625 75.2656 26.7552 75.5781 28.2656C75.9427 29.724 76.5417 31.026 77.375 32.1719C78.2083 33.3177 79.3021 34.2552 80.6562 34.9844C82.0104 35.7135 83.6771 36.2344 85.6562 36.5469C86.2292 36.651 86.6458 36.8854 86.9062 37.25C87.1667 37.6146 87.2969 38.0312 87.2969 38.5C87.2969 39.125 87.1146 39.6979 86.75 40.2188C86.4375 40.6875 85.9167 40.9219 85.1875 40.9219ZM93.4688 38.2656C93.7292 36.4948 93.9115 34.8021 94.0156 33.1875C94.1719 31.5208 94.25 29.8802 94.25 28.2656C94.25 25.0885 93.9375 21.8073 93.3125 18.4219C93.2604 18.2656 93.2344 18.0573 93.2344 17.7969C93.2344 17.0677 93.4427 16.4688 93.8594 16C94.3281 15.5312 94.875 15.2969 95.5 15.2969C96.1771 15.2969 96.6719 15.5312 96.9844 16C97.349 16.4688 97.6094 17.0677 97.7656 17.7969C97.9219 18.474 98.026 19.2292 98.0781 20.0625C98.1823 20.8438 98.3125 21.599 98.4688 22.3281C99.1458 21.651 100.005 21 101.047 20.375C102.089 19.75 103.182 19.2031 104.328 18.7344C105.526 18.2656 106.724 17.901 107.922 17.6406C109.12 17.3281 110.24 17.1719 111.281 17.1719C111.854 17.1719 112.349 17.4062 112.766 17.875C113.182 18.3438 113.391 18.8646 113.391 19.4375C113.391 19.9583 113.234 20.4792 112.922 21C112.609 21.4688 112.115 21.7031 111.438 21.7031C110.188 21.7031 108.885 21.9375 107.531 22.4062C106.177 22.8229 104.901 23.3698 103.703 24.0469C102.557 24.724 101.542 25.4792 100.656 26.3125C99.8229 27.1458 99.25 27.9531 98.9375 28.7344C98.8333 29.776 98.7552 31.026 98.7031 32.4844C98.7031 33.8906 98.599 35.2448 98.3906 36.5469C98.2344 37.7969 97.9479 38.8646 97.5312 39.75C97.1146 40.6354 96.4896 41.0781 95.6562 41.0781C95.1354 41.0781 94.6146 40.8958 94.0938 40.5312C93.625 40.1667 93.3906 39.5938 93.3906 38.8125C93.3906 38.6042 93.4167 38.4219 93.4688 38.2656ZM128.781 19.9844H126.75C125.865 20.4531 125.188 21.0781 124.719 21.8594C124.25 22.6406 123.885 23.474 123.625 24.3594C123.417 25.1927 123.286 26 123.234 26.7812C123.182 27.5625 123.156 28.1875 123.156 28.6562C123.156 29.6979 123.286 30.6875 123.547 31.625C123.859 32.5625 124.276 33.3958 124.797 34.125C125.37 34.8021 126.021 35.349 126.75 35.7656C127.479 36.1823 128.312 36.3906 129.25 36.3906C130.917 36.3906 132.193 36.026 133.078 35.2969C134.016 34.5677 134.693 33.6562 135.109 32.5625C135.578 31.4688 135.865 30.2969 135.969 29.0469C136.073 27.7448 136.125 26.5469 136.125 25.4531C136.021 24.776 135.786 24.099 135.422 23.4219C135.057 22.6927 134.589 22.0677 134.016 21.5469C133.495 21.026 132.896 20.6094 132.219 20.2969C131.594 19.9323 130.943 19.75 130.266 19.75C129.745 19.75 129.25 19.8281 128.781 19.9844ZM139.406 33.5781C138.833 35.974 137.557 37.7969 135.578 39.0469C133.599 40.2969 131.411 40.9219 129.016 40.9219C127.297 40.9219 125.76 40.5573 124.406 39.8281C123.104 39.0469 122.01 38.0573 121.125 36.8594C120.24 35.6094 119.562 34.2292 119.094 32.7188C118.677 31.1562 118.469 29.5938 118.469 28.0312C118.469 26.7812 118.625 25.4271 118.938 23.9688C119.25 22.4583 119.745 21.0781 120.422 19.8281C121.099 18.5781 121.984 17.5365 123.078 16.7031C124.172 15.8177 125.5 15.375 127.062 15.375C127.896 15.375 128.469 15.4531 128.781 15.6094C129.042 15.5573 129.276 15.5312 129.484 15.5312C129.693 15.5312 129.927 15.5312 130.188 15.5312C132.635 15.5312 134.562 16.0521 135.969 17.0938C137.375 18.1354 138.495 19.4896 139.328 21.1562C140.214 22.7708 140.917 24.5677 141.438 26.5469C141.958 28.526 142.583 30.4271 143.312 32.25C143.521 32.875 143.833 33.5781 144.25 34.3594C144.667 35.0885 145.083 35.8177 145.5 36.5469C145.917 37.276 146.255 37.9271 146.516 38.5C146.828 39.0729 146.984 39.5156 146.984 39.8281C146.984 40.401 146.776 40.8438 146.359 41.1562C145.943 41.4688 145.474 41.625 144.953 41.625C144.432 41.625 143.885 41.4167 143.312 41C142.792 40.5312 142.271 39.9323 141.75 39.2031C141.281 38.474 140.839 37.6146 140.422 36.625C140.005 35.6354 139.667 34.6198 139.406 33.5781ZM153.312 38.2656C153.573 36.4948 153.755 34.8021 153.859 33.1875C154.016 31.5208 154.094 29.8802 154.094 28.2656C154.094 25.0885 153.781 21.8073 153.156 18.4219C153.104 18.2656 153.078 18.0573 153.078 17.7969C153.078 17.0677 153.286 16.4688 153.703 16C154.172 15.5312 154.719 15.2969 155.344 15.2969C156.021 15.2969 156.516 15.5312 156.828 16C157.193 16.4688 157.453 17.0677 157.609 17.7969C157.766 18.474 157.87 19.2292 157.922 20.0625C158.026 20.8438 158.156 21.599 158.312 22.3281C158.99 21.651 159.849 21 160.891 20.375C161.932 19.75 163.026 19.2031 164.172 18.7344C165.37 18.2656 166.568 17.901 167.766 17.6406C168.964 17.3281 170.083 17.1719 171.125 17.1719C171.698 17.1719 172.193 17.4062 172.609 17.875C173.026 18.3438 173.234 18.8646 173.234 19.4375C173.234 19.9583 173.078 20.4792 172.766 21C172.453 21.4688 171.958 21.7031 171.281 21.7031C170.031 21.7031 168.729 21.9375 167.375 22.4062C166.021 22.8229 164.745 23.3698 163.547 24.0469C162.401 24.724 161.385 25.4792 160.5 26.3125C159.667 27.1458 159.094 27.9531 158.781 28.7344C158.677 29.776 158.599 31.026 158.547 32.4844C158.547 33.8906 158.443 35.2448 158.234 36.5469C158.078 37.7969 157.792 38.8646 157.375 39.75C156.958 40.6354 156.333 41.0781 155.5 41.0781C154.979 41.0781 154.458 40.8958 153.938 40.5312C153.469 40.1667 153.234 39.5938 153.234 38.8125C153.234 38.6042 153.26 38.4219 153.312 38.2656Z" fill="black"/>
</svg>
