<svg width="376" height="173" viewBox="0 0 376 139" fill="none" xmlns="http://www.w3.org/2000/svg">
<path d="M86.0092 135.195C81.3888 136.046 75.3702 136.471 67.9532 136.471C62.8465 136.471 59.1381 136.532 56.8279 136.654L56.2807 132.824C54.8217 132.824 53.7882 132.885 53.1802 133.006C52.3291 126.562 51.7819 117.26 51.5388 105.102C51.2956 96.2256 50.9916 89.6598 50.6268 85.4042C47.9519 85.161 46.3105 85.0395 45.7025 85.0395C42.1764 85.0395 38.9543 85.3434 36.0362 85.9514C35.9146 87.7752 35.8538 90.7541 35.8538 94.8881L36.0362 105.831C36.1578 108.263 36.2186 111.85 36.2186 116.592C36.2186 124.252 35.793 130.21 34.9419 134.465C32.7533 135.803 29.7744 136.471 26.0051 136.471C24.5461 136.471 22.3575 136.35 19.4393 136.107C16.5212 135.864 14.5758 135.742 13.6031 135.742C11.4145 135.742 9.16509 136.35 6.8549 137.566L6.49014 132.459C5.39584 132.702 4.30154 133.189 3.20724 133.918C2.47771 125.285 1.80897 109.479 1.20103 86.4985C0.593082 63.3967 0.28911 42.301 0.28911 23.2116C0.28911 12.8765 0.349904 5.7636 0.471493 1.87276L3.20724 1.69037C4.90948 2.05514 6.55093 2.23752 8.13158 2.23752C9.34747 2.23752 11.4145 2.11594 14.3326 1.87276C17.7371 1.62958 20.412 1.50799 22.3575 1.50799C23.8165 1.50799 25.0324 1.81196 26.0051 2.41991C26.9778 2.90626 27.6466 3.93977 28.0113 5.52042C28.7409 5.64201 29.3488 5.7636 29.8352 5.88518C30.4431 6.00677 30.9295 6.12836 31.2942 6.24996C31.7806 10.5056 32.1454 16.7066 32.3885 24.853C32.8749 36.404 33.6652 45.0976 34.7595 50.9338L36.7657 50.9338C40.535 50.9338 43.9395 50.6906 46.9792 50.2043L48.2559 50.2043C48.9854 41.4499 49.3502 32.8171 49.3502 24.3059C49.3502 14.822 49.1678 7.64822 48.803 2.78468C54.6393 1.08244 61.6306 0.231314 69.7771 0.231314L72.3304 0.231314C74.2759 0.231314 75.9781 0.352902 77.4372 0.596076L77.4372 4.06135C78.8962 4.06135 80.1121 4.12215 81.0848 4.24373L86.0092 135.195ZM75.6133 2.23752C74.2759 2.11594 72.3304 2.05514 69.7771 2.05514C61.8738 2.05514 55.4904 2.78467 50.6268 4.24373C50.9916 11.5391 51.174 18.2872 51.174 24.4883C51.174 33.3642 50.7484 42.4834 49.8973 51.8457L49.7149 51.8457C45.4593 52.4537 41.2645 52.7576 37.1305 52.7576C34.2124 52.7576 31.8414 52.5145 30.0176 52.0281L29.8352 52.0281C28.7409 46.3134 27.9505 37.6806 27.4642 26.1297C27.221 17.6185 26.7347 10.2624 26.0051 4.06135C24.4245 3.575 22.2359 3.33182 19.4393 3.33182L14.515 3.5142L8.49635 3.87897L6.8549 4.06135C5.51743 4.06135 4.17995 3.87897 2.84247 3.5142L2.29532 3.69659C2.17374 7.58743 2.11294 14.0924 2.11294 23.2116C2.11294 42.5442 2.35612 63.1535 2.84247 85.0395C3.45042 106.925 4.11915 122.185 4.84869 130.818C5.69981 130.331 7.03728 130.088 8.86112 130.088C10.3202 130.088 12.5088 130.21 15.4269 130.453C17.9803 130.818 20.412 131 22.7222 131C24.4245 131 25.762 130.939 26.7347 130.818C27.829 130.696 28.8017 130.331 29.6528 129.723C30.2607 125.468 30.5647 120.239 30.5647 114.038C30.5647 109.296 30.5039 105.71 30.3823 103.278L30.1999 92.6995C30.1999 88.8087 30.3823 84.8571 30.7471 80.8446C34.03 79.9935 37.7384 79.568 41.8725 79.568C44.669 79.568 48.0127 79.8719 51.9035 80.4799L52.0859 80.6623C52.6939 85.6474 53.1194 93.5507 53.3626 104.372C53.3626 115.558 53.849 124.434 54.8217 131L55.004 131C55.9768 130.878 57.7398 130.818 60.2932 130.818L66.8589 130.818C72.452 130.818 77.0116 130.514 80.5377 129.906L75.6133 2.23752ZM92.5792 47.1038C94.4031 43.2129 97.9899 40.2948 103.34 38.3494C108.811 36.404 114.952 35.4312 121.761 35.4312C122.733 35.5528 124.983 35.6136 128.509 35.6136L132.886 35.4312C137.506 35.4312 142.005 36.1608 146.382 37.6198C150.759 39.0789 154.407 41.2067 157.325 44.0033L157.143 44.0033C157.508 44.4896 158.055 45.1584 158.784 46.0095C159.514 46.739 160.183 47.2862 160.791 47.6509L160.608 47.4685C163.891 49.6571 166.08 54.0343 167.174 60.6001C168.39 67.1659 168.998 75.3124 168.998 85.0395C168.998 93.6723 168.451 102.609 167.356 111.85C166.262 121.091 164.742 126.805 162.797 128.994C160.243 132.641 156.778 135.134 152.401 136.471C148.024 137.809 142.917 138.478 137.081 138.478C130.88 138.478 125.834 138.295 121.943 137.931C118.174 137.566 114.404 136.532 110.635 134.83C106.987 133.249 103.461 130.696 100.057 127.17L98.4155 125.529C94.6462 122.002 92.0929 117.504 90.7554 112.032C89.4179 106.439 88.7492 99.9341 88.7492 92.5172L88.7492 85.9514L88.9316 79.7503C88.9316 78.2913 88.8708 76.893 88.7492 75.5555C88.6276 74.2181 88.5668 73.0022 88.5668 71.9079C88.5668 66.6796 88.6884 62.7279 88.9316 60.053C89.1747 57.378 90.0867 54.1559 91.6673 50.3867L91.4849 50.3867C91.6065 49.6571 91.7281 48.9276 91.8497 48.1981C92.0929 47.4685 92.3361 46.9822 92.5792 46.739L92.5792 46.9214L92.3969 47.4685L92.5792 47.1038ZM90.573 79.3856L90.573 92.8819C90.573 103.582 92.3361 112.458 95.8621 119.51C99.5098 126.44 106.015 130.696 115.377 132.277L123.949 132.459C128.083 132.702 131.305 132.824 133.615 132.824C139.33 132.824 144.194 132.216 148.206 131C152.219 129.784 155.38 127.535 157.69 124.252C159.757 122.185 161.094 117.564 161.702 110.391C162.432 103.217 163.04 93.5507 163.526 81.3918C163.526 80.2975 163.405 76.4067 163.161 69.7193C162.918 62.9103 162.189 57.4996 160.973 53.4872C159.879 49.3532 158.237 46.6174 156.049 45.2799C150.577 39.93 142.613 37.2551 132.156 37.2551L125.226 37.4375C123.645 37.4375 122.429 37.3767 121.578 37.2551C115.377 37.2551 109.662 38.167 104.434 39.9908C99.2058 41.8147 95.8013 44.4288 94.2207 47.8333C92.8832 52.5753 91.9105 56.7701 91.3026 60.4177C90.6946 64.0654 90.3906 67.8346 90.3906 71.7255L90.573 79.3856ZM127.962 64.7949C136.473 64.7949 140.728 71.1175 140.728 83.7628C140.728 88.9911 140.485 93.1859 139.999 96.3472C139.512 99.3869 138.236 101.879 136.169 103.825C134.102 105.77 130.94 106.743 126.685 106.743C123.037 106.743 120.058 105.953 117.748 104.372C115.438 102.791 114.283 100.238 114.283 96.712C114.404 95.1313 114.465 92.3348 114.465 88.3224C114.465 82.7293 114.587 78.4129 114.83 75.3732C115.195 72.2118 115.924 70.2056 117.019 69.3545C119.45 66.3148 123.098 64.7949 127.962 64.7949ZM121.761 74.4612C120.788 75.0692 120.18 77.8657 119.937 82.8509C119.815 87.7144 119.754 93.6115 119.754 100.542C119.754 102.487 120.362 103.703 121.578 104.19C122.794 104.676 124.496 104.919 126.685 104.919C134.102 104.919 137.81 102.366 137.81 97.2591C138.54 90.6933 138.905 85.9514 138.905 83.0332C138.905 79.0208 138.418 75.9203 137.445 73.7317C136.594 71.5431 134.527 70.4488 131.244 70.4488C130.515 70.4488 129.177 70.5704 127.232 70.8136L127.414 70.8136C125.104 71.4215 123.341 72.5158 122.125 74.0965L121.761 74.4612ZM203.512 44.368C209.47 40.7204 215.914 38.8965 222.845 38.8965C226.736 38.8965 230.383 39.5653 233.788 40.9027C237.192 42.1186 239.989 44.1248 242.178 46.9214L246.372 44.7328C250.02 42.7874 253.242 41.3283 256.039 40.3556C258.835 39.3829 262.057 38.8965 265.705 38.8965C269.596 38.8965 273.365 39.5653 277.013 40.9027C280.66 42.2402 283.396 44.3072 285.22 47.1038L287.409 48.7452C290.57 51.177 292.151 61.3904 292.151 79.3856C292.151 84.1275 292.029 91.2405 291.786 100.724C291.543 109.965 291.421 116.713 291.421 120.969C291.421 125.832 291.543 130.818 291.786 135.924C287.409 136.532 282.302 136.836 276.466 136.836L265.523 136.836C265.401 135.985 265.34 134.769 265.34 133.189L261.875 133.189C261.51 129.419 261.328 122.063 261.328 111.12L261.328 102.001C261.328 95.4353 261.206 90.1462 260.963 86.1338C260.72 81.9997 260.051 78.5345 258.957 75.7379C258.106 75.3732 256.89 75.1908 255.309 75.1908C252.756 75.1908 250.75 75.7379 249.29 76.8322L249.29 81.2094C249.29 85.8298 249.169 92.7603 248.926 102.001C248.683 111.242 248.561 117.99 248.561 122.246C248.561 124.434 248.743 128.994 249.108 135.924C244.731 136.532 239.624 136.836 233.788 136.836L222.663 136.836C222.541 135.985 222.48 134.769 222.48 133.189L219.015 133.189C218.65 129.419 218.468 122.063 218.468 111.12L218.468 102.001C218.468 94.9489 218.346 89.4774 218.103 85.5866C217.86 81.6958 217.191 78.4129 216.097 75.7379C215.246 75.3732 213.969 75.1908 212.267 75.1908C208.619 75.1908 206.066 76.4067 204.607 78.8384C203.269 81.2702 202.6 85.9514 202.6 92.8819C202.6 96.1648 202.722 100.724 202.965 106.561C203.208 112.64 203.33 117.078 203.33 119.875C203.33 125.103 203.087 129.663 202.6 133.553L202.6 135.56C198.345 136.654 194.819 137.201 192.022 137.201C190.32 137.201 188.982 137.14 188.01 137.019L183.633 136.836L181.626 136.836C179.803 136.836 178.039 136.958 176.337 137.201L176.337 133.189L172.69 133.553L172.507 99.083C172.264 83.7628 172.142 72.151 172.142 64.2478C172.142 57.8036 172.264 49.11 172.507 38.167C175.425 38.5318 178.161 38.7141 180.714 38.7141C181.687 38.7141 183.268 38.5318 185.456 38.167C187.767 37.8022 190.867 37.6198 194.758 37.6198C198.041 37.6198 199.743 38.3494 199.865 39.8084C199.865 40.538 200.412 41.2067 201.506 41.8147C202.722 42.301 203.391 42.8482 203.512 43.4561L203.512 44.368ZM195.852 39.2613C192.448 39.2613 188.618 39.5653 184.362 40.1732C182.417 40.4164 181.201 40.538 180.714 40.538L178.526 40.538C176.945 40.538 175.547 40.4164 174.331 40.1732C174.088 43.9425 173.966 49.4748 173.966 56.7701L173.966 67.8954C173.966 75.3124 174.088 86.073 174.331 100.177L174.513 131.547C175.972 131.426 177.918 131.365 180.35 131.365L189.104 131.547C191.657 131.547 194.332 131.182 197.129 130.453L197.129 129.723C197.615 125.711 197.858 121.212 197.858 116.227C197.858 113.066 197.737 108.445 197.494 102.366C197.251 96.2864 197.129 91.666 197.129 88.5047C197.129 81.2094 198.041 76.2851 199.865 73.7317C201.689 71.0568 204.607 69.7193 208.619 69.7193C212.996 69.7193 215.793 71.0568 217.009 73.7317C218.346 76.2851 219.136 79.2032 219.38 82.4861C219.623 85.6474 219.805 87.836 219.927 89.0519C220.17 90.8757 220.292 93.7938 220.292 97.8063L220.292 104.19L220.292 117.686L220.292 123.522C220.292 127.17 220.413 129.784 220.656 131.365L231.235 131.547C235.612 131.547 239.685 131.243 243.454 130.635C243.211 126.501 243.089 123.097 243.089 120.422C243.089 116.409 243.211 110.026 243.454 101.272C243.697 91.7876 243.819 84.7963 243.819 80.2975L243.819 72.2726C246.129 70.5704 248.743 69.7193 251.661 69.7193C256.039 69.7193 258.835 70.996 260.051 73.5493C261.267 76.1027 261.997 79.0208 262.24 82.3037C262.483 85.5866 262.665 87.836 262.787 89.0519C263.03 90.8757 263.152 93.7938 263.152 97.8063L263.152 104.19L263.152 117.686L263.152 123.522C263.152 127.17 263.273 129.784 263.516 131.365L274.095 131.547C278.472 131.547 282.545 131.243 286.314 130.635C286.071 126.015 285.949 122.185 285.949 119.145C285.949 114.889 286.071 108.02 286.314 98.5358C286.557 88.5655 286.679 81.2702 286.679 76.6498C286.679 68.2602 286.375 61.512 285.767 56.4053C285.159 51.177 284.065 47.8333 282.484 46.3742C278.35 42.605 272.696 40.7204 265.523 40.7204C261.267 40.7204 257.559 41.3891 254.397 42.7266C251.236 44.0641 246.92 46.3134 241.448 49.4747C240.232 46.5566 237.74 44.368 233.97 42.909C230.323 41.4499 226.553 40.7204 222.663 40.7204C218.772 40.7204 215.306 41.3283 212.267 42.5442C209.227 43.7601 206.37 45.1584 203.695 46.739C201.02 48.1981 199.257 49.1708 198.406 49.6571L198.588 45.4623C198.588 41.3283 197.676 39.2613 195.852 39.2613ZM326.364 94.1586C326.364 97.3199 326.547 99.9341 326.912 102.001C327.398 103.947 328.31 106.074 329.647 108.384L329.647 108.749C331.228 109.6 333.173 110.026 335.484 110.026C338.037 110.026 340.165 108.871 341.867 106.561C343.569 104.129 344.42 100.542 344.42 95.8001L344.42 93.9762C347.095 94.2194 349.102 94.341 350.439 94.341L356.822 94.1586C358.16 94.037 360.227 93.9762 363.023 93.9762C365.09 93.9762 367.826 94.2802 371.231 94.8881L371.048 97.9887L374.878 98.5358C374.878 111.667 373.419 121.091 370.501 126.805C367.705 132.52 364.057 135.924 359.558 137.019C355.181 138.235 348.433 138.842 339.314 138.842C332.018 138.842 326.182 138.295 321.805 137.201C317.549 136.228 313.902 133.918 310.862 130.27C305.269 125.65 301.135 119.024 298.46 110.391C295.785 101.758 294.447 92.3956 294.447 82.3037C294.447 70.5096 295.846 60.8433 298.642 53.3048C301.196 47.4685 305.634 43.0305 311.956 39.9908C318.279 36.8295 325.331 35.2489 333.113 35.2489C342.475 35.2489 350.317 37.2551 356.64 41.2675C363.084 45.2799 367.826 50.6906 370.866 57.4996C374.027 64.187 375.608 71.5431 375.608 79.568C375.608 80.2975 375.426 83.398 375.061 88.8695C372.751 89.4774 366.61 90.0246 356.64 90.5109C346.791 90.9973 338.037 91.2405 330.377 91.2405C328.553 91.2405 327.216 91.1797 326.364 91.0581L326.364 94.1586ZM320.893 85.2218C322.352 85.5866 326.547 85.769 333.477 85.769C340.165 85.769 347.399 85.5866 355.181 85.2218C362.963 84.7355 367.826 84.2491 369.772 83.7628C370.015 80.1151 370.136 77.501 370.136 75.9203C370.136 63.7614 367.401 54.2775 361.929 47.4685C356.579 40.538 346.974 37.0727 333.113 37.0727C325.817 37.0727 319.069 38.5926 312.868 41.6323C306.789 44.5504 302.594 48.6236 300.284 53.8519C297.487 61.3904 296.089 71.4823 296.089 84.1275C296.089 96.7728 298.217 107.716 302.472 116.957C306.728 126.197 313.354 131.486 322.352 132.824L330.377 133.006C334.511 133.249 337.733 133.371 340.043 133.371C345.758 133.371 350.621 132.763 354.634 131.547C358.768 130.331 361.99 128.082 364.3 124.799C365.881 123.461 366.975 120.665 367.583 116.409C368.191 112.032 368.799 105.345 369.407 96.3472C367.583 95.9824 365.212 95.8001 362.294 95.8001L355.181 95.9824C353.722 96.104 351.716 96.1648 349.162 96.1648C347.703 96.1648 346.791 96.104 346.427 95.9824L346.427 97.4415C346.427 102.183 345.332 105.77 343.144 108.202C341.077 110.634 338.523 111.85 335.484 111.85C326.121 111.85 321.258 104.068 320.893 88.5047L320.893 85.2218ZM350.074 70.8136C350.074 71.1783 349.649 71.3607 348.798 71.3607C348.19 71.3607 346.974 71.2999 345.15 71.1783C343.326 71.0568 341.137 70.996 338.584 70.996L326.729 71.1783C324.419 71.1783 322.899 71.0568 322.17 70.8136C321.44 70.5704 321.075 70.0232 321.075 69.1721C321.075 59.8098 326.243 55.1286 336.578 55.1286C338.888 55.1286 341.016 55.7366 342.961 56.9525C345.15 58.0468 346.852 59.6882 348.068 61.8768C349.406 64.0654 350.074 66.3756 350.074 68.8074L350.074 70.8136ZM345.697 62.0592C344.116 61.0865 342.293 60.6001 340.226 60.6001C335.97 60.6001 332.869 61.3297 330.924 62.7887C329.1 64.2478 327.824 66.4364 327.094 69.3545L330.559 69.1721L338.584 69.1721L346.427 69.3545L348.25 69.5369L348.25 68.8074C348.25 66.0108 347.46 63.8222 345.879 62.2416L345.697 62.0592Z" fill="black"/>
</svg>
