<svg width="458" height="356" viewBox="0 0 458 356" fill="none" xmlns="http://www.w3.org/2000/svg">
<path d="M85.6382 136.836C82.2337 136.35 78.3429 136.107 73.9657 136.107L65.2113 136.289C63.509 136.411 61.0773 136.471 57.916 136.471C57.7944 135.62 57.7336 134.344 57.7336 132.641L54.2683 132.824C53.9035 126.258 53.7211 115.376 53.7211 100.177L53.3564 77.7441C52.9916 78.7168 52.2621 80.6623 51.1678 83.5804C50.1951 86.4985 49.2224 88.6871 48.2497 90.1462C47.2769 91.4837 46.365 92.1524 45.5139 92.1524C44.5412 92.1524 43.3253 90.9365 41.8662 88.5047C40.0424 88.3831 37.8538 85.2826 35.3005 79.2032C35.1789 82.1213 35.1181 86.3769 35.1181 91.97C35.1181 102.67 35.726 117.26 36.9419 135.742C32.1999 136.471 27.154 136.836 21.8041 136.836L15.9678 137.019C13.0497 137.019 10.7395 136.715 9.03728 136.107C7.45663 135.62 6.6663 134.526 6.6663 132.824L5.75439 132.824C4.78168 132.824 3.93056 132.094 3.20103 130.635C2.95785 129.906 2.77546 127.048 2.65388 122.063C2.65388 116.957 2.65388 109.904 2.65388 100.907C2.65388 67.9562 2.83626 35.8568 3.20103 4.60851C6.48392 3.51421 10.1924 2.96706 14.3264 2.96706C16.6366 2.96706 18.3996 3.02785 19.6155 3.14944L25.4518 3.33182C27.6404 3.33182 29.4034 3.27103 30.7409 3.14944L33.2942 6.97949L34.3885 6.7971C36.6987 9.47205 39.2521 14.9435 42.0486 23.2116L43.6901 27.7712C44.5412 23.7587 45.8787 19.1992 47.7025 14.0924C49.6479 8.86411 51.4718 5.03407 53.174 2.60229C54.8762 2.84547 56.3353 2.96706 57.5512 2.96706C59.7398 2.96706 63.7522 2.84547 69.5885 2.60229C74.3304 2.23752 78.7076 2.05514 82.7201 2.05514L82.5377 5.7028L86.3677 5.7028C86.2461 8.74252 86.1853 13.9708 86.1853 21.3878L86.3677 40.538C86.4893 44.7936 86.5501 51.2378 86.5501 59.8706L86.5501 66.6188C86.5501 71.1175 86.4285 74.522 86.1853 76.8322L86.1853 76.6498L85.6382 136.836ZM80.7138 73.0022C80.957 70.5704 81.0786 66.9835 81.0786 62.2416L81.0786 55.1286C81.0786 46.8606 81.0178 40.6596 80.8962 36.5256L80.7138 17.7401C80.7138 11.5391 80.7746 6.91869 80.8962 3.87897C77.127 3.87897 72.8714 4.06136 68.1294 4.42613L56.8217 4.79089C55.1194 4.79089 54.1467 4.73009 53.9035 4.60851C52.8092 6.06757 51.5933 8.74252 50.2559 12.6334C48.9184 16.4026 47.7025 20.1111 46.6082 23.7587C45.8787 26.1905 45.1491 28.3791 44.4196 30.3245C43.8117 32.2699 43.3861 33.1819 43.1429 33.0603C42.4134 33.0603 41.5623 31.966 40.5896 29.7774C39.6169 27.5888 38.1578 24.0019 36.2124 19.0168C35.1181 15.977 34.0238 13.1197 32.9295 10.4448C31.8352 7.64823 30.8625 5.82439 30.0113 4.97327L29.829 4.97327C28.4915 5.09486 26.3637 5.15565 23.4456 5.15565L16.8798 4.97327L13.9616 4.97327C9.9492 4.97327 6.97028 5.27724 5.02486 5.88518C4.66009 37.0119 4.47771 68.6858 4.47771 100.907C4.47771 113.795 4.5385 122.063 4.66009 125.711C4.90327 129.237 5.26803 131 5.75439 131L19.4331 131.182C24.0535 131.182 28.0051 130.939 31.288 130.453C30.1937 113.795 29.6466 99.7517 29.6466 88.3224C29.6466 79.2032 30.0113 70.2056 30.7409 61.3296L31.288 63.1535L32.7471 66.9835C34.6925 72.5766 36.4555 77.2578 38.0362 81.027C39.6169 84.7963 40.9543 86.6809 42.0486 86.6809C42.535 86.6809 43.3861 85.2218 44.602 82.3037C45.8179 79.3856 47.0338 76.2243 48.2497 72.8198C50.9246 65.7676 52.6876 61.512 53.5388 60.053C54.6331 69.9017 55.3018 85.3434 55.545 106.378C55.545 109.175 55.6058 113.187 55.7274 118.416C55.849 123.522 55.9705 127.717 56.0921 131L67.5823 130.818L74.1481 130.818C75.4855 130.818 77.4917 130.939 80.1667 131.182L80.7138 73.0022ZM137.978 130.27C131.534 133.797 125.15 135.56 118.828 135.56C114.937 135.56 111.046 134.891 107.155 133.553C103.264 132.337 100.65 130.392 99.3126 127.717C96.7593 125.65 94.9355 122.124 93.8412 117.139C92.8684 112.154 92.3821 104.798 92.3821 95.0705C92.3821 90.3286 92.5037 83.2156 92.7469 73.7317C92.99 64.491 93.1116 57.7428 93.1116 53.4872C93.1116 48.6236 92.99 43.6385 92.7469 38.5318C97.0025 37.9238 101.988 37.6198 107.702 37.6198L119.01 37.6198C119.01 39.2005 119.071 40.4164 119.192 41.2675L122.658 41.2675C123.022 45.0368 123.205 52.3929 123.205 63.3359L123.205 72.455C123.205 79.5072 123.326 84.9787 123.57 88.8695C123.813 92.6388 124.542 95.9824 125.758 98.9006C127.46 99.1437 128.676 99.2653 129.406 99.2653C132.81 99.2653 135.242 98.171 136.701 95.9824C138.282 93.7938 139.072 89.7206 139.072 83.7628C139.072 80.8446 138.951 76.2243 138.707 69.9017C138.343 65.2813 138.16 60.5393 138.16 55.6758C138.16 49.4748 138.464 44.4896 139.072 40.7204L139.072 38.8965C142.598 37.9238 146.064 37.4375 149.468 37.4375L158.04 37.6198L160.046 37.6198C161.87 37.6198 163.633 37.4983 165.335 37.2551L165.335 41.2675L168.983 40.9027L169.165 75.3732C169.409 90.6933 169.53 102.305 169.53 110.208C169.53 116.653 169.409 125.346 169.165 136.289C163.329 135.924 160.593 135.742 160.958 135.742C159.864 135.742 158.162 135.924 155.851 136.289C153.541 136.654 150.562 136.836 146.915 136.836C144.969 136.836 143.571 136.593 142.72 136.107C141.99 135.62 141.626 134.648 141.626 133.189C139.559 133.067 138.403 132.337 138.16 131L137.978 130.27ZM141.99 131.547C145.516 131.547 149.407 131.243 153.663 130.635C155.608 130.392 156.824 130.27 157.31 130.27C157.675 130.27 159.803 130.392 163.694 130.635C163.937 117.99 164.059 108.749 164.059 102.913C164.059 95.4961 163.937 84.7355 163.694 70.6312L163.512 39.2613C162.052 39.3829 160.107 39.4437 157.675 39.4437L148.738 39.2613C146.307 39.2613 143.693 39.6261 140.896 40.3556L140.896 41.0851C140.288 44.8544 139.984 49.4748 139.984 54.9462C139.984 57.986 140.106 62.6671 140.349 68.9897C140.714 73.7317 140.896 78.4737 140.896 83.2156C140.896 90.0246 139.923 94.7058 137.978 97.2591C136.154 99.8125 133.297 101.089 129.406 101.089C126.001 101.089 123.509 100.238 121.928 98.5358C120.347 96.712 119.375 94.645 119.01 92.3348C118.645 90.0246 118.341 86.4985 118.098 81.7566C117.855 79.9327 117.733 77.0146 117.733 73.0022L117.733 66.8011L117.733 53.1224L117.733 47.2862C117.733 43.6385 117.612 41.0243 117.369 39.4437L106.79 39.2613C102.413 39.2613 98.3399 39.5653 94.5707 40.1732C94.6923 42.4834 94.7531 46.3134 94.7531 51.6633C94.7531 55.7974 94.6315 62.7279 94.3883 72.455C94.1451 82.1821 94.0235 89.4774 94.0235 94.341C94.0235 111.971 95.4826 122.002 98.4007 124.434C102.535 128.203 108.128 130.088 115.18 130.088C119.679 130.088 123.509 129.419 126.67 128.082C129.831 126.744 134.148 124.434 139.619 121.151L139.437 125.529C139.437 129.541 140.288 131.547 141.99 131.547ZM206.407 44.368C212.365 40.7204 218.809 38.8965 225.74 38.8965C229.631 38.8965 233.4 39.5653 237.048 40.9027C240.695 42.2402 243.431 44.3072 245.255 47.1038L247.443 48.7452C250.605 51.177 252.185 61.3904 252.185 79.3856C252.185 84.1275 252.064 91.2405 251.821 100.724C251.577 109.965 251.456 116.713 251.456 120.969C251.456 125.832 251.577 130.818 251.821 135.924C247.443 136.532 242.337 136.836 236.5 136.836L225.557 136.836C225.436 135.985 225.375 134.769 225.375 133.189L221.91 133.189C221.545 129.419 221.363 122.063 221.363 111.12L221.363 102.001C221.363 94.9489 221.241 89.4774 220.998 85.5866C220.755 81.6958 220.086 78.4129 218.992 75.7379C218.019 75.3732 216.742 75.1908 215.162 75.1908C211.514 75.1908 208.961 76.4067 207.501 78.8384C206.164 81.2702 205.495 85.9514 205.495 92.8819C205.495 96.1648 205.617 100.724 205.86 106.561C206.103 112.64 206.225 117.078 206.225 119.875C206.225 125.103 205.982 129.663 205.495 133.553L205.495 135.56C201.24 136.654 197.714 137.201 194.917 137.201C193.215 137.201 191.877 137.14 190.905 137.019L186.527 136.836L184.521 136.836C182.697 136.836 180.934 136.958 179.232 137.201L179.232 133.189L175.584 133.553L175.402 99.083C175.159 83.7628 175.037 72.151 175.037 64.2478C175.037 57.8036 175.159 49.11 175.402 38.167C178.32 38.5318 181.056 38.7141 183.609 38.7141C184.582 38.7141 186.163 38.5318 188.351 38.167C190.661 37.8022 193.762 37.6198 197.653 37.6198C200.936 37.6198 202.638 38.3494 202.759 39.8084C202.759 40.538 203.307 41.2067 204.401 41.8147C205.617 42.301 206.286 42.8482 206.407 43.4561L206.407 44.368ZM198.747 39.2613C195.343 39.2613 191.513 39.5653 187.257 40.1732C185.312 40.4164 184.096 40.538 183.609 40.538L181.421 40.538C179.84 40.538 178.442 40.4164 177.226 40.1732C176.983 43.9425 176.861 49.4748 176.861 56.7701L176.861 67.8954C176.861 75.3124 176.983 86.073 177.226 100.177L177.408 131.547C178.867 131.426 180.813 131.365 183.244 131.365L191.999 131.547C194.552 131.547 197.227 131.182 200.024 130.453L200.024 129.723C200.51 125.711 200.753 121.212 200.753 116.227C200.753 113.066 200.632 108.445 200.389 102.366C200.145 96.2864 200.024 91.666 200.024 88.5047C200.024 81.2094 200.936 76.2851 202.759 73.7317C204.583 71.0568 207.501 69.7193 211.514 69.7193C215.891 69.7193 218.688 71.0568 219.904 73.7317C221.241 76.2851 222.031 79.2032 222.274 82.4861C222.518 85.6474 222.7 87.836 222.822 89.0519C223.065 90.8757 223.186 93.7938 223.186 97.8063L223.186 104.19L223.186 117.686L223.186 123.522C223.186 127.17 223.308 129.784 223.551 131.365L234.129 131.547C238.507 131.547 242.58 131.243 246.349 130.635C246.106 126.015 245.984 122.185 245.984 119.145C245.984 114.889 246.106 108.02 246.349 98.5358C246.592 88.5655 246.714 81.2702 246.714 76.6498C246.714 68.2602 246.41 61.512 245.802 56.4053C245.194 51.177 244.1 47.8333 242.519 46.3742C238.385 42.605 232.731 40.7204 225.557 40.7204C221.667 40.7204 218.201 41.3283 215.162 42.5442C212.122 43.7601 209.264 45.1584 206.59 46.739C203.915 48.1981 202.152 49.1708 201.3 49.6571L201.483 45.4623C201.483 41.3283 200.571 39.2613 198.747 39.2613ZM335.205 18.2872C335.205 29.3518 335.448 45.4623 335.935 66.6188C336.056 71.8471 336.178 78.2913 336.3 85.9514C336.421 93.6115 336.482 102.427 336.482 112.397C336.482 123.583 336.421 131.547 336.3 136.289L325.357 136.471C322.925 136.593 319.338 136.654 314.596 136.654C312.407 136.654 310.705 136.411 309.489 135.924C308.395 135.438 307.848 134.465 307.848 133.006L307.848 132.641L305.477 132.459L305.112 132.094C301.951 134.769 297.999 136.107 293.257 136.107C287.907 136.107 283.165 135.134 279.031 133.189C275.019 131.243 271.675 128.69 269 125.529C259.395 117.868 254.592 102.366 254.592 79.0208C254.592 69.6585 255.929 61.3904 258.604 54.2167C261.279 47.043 265.292 42.4226 270.642 40.3556C275.14 38.5318 280.794 37.6198 287.603 37.6198C294.899 37.6198 300.492 38.6534 304.382 40.7204L304.018 22.1173C304.018 19.3207 304.139 15.9771 304.382 12.0862L304.93 4.79089L304.93 2.78468C304.93 2.17674 306.389 1.56879 309.307 0.960838C312.347 0.352895 315.629 0.0489237 319.156 0.0489237C323.897 0.0489237 328.032 0.413693 331.558 1.14323L331.558 4.24374L335.205 4.79089L335.205 18.2872ZM330.828 130.818C330.95 126.562 331.01 119.935 331.01 110.938C331.01 101.089 330.95 92.3348 330.828 84.6747C330.706 76.893 330.585 70.3272 330.463 64.9773C329.977 43.0913 329.734 26.3121 329.734 14.6396L329.734 2.60229C327.18 2.11594 323.654 1.87276 319.156 1.87276C316.116 1.87276 313.258 1.99435 310.584 2.23753C308.03 2.35911 306.753 2.5415 306.753 2.78468L306.753 4.79089L306.389 11.1743C306.146 13.4845 306.024 17.1321 306.024 22.1173L306.024 30.5069C306.024 35.9784 306.085 40.5988 306.206 44.368C305.72 43.0305 303.653 41.8755 300.005 40.9027C296.358 39.93 292.163 39.4437 287.421 39.4437C281.949 39.4437 276.539 40.2948 271.189 41.997C266.082 43.8209 262.313 48.1373 259.881 54.9462C257.571 61.7552 256.416 69.7801 256.416 79.0208C256.659 89.4774 257.51 98.2926 258.969 105.466C260.55 112.64 263.772 118.659 268.635 123.522C273.621 128.264 280.916 130.635 290.521 130.635C296.722 130.635 301.221 127.96 304.018 122.61C304.139 122.124 304.382 121.881 304.747 121.881C305.234 121.881 305.659 123.279 306.024 126.076C306.389 128.872 306.45 130.392 306.206 130.635C309.003 131 312.103 131.182 315.508 131.182L323.533 131C325.235 130.878 327.667 130.818 330.828 130.818ZM295.81 60.6001C299.458 60.6001 302.012 61.0865 303.471 62.0592C304.93 62.9103 305.842 64.6733 306.206 67.3483C306.693 70.0232 306.936 74.7652 306.936 81.5742C306.936 87.6536 306.632 92.5172 306.024 96.1648C305.538 99.8125 304.322 102.731 302.376 104.919C300.552 106.986 297.695 108.02 293.804 108.02C288.819 108.02 284.807 105.649 281.767 100.907C278.727 96.1648 277.207 90.5717 277.207 84.1275C277.207 79.3856 277.633 75.8595 278.484 73.5493C279.822 64.9165 285.597 60.6001 295.81 60.6001ZM305.112 74.6436C305.112 71.3607 304.747 69.1113 304.018 67.8954C303.41 66.6796 301.89 66.0716 299.458 66.0716C290.217 66.0716 285.05 69.8409 283.956 77.3794L283.773 77.7441C283.044 79.4464 282.679 81.9997 282.679 85.4042C282.679 99.2653 286.387 106.196 293.804 106.196C297.209 106.196 299.701 105.223 301.282 103.278C302.984 101.211 304.018 98.5358 304.382 95.2529C304.869 91.8484 305.112 87.2888 305.112 81.5742L305.112 74.6436ZM343.575 47.1038C345.399 43.2129 348.986 40.2948 354.336 38.3494C359.807 36.404 365.947 35.4312 372.756 35.4312C373.729 35.5528 375.978 35.6136 379.504 35.6136L383.882 35.4312C388.502 35.4312 393.001 36.1608 397.378 37.6198C401.755 39.0789 405.403 41.2067 408.321 44.0033L408.139 44.0033C408.503 44.4896 409.05 45.1584 409.78 46.0095C410.51 46.739 411.178 47.2862 411.786 47.6509L411.604 47.4685C414.887 49.6571 417.075 54.0343 418.17 60.6001C419.385 67.1659 419.993 75.3124 419.993 85.0395C419.993 93.6723 419.446 102.609 418.352 111.85C417.258 121.091 415.738 126.805 413.792 128.994C411.239 132.641 407.774 135.134 403.397 136.471C399.019 137.809 393.913 138.478 388.076 138.478C381.875 138.478 376.829 138.295 372.939 137.931C369.169 137.566 365.4 136.532 361.631 134.83C357.983 133.249 354.457 130.696 351.053 127.17L349.411 125.529C345.642 122.002 343.089 117.504 341.751 112.032C340.414 106.439 339.745 99.9341 339.745 92.5172L339.745 85.9514L339.927 79.7503C339.927 78.2913 339.866 76.893 339.745 75.5555C339.623 74.2181 339.562 73.0022 339.562 71.9079C339.562 66.6796 339.684 62.7279 339.927 60.053C340.17 57.378 341.082 54.1559 342.663 50.3867L342.481 50.3867C342.602 49.6571 342.724 48.9276 342.845 48.1981C343.089 47.4685 343.332 46.9822 343.575 46.739L343.575 46.9214L343.393 47.4685L343.575 47.1038ZM341.569 79.3856L341.569 92.8819C341.569 103.582 343.332 112.458 346.858 119.51C350.505 126.44 357.01 130.696 366.373 132.277L374.945 132.459C379.079 132.702 382.301 132.824 384.611 132.824C390.326 132.824 395.189 132.216 399.202 131C403.214 129.784 406.375 127.535 408.686 124.252C410.753 122.185 412.09 117.564 412.698 110.391C413.428 103.217 414.036 93.5507 414.522 81.3918C414.522 80.2975 414.4 76.4067 414.157 69.7193C413.914 62.9103 413.184 57.4996 411.969 53.4872C410.874 49.3532 409.233 46.6174 407.044 45.2799C401.573 39.93 393.609 37.2551 383.152 37.2551L376.221 37.4375C374.641 37.4375 373.425 37.3767 372.574 37.2551C366.373 37.2551 360.658 38.167 355.43 39.9908C350.202 41.8147 346.797 44.4288 345.216 47.8333C343.879 52.5753 342.906 56.7701 342.298 60.4177C341.69 64.0654 341.386 67.8346 341.386 71.7255L341.569 79.3856ZM378.957 64.7949C387.468 64.7949 391.724 71.1175 391.724 83.7628C391.724 88.9911 391.481 93.1859 390.995 96.3472C390.508 99.3869 389.231 101.879 387.164 103.825C385.097 105.77 381.936 106.743 377.681 106.743C374.033 106.743 371.054 105.953 368.744 104.372C366.434 102.791 365.279 100.238 365.279 96.712C365.4 95.1313 365.461 92.3348 365.461 88.3224C365.461 82.7293 365.582 78.4129 365.826 75.3732C366.19 72.2118 366.92 70.2056 368.014 69.3545C370.446 66.3148 374.094 64.7949 378.957 64.7949ZM372.756 74.4612C371.784 75.0692 371.176 77.8657 370.932 82.8509C370.811 87.7144 370.75 93.6115 370.75 100.542C370.75 102.487 371.358 103.703 372.574 104.19C373.79 104.676 375.492 104.919 377.681 104.919C385.097 104.919 388.806 102.366 388.806 97.2591C389.535 90.6933 389.9 85.9514 389.9 83.0332C389.9 79.0208 389.414 75.9203 388.441 73.7317C387.59 71.5431 385.523 70.4488 382.24 70.4488C381.511 70.4488 380.173 70.5704 378.228 70.8136L378.41 70.8136C376.1 71.4215 374.337 72.5158 373.121 74.0965L372.756 74.4612ZM35.3005 296.48C35.3005 302.681 35.6652 307.605 36.3947 311.253C37.1243 314.901 38.7049 316.968 41.1367 317.454L40.9543 317.454L42.5958 317.636C45.6355 317.636 47.8849 317.028 49.3439 315.812C50.803 314.597 51.7149 313.016 52.0797 311.071C52.5661 309.125 52.9916 306.389 53.3564 302.863C53.5996 299.216 54.0251 295.872 54.6331 292.832C57.1864 293.197 59.679 293.379 62.1108 293.379L70.6828 293.197C75.3031 293.197 79.0116 293.562 81.8081 294.291C82.0513 294.899 82.1729 295.446 82.1729 295.933C82.2945 296.297 82.4769 296.784 82.7201 297.392L85.4558 297.939C87.158 302.681 88.0092 307.544 88.0092 312.53C88.0092 321.041 86.003 328.519 81.9905 334.963C78.0997 341.407 72.6282 346.331 65.576 349.736C58.5239 353.262 50.499 355.025 41.5015 355.025C35.1789 355.025 29.0994 353.809 23.2632 351.377C17.4269 348.945 12.5026 345.48 8.49013 340.981C4.59929 336.361 2.3499 331.011 1.74196 324.932C1.13402 312.773 0.830044 299.702 0.830044 285.719L1.01243 257.815C1.13402 255.991 1.19481 253.133 1.19481 249.243L1.01243 247.236C1.01243 243.102 1.80275 239.394 3.38341 236.111L3.38341 236.293C6.17995 228.512 10.314 222.676 15.7855 218.785C21.3785 214.772 28.917 212.766 38.401 212.766C46.7906 212.766 54.8762 215.015 62.6579 219.514C70.4396 224.013 76.7014 229.971 81.4434 237.388C86.1853 244.683 88.5563 252.343 88.5563 260.368C88.5563 265.11 87.5836 270.156 85.6382 275.506C82.1121 276.357 78.2821 276.783 74.1481 276.783C68.7981 276.783 62.7795 276.114 56.0921 274.776L55.7274 271.858C54.0251 271.615 52.9916 271.189 52.6268 270.581C52.2621 269.974 52.0189 268.818 51.8973 267.116C51.8973 265.292 51.8365 263.955 51.7149 263.104C51.5933 262.131 51.4718 260.49 51.3502 258.179C51.3502 255.748 50.8638 253.924 49.8911 252.708C48.9184 251.37 47.2769 250.702 44.9668 250.702C43.6293 250.702 42.1094 250.945 40.4072 251.431C38.8265 251.918 37.7322 252.465 37.1243 253.073C36.8811 253.316 36.5163 256.416 36.03 262.374C35.5436 268.21 35.3005 276.479 35.3005 287.178L35.3005 296.48ZM42.0486 245.23C45.3315 245.23 47.7633 246.081 49.3439 247.784C50.9246 249.364 51.9581 251.31 52.4445 253.62C52.9308 255.93 53.2956 259.031 53.5388 262.921C53.5388 263.651 53.5996 264.684 53.7211 266.022C53.8427 267.359 53.9643 268.514 54.0859 269.487C59.4358 270.703 64.9073 271.311 70.5004 271.311C73.9049 271.311 77.3094 270.946 80.7138 270.217C82.2945 265.961 83.0848 261.462 83.0848 256.72C83.0848 249.06 81.0178 242.008 76.8838 235.564C72.7498 229.12 67.2175 224.013 60.2869 220.244C53.478 216.474 46.1826 214.59 38.401 214.59C30.1329 214.59 23.2024 216.353 17.6093 219.879C12.0162 223.283 7.8214 228.937 5.02486 236.841C3.56579 240.367 2.83626 243.71 2.83626 246.872C2.83626 247.966 2.89705 248.696 3.01864 249.06C3.01864 252.83 2.95785 255.626 2.83626 257.45L2.65388 285.719C2.65388 299.58 2.95785 312.59 3.56579 324.749C4.29532 333.017 8.00378 339.218 14.6912 343.352C21.3785 347.486 29.0994 349.553 37.8538 349.553C46.365 349.553 54.0251 347.912 60.8341 344.629C67.6431 341.225 72.9322 336.483 76.7014 330.403C80.5923 324.202 82.5377 317.028 82.5377 308.882C82.5377 304.262 81.8689 299.945 80.5315 295.933C78.2213 295.325 75.06 295.021 71.0475 295.021L61.3812 295.203C60.0438 295.203 58.2807 295.082 56.0921 294.838C55.6058 296.541 55.241 299.276 54.9978 303.046C54.7547 306.572 54.3291 309.49 53.7211 311.8C53.2348 313.989 52.0797 315.812 50.2559 317.272C48.5536 318.731 45.9395 319.46 42.4134 319.46C37.1851 319.46 33.7198 316.785 32.0176 311.435C30.4369 305.964 29.6466 298.851 29.6466 290.096L29.6466 283.531C29.6466 272.101 29.9505 263.469 30.5585 257.632C31.1664 251.796 31.7136 248.635 32.1999 248.148C33.1726 247.176 34.6317 246.446 36.5771 245.96C38.5226 245.473 40.3464 245.23 42.0486 245.23ZM171.592 259.638C171.835 261.584 171.957 263.104 171.957 264.198L171.957 266.022C171.835 269.305 171.774 274.047 171.774 280.248L171.957 300.675C172.078 305.295 172.139 312.165 172.139 321.284C172.139 328.458 171.957 335.814 171.592 343.352L171.592 344.629C171.592 347.182 171.41 349.067 171.045 350.283C170.68 351.499 169.586 352.289 167.762 352.654L165.209 352.654C163.506 352.654 161.318 352.532 158.643 352.289L153.354 352.107C152.502 352.107 151.226 352.228 149.524 352.471L145.511 352.654C143.566 352.168 142.289 350.952 141.681 349.006C140.1 348.398 139.128 347.73 138.763 347C132.44 350.891 126.179 352.836 119.978 352.836C113.533 352.836 107.819 350.04 102.833 344.447C97.9699 338.854 94.2007 331.862 91.5257 323.473C88.9724 314.961 87.6957 306.633 87.6957 298.486C87.6957 289.245 89.2764 281.342 92.4377 274.776C95.599 268.089 99.9154 263.043 105.387 259.638C110.98 256.234 117.242 254.532 124.172 254.532C127.577 254.532 130.191 254.775 132.015 255.261C133.96 255.748 135.723 256.964 137.304 258.909C137.425 258.301 137.547 257.328 137.669 255.991C137.79 254.653 138.094 253.802 138.581 253.437C139.067 253.073 139.857 252.89 140.952 252.89C142.046 252.89 143.019 253.012 143.87 253.255C144.842 253.377 145.754 253.437 146.605 253.437L148.247 253.437C151.408 253.437 157.427 253.741 166.303 254.349L167.944 255.991L168.127 257.997L169.95 257.997L171.592 259.638ZM146.241 255.261L141.316 255.079C140.1 255.079 139.371 255.869 139.128 257.45C138.885 258.909 138.763 261.037 138.763 263.833L138.763 264.745C137.669 262.07 136.27 260.125 134.568 258.909C132.866 257.693 130.981 256.964 128.914 256.72C126.847 256.477 123.929 256.356 120.16 256.356C114.445 256.477 109.217 258.423 104.475 262.192C99.8546 265.84 96.2069 270.825 93.532 277.147C90.857 283.47 89.5195 290.583 89.5195 298.486C89.5195 305.66 90.4922 313.016 92.4377 320.554C94.3831 328.093 97.362 334.476 101.374 339.705C105.508 344.811 110.494 347.365 116.33 347.365C120.464 347.365 124.719 346.392 129.097 344.447C133.595 342.38 137.365 339.826 140.404 336.787C140.404 337.516 140.283 338.55 140.04 339.887C139.796 341.103 139.675 342.197 139.675 343.17C139.675 345.237 140.404 346.574 141.863 347.182C142.836 347.182 144.174 347.061 145.876 346.818L149.706 346.635L155.725 346.818C158.4 347.061 160.345 347.182 161.561 347.182L163.749 347.182C164.722 346.939 165.33 346.453 165.573 345.723C165.938 344.872 166.12 343.717 166.12 342.258L166.12 339.705C166.607 332.531 166.85 324.567 166.85 315.812L166.668 295.75C166.424 286.753 166.303 279.944 166.303 275.323C166.303 269.609 166.364 265.292 166.485 262.374L166.485 260.55C166.485 259.578 166.364 258.119 166.12 256.173C162.716 255.93 156.758 255.626 148.247 255.261L146.241 255.261ZM130.009 280.795C133.048 280.795 135.176 281.099 136.392 281.707C137.729 282.193 138.581 283.348 138.945 285.172C139.31 286.874 139.493 289.792 139.493 293.927L139.493 303.958C139.493 308.335 139.249 311.739 138.763 314.171C138.398 316.603 137.365 318.487 135.662 319.825C134.082 321.162 131.589 321.831 128.185 321.831C123.2 321.831 119.248 319.947 116.33 316.177C113.412 312.408 111.953 307.727 111.953 302.134C111.953 298.121 112.317 294.899 113.047 292.467C113.776 289.185 115.6 286.449 118.518 284.26C121.437 281.95 125.267 280.795 130.009 280.795ZM118.518 296.662C117.789 299.094 117.424 302.134 117.424 305.781C117.424 315.265 121.011 320.007 128.185 320.007C131.224 320.007 133.413 319.339 134.751 318.001C136.088 316.664 136.878 314.84 137.122 312.53C137.486 310.219 137.669 306.693 137.669 301.951L137.669 297.209L137.851 291.738C137.851 289.792 137.547 288.394 136.939 287.543C136.453 286.692 135.358 286.266 133.656 286.266C129.401 286.266 125.996 287.239 123.443 289.185C120.889 291.13 119.248 293.562 118.518 296.48L118.518 296.662ZM208.723 260.368C214.68 256.72 221.125 254.897 228.055 254.897C231.946 254.897 235.715 255.565 239.363 256.903C243.011 258.24 245.746 260.307 247.57 263.104L249.759 264.745C252.92 267.177 254.501 277.39 254.501 295.386C254.501 300.128 254.379 307.24 254.136 316.724C253.893 325.965 253.771 332.713 253.771 336.969C253.771 341.832 253.893 346.818 254.136 351.924C249.759 352.532 244.652 352.836 238.816 352.836L227.873 352.836C227.751 351.985 227.69 350.769 227.69 349.189L224.225 349.189C223.86 345.419 223.678 338.063 223.678 327.12L223.678 318.001C223.678 310.949 223.556 305.477 223.313 301.587C223.07 297.696 222.401 294.413 221.307 291.738C220.334 291.373 219.058 291.191 217.477 291.191C213.829 291.191 211.276 292.407 209.817 294.838C208.479 297.27 207.811 301.951 207.811 308.882C207.811 312.165 207.932 316.724 208.175 322.561C208.419 328.64 208.54 333.078 208.54 335.875C208.54 341.103 208.297 345.663 207.811 349.553L207.811 351.56C203.555 352.654 200.029 353.201 197.232 353.201C195.53 353.201 194.193 353.14 193.22 353.019L188.843 352.836L186.837 352.836C185.013 352.836 183.25 352.958 181.547 353.201L181.547 349.189L177.9 349.553L177.717 315.083C177.474 299.763 177.353 288.151 177.353 280.248C177.353 273.804 177.474 265.11 177.717 254.167C180.636 254.532 183.371 254.714 185.925 254.714C186.897 254.714 188.478 254.532 190.667 254.167C192.977 253.802 196.077 253.62 199.968 253.62C203.251 253.62 204.953 254.349 205.075 255.808C205.075 256.538 205.622 257.207 206.716 257.815C207.932 258.301 208.601 258.848 208.723 259.456L208.723 260.368ZM201.062 255.261C197.658 255.261 193.828 255.565 189.572 256.173C187.627 256.416 186.411 256.538 185.925 256.538L183.736 256.538C182.155 256.538 180.757 256.416 179.541 256.173C179.298 259.942 179.176 265.475 179.176 272.77L179.176 283.895C179.176 291.312 179.298 302.073 179.541 316.177L179.724 347.547C181.183 347.426 183.128 347.365 185.56 347.365L194.314 347.547C196.868 347.547 199.543 347.182 202.339 346.453L202.339 345.723C202.826 341.711 203.069 337.212 203.069 332.227C203.069 329.066 202.947 324.445 202.704 318.366C202.461 312.286 202.339 307.666 202.339 304.505C202.339 297.209 203.251 292.285 205.075 289.732C206.899 287.057 209.817 285.719 213.829 285.719C218.206 285.719 221.003 287.057 222.219 289.732C223.556 292.285 224.347 295.203 224.59 298.486C224.833 301.647 225.015 303.836 225.137 305.052C225.38 306.876 225.502 309.794 225.502 313.806L225.502 320.19L225.502 333.686L225.502 339.522C225.502 343.17 225.623 345.784 225.867 347.365L236.445 347.547C240.822 347.547 244.895 347.243 248.664 346.635C248.421 342.015 248.3 338.185 248.3 335.145C248.3 330.889 248.421 324.02 248.664 314.536C248.908 304.566 249.029 297.27 249.029 292.65C249.029 284.26 248.725 277.512 248.117 272.405C247.509 267.177 246.415 263.833 244.834 262.374C240.7 258.605 235.047 256.72 227.873 256.72C223.982 256.72 220.517 257.328 217.477 258.544C214.437 259.76 211.58 261.158 208.905 262.739C206.23 264.198 204.467 265.171 203.616 265.657L203.798 261.462C203.798 257.328 202.886 255.261 201.062 255.261ZM287.912 217.873L291.56 217.873L291.743 227.721C291.986 234.774 292.107 240.063 292.107 243.589C290.77 245.656 287.852 246.689 283.353 246.689C282.259 246.689 279.888 246.568 276.24 246.325L276.422 246.325L270.221 246.142C267.79 246.142 265.662 246.203 263.838 246.325L263.838 242.494L260.19 242.677C260.19 240.367 260.069 236.901 259.825 232.281C259.582 226.688 259.461 221.764 259.461 217.508L259.461 213.678L287.912 214.225L287.912 217.873ZM261.285 218.42C261.285 222.189 261.406 226.627 261.649 231.734C261.892 235.868 262.014 238.847 262.014 240.671L265.115 240.671C266.938 240.671 269.553 240.792 272.957 241.035L279.523 241.218C283.535 241.218 285.906 240.61 286.636 239.394C286.636 235.503 286.514 230.153 286.271 223.344C286.149 221.156 286.089 218.724 286.089 216.049L261.285 215.502L261.285 218.42ZM288.642 257.45L292.29 257.997C292.29 264.928 292.168 275.445 291.925 289.549C291.56 300.128 291.378 310.949 291.378 322.014C291.378 332.835 291.621 342.197 292.107 350.101C291.135 351.073 289.797 351.742 288.095 352.107C286.393 352.471 284.204 352.654 281.529 352.654C278.003 352.654 275.328 352.593 273.504 352.471L273.687 352.471L269.309 352.289C266.634 352.289 264.385 352.593 262.561 353.201C262.561 352.35 262.683 350.83 262.926 348.641C261.102 348.885 259.765 349.189 258.914 349.553C259.521 341.407 259.825 333.017 259.825 324.384C259.825 319.521 259.704 312.226 259.461 302.499C259.218 292.771 259.096 285.355 259.096 280.248C259.096 271.737 259.521 262.8 260.373 253.437C261.224 253.437 261.832 253.377 262.196 253.255L265.115 252.89C266.087 252.89 267.911 253.012 270.586 253.255C273.383 253.377 276.362 253.437 279.523 253.437L283.718 253.437L288.642 254.349L288.642 257.45ZM279.523 255.261C275.51 255.261 271.68 255.14 268.033 254.897L262.744 254.714L262.014 254.714L262.014 254.897C261.285 261.341 260.92 269.67 260.92 279.883C260.92 284.503 261.041 291.799 261.285 301.769C261.528 311.739 261.649 319.339 261.649 324.567C261.649 332.835 261.406 340.313 260.92 347C261.163 346.878 262.136 346.818 263.838 346.818C266.391 346.818 268.458 346.878 270.039 347L278.246 347.182C280.921 347.182 282.867 347.122 284.082 347C285.42 346.878 286.271 346.514 286.636 345.906C286.149 337.273 285.906 327.485 285.906 316.542C285.906 304.626 286.089 292.832 286.453 281.16C286.697 269.73 286.818 261.28 286.818 255.808L286.818 255.261L279.523 255.261ZM328.59 260.368C334.547 256.72 340.992 254.897 347.922 254.897C351.813 254.897 355.582 255.565 359.23 256.903C362.878 258.24 365.613 260.307 367.437 263.104L369.626 264.745C372.787 267.177 374.368 277.39 374.368 295.386C374.368 300.128 374.246 307.24 374.003 316.724C373.76 325.965 373.638 332.713 373.638 336.969C373.638 341.832 373.76 346.818 374.003 351.924C369.626 352.532 364.519 352.836 358.683 352.836L347.74 352.836C347.618 351.985 347.557 350.769 347.557 349.189L344.092 349.189C343.727 345.419 343.545 338.063 343.545 327.12L343.545 318.001C343.545 310.949 343.423 305.477 343.18 301.587C342.937 297.696 342.268 294.413 341.174 291.738C340.201 291.373 338.925 291.191 337.344 291.191C333.696 291.191 331.143 292.407 329.684 294.838C328.346 297.27 327.678 301.951 327.678 308.882C327.678 312.165 327.799 316.724 328.042 322.561C328.286 328.64 328.407 333.078 328.407 335.875C328.407 341.103 328.164 345.663 327.678 349.553L327.678 351.56C323.422 352.654 319.896 353.201 317.099 353.201C315.397 353.201 314.06 353.14 313.087 353.019L308.71 352.836L306.704 352.836C304.88 352.836 303.117 352.958 301.414 353.201L301.414 349.189L297.767 349.553L297.584 315.083C297.341 299.763 297.22 288.151 297.22 280.248C297.22 273.804 297.341 265.11 297.584 254.167C300.503 254.532 303.238 254.714 305.792 254.714C306.764 254.714 308.345 254.532 310.534 254.167C312.844 253.802 315.944 253.62 319.835 253.62C323.118 253.62 324.82 254.349 324.942 255.808C324.942 256.538 325.489 257.207 326.583 257.815C327.799 258.301 328.468 258.848 328.59 259.456L328.59 260.368ZM320.929 255.261C317.525 255.261 313.695 255.565 309.439 256.173C307.494 256.416 306.278 256.538 305.792 256.538L303.603 256.538C302.022 256.538 300.624 256.416 299.408 256.173C299.165 259.942 299.044 265.475 299.044 272.77L299.044 283.895C299.044 291.312 299.165 302.073 299.408 316.177L299.591 347.547C301.05 347.426 302.995 347.365 305.427 347.365L314.181 347.547C316.735 347.547 319.41 347.182 322.206 346.453L322.206 345.723C322.693 341.711 322.936 337.212 322.936 332.227C322.936 329.066 322.814 324.445 322.571 318.366C322.328 312.286 322.206 307.666 322.206 304.505C322.206 297.209 323.118 292.285 324.942 289.732C326.766 287.057 329.684 285.719 333.696 285.719C338.073 285.719 340.87 287.057 342.086 289.732C343.423 292.285 344.214 295.203 344.457 298.486C344.7 301.647 344.882 303.836 345.004 305.052C345.247 306.876 345.369 309.794 345.369 313.806L345.369 320.19L345.369 333.686L345.369 339.522C345.369 343.17 345.49 345.784 345.734 347.365L356.312 347.547C360.689 347.547 364.762 347.243 368.531 346.635C368.288 342.015 368.167 338.185 368.167 335.145C368.167 330.889 368.288 324.02 368.531 314.536C368.775 304.566 368.896 297.27 368.896 292.65C368.896 284.26 368.592 277.512 367.984 272.405C367.376 267.177 366.282 263.833 364.701 262.374C360.567 258.605 354.914 256.72 347.74 256.72C343.849 256.72 340.384 257.328 337.344 258.544C334.304 259.76 331.447 261.158 328.772 262.739C326.097 264.198 324.334 265.171 323.483 265.657L323.665 261.462C323.665 257.328 322.753 255.261 320.929 255.261ZM381.334 263.104C383.158 259.213 386.745 256.295 392.095 254.349C397.566 252.404 403.706 251.431 410.515 251.431C411.488 251.553 413.737 251.614 417.263 251.614L421.641 251.431C426.261 251.431 430.76 252.161 435.137 253.62C439.514 255.079 443.162 257.207 446.08 260.003L445.898 260.003C446.262 260.49 446.809 261.158 447.539 262.009C448.269 262.739 448.937 263.286 449.545 263.651L449.363 263.469C452.646 265.657 454.834 270.034 455.929 276.6C457.144 283.166 457.752 291.312 457.752 301.039C457.752 309.672 457.205 318.609 456.111 327.85C455.017 337.091 453.497 342.805 451.551 344.994C448.998 348.641 445.533 351.134 441.156 352.471C436.778 353.809 431.672 354.478 425.835 354.478C419.634 354.478 414.588 354.295 410.698 353.931C406.928 353.566 403.159 352.532 399.39 350.83C395.742 349.249 392.216 346.696 388.812 343.17L387.17 341.529C383.401 338.002 380.848 333.504 379.51 328.032C378.173 322.439 377.504 315.934 377.504 308.517L377.504 301.951L377.686 295.75C377.686 294.291 377.625 292.893 377.504 291.556C377.382 290.218 377.321 289.002 377.321 287.908C377.321 282.68 377.443 278.728 377.686 276.053C377.929 273.378 378.841 270.156 380.422 266.387L380.24 266.387C380.361 265.657 380.483 264.928 380.604 264.198C380.848 263.469 381.091 262.982 381.334 262.739L381.334 262.921L381.152 263.469L381.334 263.104ZM379.328 295.386L379.328 308.882C379.328 319.582 381.091 328.458 384.617 335.51C388.264 342.44 394.769 346.696 404.132 348.277L412.704 348.459C416.838 348.702 420.06 348.824 422.37 348.824C428.085 348.824 432.948 348.216 436.961 347C440.973 345.784 444.135 343.535 446.445 340.252C448.512 338.185 449.849 333.564 450.457 326.391C451.187 319.217 451.795 309.551 452.281 297.392C452.281 296.297 452.159 292.407 451.916 285.719C451.673 278.91 450.943 273.5 449.728 269.487C448.633 265.353 446.992 262.617 444.803 261.28C439.332 255.93 431.368 253.255 420.911 253.255L413.98 253.437C412.4 253.437 411.184 253.377 410.333 253.255C404.132 253.255 398.417 254.167 393.189 255.991C387.961 257.815 384.556 260.429 382.975 263.833C381.638 268.575 380.665 272.77 380.057 276.418C379.449 280.065 379.145 283.835 379.145 287.725L379.328 295.386ZM416.716 280.795C425.227 280.795 429.483 287.118 429.483 299.763C429.483 304.991 429.24 309.186 428.754 312.347C428.267 315.387 426.99 317.879 424.923 319.825C422.856 321.77 419.695 322.743 415.44 322.743C411.792 322.743 408.813 321.953 406.503 320.372C404.193 318.791 403.038 316.238 403.038 312.712C403.159 311.131 403.22 308.335 403.22 304.322C403.22 298.729 403.341 294.413 403.585 291.373C403.949 288.212 404.679 286.206 405.773 285.355C408.205 282.315 411.853 280.795 416.716 280.795ZM410.515 290.461C409.543 291.069 408.935 293.866 408.691 298.851C408.57 303.714 408.509 309.611 408.509 316.542C408.509 318.487 409.117 319.703 410.333 320.19C411.549 320.676 413.251 320.919 415.44 320.919C422.856 320.919 426.565 318.366 426.565 313.259C427.294 306.693 427.659 301.951 427.659 299.033C427.659 295.021 427.173 291.92 426.2 289.732C425.349 287.543 423.282 286.449 419.999 286.449C419.27 286.449 417.932 286.57 415.987 286.814L416.169 286.814C413.859 287.422 412.096 288.516 410.88 290.096L410.515 290.461Z" fill="black"/>
</svg>
