<svg width="915" height="144" viewBox="0 0 915 144" fill="none" xmlns="http://www.w3.org/2000/svg">
<path d="M83.6382 140.836C80.2337 140.35 76.3429 140.107 71.9657 140.107L63.2113 140.289C61.509 140.411 59.0773 140.471 55.916 140.471C55.7944 139.62 55.7336 138.344 55.7336 136.641L52.2683 136.824C51.9035 130.258 51.7211 119.376 51.7211 104.177L51.3564 81.7441C50.9916 82.7168 50.2621 84.6623 49.1678 87.5804C48.1951 90.4985 47.2224 92.6871 46.2497 94.1462C45.2769 95.4837 44.365 96.1524 43.5139 96.1524C42.5412 96.1524 41.3253 94.9365 39.8662 92.5047C38.0424 92.3831 35.8538 89.2826 33.3005 83.2032C33.1789 86.1213 33.1181 90.3769 33.1181 95.97C33.1181 106.67 33.726 121.26 34.9419 139.742C30.1999 140.471 25.154 140.836 19.8041 140.836L13.9678 141.019C11.0497 141.019 8.73953 140.715 7.03728 140.107C5.45663 139.62 4.6663 138.526 4.6663 136.824L3.75439 136.824C2.78168 136.824 1.93056 136.094 1.20103 134.635C0.957848 133.906 0.775465 131.048 0.653876 126.063C0.653876 120.957 0.653876 113.904 0.653876 104.907C0.653876 71.9562 0.836259 39.8568 1.20103 8.60851C4.48392 7.51421 8.19238 6.96706 12.3264 6.96706C14.6366 6.96706 16.3996 7.02785 17.6155 7.14944L23.4518 7.33182C25.6404 7.33182 27.4034 7.27103 28.7409 7.14944L31.2942 10.9795L32.3885 10.7971C34.6987 13.4721 37.2521 18.9435 40.0486 27.2116L41.6901 31.7712C42.5412 27.7587 43.8787 23.1992 45.7025 18.0924C47.6479 12.8641 49.4718 9.03407 51.174 6.60229C52.8762 6.84547 54.3353 6.96706 55.5512 6.96706C57.7398 6.96706 61.7522 6.84547 67.5885 6.60229C72.3304 6.23752 76.7076 6.05514 80.7201 6.05514L80.5377 9.7028L84.3677 9.7028C84.2461 12.7425 84.1853 17.9708 84.1853 25.3878L84.3677 44.538C84.4893 48.7936 84.5501 55.2378 84.5501 63.8706L84.5501 70.6188C84.5501 75.1175 84.4285 78.522 84.1853 80.8322L84.1853 80.6498L83.6382 140.836ZM78.7138 77.0022C78.957 74.5704 79.0786 70.9835 79.0786 66.2416L79.0786 59.1286C79.0786 50.8606 79.0178 44.6596 78.8962 40.5256L78.7138 21.7401C78.7138 15.5391 78.7746 10.9187 78.8962 7.87897C75.127 7.87897 70.8714 8.06136 66.1294 8.42613L54.8217 8.79089C53.1194 8.79089 52.1467 8.73009 51.9035 8.60851C50.8092 10.0676 49.5933 12.7425 48.2559 16.6334C46.9184 20.4026 45.7025 24.1111 44.6082 27.7587C43.8787 30.1905 43.1491 32.3791 42.4196 34.3245C41.8117 36.2699 41.3861 37.1819 41.1429 37.0603C40.4134 37.0603 39.5623 35.966 38.5896 33.7774C37.6169 31.5888 36.1578 28.0019 34.2124 23.0168C33.1181 19.977 32.0238 17.1197 30.9295 14.4448C29.8352 11.6482 28.8625 9.82439 28.0113 8.97327L27.829 8.97327C26.4915 9.09486 24.3637 9.15565 21.4456 9.15565L14.8798 8.97327L11.9616 8.97327C7.9492 8.97327 4.97028 9.27724 3.02486 9.88518C2.66009 41.0119 2.47771 72.6858 2.47771 104.907C2.47771 117.795 2.5385 126.063 2.66009 129.711C2.90327 133.237 3.26803 135 3.75439 135L17.4331 135.182C22.0535 135.182 26.0051 134.939 29.288 134.453C28.1937 117.795 27.6466 103.752 27.6466 92.3224C27.6466 83.2032 28.0113 74.2056 28.7409 65.3296L29.288 67.1535L30.7471 70.9835C32.6925 76.5766 34.4555 81.2578 36.0362 85.027C37.6169 88.7963 38.9543 90.6809 40.0486 90.6809C40.535 90.6809 41.3861 89.2218 42.602 86.3037C43.8179 83.3856 45.0338 80.2243 46.2497 76.8198C48.9246 69.7676 50.6876 65.512 51.5388 64.053C52.6331 73.9017 53.3018 89.3434 53.545 110.378C53.545 113.175 53.6058 117.187 53.7274 122.416C53.849 127.522 53.9705 131.717 54.0921 135L65.5823 134.818L72.1481 134.818C73.4855 134.818 75.4917 134.939 78.1667 135.182L78.7138 77.0022ZM135.978 134.27C129.534 137.797 123.15 139.56 116.828 139.56C112.937 139.56 109.046 138.891 105.155 137.553C101.264 136.337 98.6501 134.392 97.3126 131.717C94.7593 129.65 92.9355 126.124 91.8412 121.139C90.8684 116.154 90.3821 108.798 90.3821 99.0705C90.3821 94.3286 90.5037 87.2156 90.7469 77.7317C90.99 68.491 91.1116 61.7428 91.1116 57.4872C91.1116 52.6236 90.99 47.6385 90.7469 42.5318C95.0025 41.9238 99.9876 41.6198 105.702 41.6198L117.01 41.6198C117.01 43.2005 117.071 44.4164 117.192 45.2675L120.658 45.2675C121.022 49.0368 121.205 56.3929 121.205 67.3359L121.205 76.455C121.205 83.5072 121.326 88.9787 121.57 92.8695C121.813 96.6388 122.542 99.9824 123.758 102.901C125.46 103.144 126.676 103.265 127.406 103.265C130.81 103.265 133.242 102.171 134.701 99.9824C136.282 97.7938 137.072 93.7206 137.072 87.7628C137.072 84.8446 136.951 80.2243 136.707 73.9017C136.343 69.2813 136.16 64.5393 136.16 59.6758C136.16 53.4748 136.464 48.4896 137.072 44.7204L137.072 42.8965C140.598 41.9238 144.064 41.4375 147.468 41.4375L156.04 41.6198L158.046 41.6198C159.87 41.6198 161.633 41.4983 163.335 41.2551L163.335 45.2675L166.983 44.9027L167.165 79.3732C167.409 94.6933 167.53 106.305 167.53 114.208C167.53 120.653 167.409 129.346 167.165 140.289C161.329 139.924 158.593 139.742 158.958 139.742C157.864 139.742 156.162 139.924 153.851 140.289C151.541 140.654 148.562 140.836 144.915 140.836C142.969 140.836 141.571 140.593 140.72 140.107C139.99 139.62 139.626 138.648 139.626 137.189C137.559 137.067 136.403 136.337 136.16 135L135.978 134.27ZM139.99 135.547C143.516 135.547 147.407 135.243 151.663 134.635C153.608 134.392 154.824 134.27 155.31 134.27C155.675 134.27 157.803 134.392 161.694 134.635C161.937 121.99 162.059 112.749 162.059 106.913C162.059 99.4961 161.937 88.7355 161.694 74.6312L161.512 43.2613C160.052 43.3829 158.107 43.4437 155.675 43.4437L146.738 43.2613C144.307 43.2613 141.693 43.6261 138.896 44.3556L138.896 45.0851C138.288 48.8544 137.984 53.4748 137.984 58.9462C137.984 61.986 138.106 66.6671 138.349 72.9897C138.714 77.7317 138.896 82.4737 138.896 87.2156C138.896 94.0246 137.923 98.7058 135.978 101.259C134.154 103.812 131.297 105.089 127.406 105.089C124.001 105.089 121.509 104.238 119.928 102.536C118.347 100.712 117.375 98.645 117.01 96.3348C116.645 94.0246 116.341 90.4985 116.098 85.7566C115.855 83.9327 115.733 81.0146 115.733 77.0022L115.733 70.8011L115.733 57.1224L115.733 51.2862C115.733 47.6385 115.612 45.0243 115.369 43.4437L104.79 43.2613C100.413 43.2613 96.3399 43.5653 92.5707 44.1732C92.6923 46.4834 92.7531 50.3134 92.7531 55.6633C92.7531 59.7974 92.6315 66.7279 92.3883 76.455C92.1451 86.1821 92.0235 93.4774 92.0235 98.341C92.0235 115.971 93.4826 126.002 96.4007 128.434C100.535 132.203 106.128 134.088 113.18 134.088C117.679 134.088 121.509 133.419 124.67 132.082C127.831 130.744 132.148 128.434 137.619 125.151L137.437 129.529C137.437 133.541 138.288 135.547 139.99 135.547ZM204.407 48.368C210.365 44.7204 216.809 42.8965 223.74 42.8965C227.631 42.8965 231.4 43.5653 235.048 44.9027C238.695 46.2402 241.431 48.3072 243.255 51.1038L245.443 52.7452C248.605 55.177 250.185 65.3904 250.185 83.3856C250.185 88.1275 250.064 95.2405 249.821 104.724C249.577 113.965 249.456 120.713 249.456 124.969C249.456 129.832 249.577 134.818 249.821 139.924C245.443 140.532 240.337 140.836 234.5 140.836L223.557 140.836C223.436 139.985 223.375 138.769 223.375 137.189L219.91 137.189C219.545 133.419 219.363 126.063 219.363 115.12L219.363 106.001C219.363 98.9489 219.241 93.4774 218.998 89.5866C218.755 85.6958 218.086 82.4129 216.992 79.7379C216.019 79.3732 214.742 79.1908 213.162 79.1908C209.514 79.1908 206.961 80.4067 205.501 82.8384C204.164 85.2702 203.495 89.9514 203.495 96.8819C203.495 100.165 203.617 104.724 203.86 110.561C204.103 116.64 204.225 121.078 204.225 123.875C204.225 129.103 203.982 133.663 203.495 137.553L203.495 139.56C199.24 140.654 195.714 141.201 192.917 141.201C191.215 141.201 189.877 141.14 188.905 141.019L184.527 140.836L182.521 140.836C180.697 140.836 178.934 140.958 177.232 141.201L177.232 137.189L173.584 137.553L173.402 103.083C173.159 87.7628 173.037 76.151 173.037 68.2478C173.037 61.8036 173.159 53.11 173.402 42.167C176.32 42.5318 179.056 42.7141 181.609 42.7141C182.582 42.7141 184.163 42.5318 186.351 42.167C188.661 41.8022 191.762 41.6198 195.653 41.6198C198.936 41.6198 200.638 42.3494 200.759 43.8084C200.759 44.538 201.307 45.2067 202.401 45.8147C203.617 46.301 204.286 46.8482 204.407 47.4561L204.407 48.368ZM196.747 43.2613C193.343 43.2613 189.513 43.5653 185.257 44.1732C183.312 44.4164 182.096 44.538 181.609 44.538L179.421 44.538C177.84 44.538 176.442 44.4164 175.226 44.1732C174.983 47.9425 174.861 53.4748 174.861 60.7701L174.861 71.8954C174.861 79.3124 174.983 90.073 175.226 104.177L175.408 135.547C176.867 135.426 178.813 135.365 181.244 135.365L189.999 135.547C192.552 135.547 195.227 135.182 198.024 134.453L198.024 133.723C198.51 129.711 198.753 125.212 198.753 120.227C198.753 117.066 198.632 112.445 198.389 106.366C198.145 100.286 198.024 95.666 198.024 92.5047C198.024 85.2094 198.936 80.2851 200.759 77.7317C202.583 75.0568 205.501 73.7193 209.514 73.7193C213.891 73.7193 216.688 75.0568 217.904 77.7317C219.241 80.2851 220.031 83.2032 220.274 86.4861C220.518 89.6474 220.7 91.836 220.822 93.0519C221.065 94.8757 221.186 97.7938 221.186 101.806L221.186 108.19L221.186 121.686L221.186 127.522C221.186 131.17 221.308 133.784 221.551 135.365L232.129 135.547C236.507 135.547 240.58 135.243 244.349 134.635C244.106 130.015 243.984 126.185 243.984 123.145C243.984 118.889 244.106 112.02 244.349 102.536C244.592 92.5655 244.714 85.2702 244.714 80.6498C244.714 72.2602 244.41 65.512 243.802 60.4053C243.194 55.177 242.1 51.8333 240.519 50.3742C236.385 46.605 230.731 44.7204 223.557 44.7204C219.667 44.7204 216.201 45.3283 213.162 46.5442C210.122 47.7601 207.264 49.1584 204.59 50.739C201.915 52.1981 200.152 53.1708 199.3 53.6571L199.483 49.4623C199.483 45.3283 198.571 43.2613 196.747 43.2613ZM333.205 22.2872C333.205 33.3518 333.448 49.4623 333.935 70.6188C334.056 75.8471 334.178 82.2913 334.3 89.9514C334.421 97.6115 334.482 106.427 334.482 116.397C334.482 127.583 334.421 135.547 334.3 140.289L323.357 140.471C320.925 140.593 317.338 140.654 312.596 140.654C310.407 140.654 308.705 140.411 307.489 139.924C306.395 139.438 305.848 138.465 305.848 137.006L305.848 136.641L303.477 136.459L303.112 136.094C299.951 138.769 295.999 140.107 291.257 140.107C285.907 140.107 281.165 139.134 277.031 137.189C273.019 135.243 269.675 132.69 267 129.529C257.395 121.868 252.592 106.366 252.592 83.0208C252.592 73.6585 253.929 65.3904 256.604 58.2167C259.279 51.043 263.292 46.4226 268.642 44.3556C273.14 42.5318 278.794 41.6198 285.603 41.6198C292.899 41.6198 298.492 42.6534 302.382 44.7204L302.018 26.1173C302.018 23.3207 302.139 19.9771 302.382 16.0862L302.93 8.79089L302.93 6.78468C302.93 6.17674 304.389 5.56879 307.307 4.96084C310.347 4.3529 313.629 4.04892 317.156 4.04892C321.897 4.04892 326.032 4.41369 329.558 5.14323L329.558 8.24374L333.205 8.79089L333.205 22.2872ZM328.828 134.818C328.95 130.562 329.01 123.935 329.01 114.938C329.01 105.089 328.95 96.3348 328.828 88.6747C328.706 80.893 328.585 74.3272 328.463 68.9773C327.977 47.0913 327.734 30.3121 327.734 18.6396L327.734 6.60229C325.18 6.11594 321.654 5.87276 317.156 5.87276C314.116 5.87276 311.258 5.99435 308.584 6.23753C306.03 6.35911 304.753 6.5415 304.753 6.78468L304.753 8.79089L304.389 15.1743C304.146 17.4845 304.024 21.1321 304.024 26.1173L304.024 34.5069C304.024 39.9784 304.085 44.5988 304.206 48.368C303.72 47.0305 301.653 45.8755 298.005 44.9027C294.358 43.93 290.163 43.4437 285.421 43.4437C279.949 43.4437 274.539 44.2948 269.189 45.997C264.082 47.8209 260.313 52.1373 257.881 58.9462C255.571 65.7552 254.416 73.7801 254.416 83.0208C254.659 93.4774 255.51 102.293 256.969 109.466C258.55 116.64 261.772 122.659 266.635 127.522C271.621 132.264 278.916 134.635 288.521 134.635C294.722 134.635 299.221 131.96 302.018 126.61C302.139 126.124 302.382 125.881 302.747 125.881C303.234 125.881 303.659 127.279 304.024 130.076C304.389 132.872 304.45 134.392 304.206 134.635C307.003 135 310.103 135.182 313.508 135.182L321.533 135C323.235 134.878 325.667 134.818 328.828 134.818ZM293.81 64.6001C297.458 64.6001 300.012 65.0865 301.471 66.0592C302.93 66.9103 303.842 68.6733 304.206 71.3483C304.693 74.0232 304.936 78.7652 304.936 85.5742C304.936 91.6536 304.632 96.5172 304.024 100.165C303.538 103.812 302.322 106.731 300.376 108.919C298.552 110.986 295.695 112.02 291.804 112.02C286.819 112.02 282.807 109.649 279.767 104.907C276.727 100.165 275.207 94.5717 275.207 88.1275C275.207 83.3856 275.633 79.8595 276.484 77.5493C277.822 68.9165 283.597 64.6001 293.81 64.6001ZM303.112 78.6436C303.112 75.3607 302.747 73.1113 302.018 71.8954C301.41 70.6796 299.89 70.0716 297.458 70.0716C288.217 70.0716 283.05 73.8409 281.956 81.3794L281.773 81.7441C281.044 83.4464 280.679 85.9997 280.679 89.4042C280.679 103.265 284.387 110.196 291.804 110.196C295.209 110.196 297.701 109.223 299.282 107.278C300.984 105.211 302.018 102.536 302.382 99.2529C302.869 95.8484 303.112 91.2888 303.112 85.5742L303.112 78.6436ZM341.575 51.1038C343.399 47.2129 346.986 44.2948 352.336 42.3494C357.807 40.404 363.947 39.4312 370.756 39.4312C371.729 39.5528 373.978 39.6136 377.504 39.6136L381.882 39.4312C386.502 39.4312 391.001 40.1608 395.378 41.6198C399.755 43.0789 403.403 45.2067 406.321 48.0033L406.139 48.0033C406.503 48.4896 407.05 49.1584 407.78 50.0095C408.51 50.739 409.178 51.2862 409.786 51.6509L409.604 51.4685C412.887 53.6571 415.075 58.0343 416.17 64.6001C417.385 71.1659 417.993 79.3124 417.993 89.0395C417.993 97.6723 417.446 106.609 416.352 115.85C415.258 125.091 413.738 130.805 411.792 132.994C409.239 136.641 405.774 139.134 401.397 140.471C397.019 141.809 391.913 142.478 386.076 142.478C379.875 142.478 374.829 142.295 370.939 141.931C367.169 141.566 363.4 140.532 359.631 138.83C355.983 137.249 352.457 134.696 349.053 131.17L347.411 129.529C343.642 126.002 341.089 121.504 339.751 116.032C338.414 110.439 337.745 103.934 337.745 96.5172L337.745 89.9514L337.927 83.7503C337.927 82.2913 337.866 80.893 337.745 79.5555C337.623 78.2181 337.562 77.0022 337.562 75.9079C337.562 70.6796 337.684 66.7279 337.927 64.053C338.17 61.378 339.082 58.1559 340.663 54.3867L340.481 54.3867C340.602 53.6571 340.724 52.9276 340.845 52.1981C341.089 51.4685 341.332 50.9822 341.575 50.739L341.575 50.9214L341.393 51.4685L341.575 51.1038ZM339.569 83.3856L339.569 96.8819C339.569 107.582 341.332 116.458 344.858 123.51C348.505 130.44 355.01 134.696 364.373 136.277L372.945 136.459C377.079 136.702 380.301 136.824 382.611 136.824C388.326 136.824 393.189 136.216 397.202 135C401.214 133.784 404.375 131.535 406.686 128.252C408.753 126.185 410.09 121.564 410.698 114.391C411.428 107.217 412.036 97.5507 412.522 85.3918C412.522 84.2975 412.4 80.4067 412.157 73.7193C411.914 66.9103 411.184 61.4996 409.969 57.4872C408.874 53.3532 407.233 50.6174 405.044 49.2799C399.573 43.93 391.609 41.2551 381.152 41.2551L374.221 41.4375C372.641 41.4375 371.425 41.3767 370.574 41.2551C364.373 41.2551 358.658 42.167 353.43 43.9908C348.202 45.8147 344.797 48.4288 343.216 51.8333C341.879 56.5753 340.906 60.7701 340.298 64.4177C339.69 68.0654 339.386 71.8346 339.386 75.7255L339.569 83.3856ZM376.957 68.7949C385.468 68.7949 389.724 75.1175 389.724 87.7628C389.724 92.9911 389.481 97.1859 388.995 100.347C388.508 103.387 387.231 105.879 385.164 107.825C383.097 109.77 379.936 110.743 375.681 110.743C372.033 110.743 369.054 109.953 366.744 108.372C364.434 106.791 363.279 104.238 363.279 100.712C363.4 99.1313 363.461 96.3348 363.461 92.3224C363.461 86.7293 363.582 82.4129 363.826 79.3732C364.19 76.2118 364.92 74.2056 366.014 73.3545C368.446 70.3148 372.094 68.7949 376.957 68.7949ZM370.756 78.4612C369.784 79.0692 369.176 81.8657 368.932 86.8509C368.811 91.7144 368.75 97.6115 368.75 104.542C368.75 106.487 369.358 107.703 370.574 108.19C371.79 108.676 373.492 108.919 375.681 108.919C383.097 108.919 386.806 106.366 386.806 101.259C387.535 94.6933 387.9 89.9514 387.9 87.0332C387.9 83.0208 387.414 79.9203 386.441 77.7317C385.59 75.5431 383.523 74.4488 380.24 74.4488C379.511 74.4488 378.173 74.5704 376.228 74.8136L376.41 74.8136C374.1 75.4215 372.337 76.5158 371.121 78.0965L370.756 78.4612ZM491.574 84.4799C491.574 90.6809 491.938 95.6052 492.668 99.2529C493.397 102.901 494.978 104.968 497.41 105.454L497.227 105.454L498.869 105.636C501.909 105.636 504.158 105.028 505.617 103.812C507.076 102.597 507.988 101.016 508.353 99.0705C508.839 97.1251 509.265 94.3894 509.63 90.8633C509.873 87.2156 510.298 83.8719 510.906 80.8322C513.46 81.197 515.952 81.3794 518.384 81.3794L526.956 81.197C531.576 81.197 535.285 81.5618 538.081 82.2913C538.324 82.8992 538.446 83.4464 538.446 83.9327C538.568 84.2975 538.75 84.7839 538.993 85.3918L541.729 85.9389C543.431 90.6809 544.282 95.5445 544.282 100.53C544.282 109.041 542.276 116.519 538.264 122.963C534.373 129.407 528.901 134.331 521.849 137.736C514.797 141.262 506.772 143.025 497.775 143.025C491.452 143.025 485.373 141.809 479.536 139.377C473.7 136.945 468.776 133.48 464.763 128.981C460.872 124.361 458.623 119.011 458.015 112.932C457.407 100.773 457.103 87.702 457.103 73.7193L457.286 45.8147C457.407 43.9908 457.468 41.1335 457.468 37.2427L457.286 35.2364C457.286 31.1024 458.076 27.394 459.657 24.1111L459.657 24.2934C462.453 16.5118 466.587 10.6755 472.059 6.78468C477.652 2.77224 485.19 0.766027 494.674 0.766027C503.064 0.766027 511.149 3.01542 518.931 7.5142C526.713 12.013 532.975 17.9708 537.717 25.3878C542.459 32.6831 544.829 40.3432 544.829 48.368C544.829 53.11 543.857 58.1559 541.911 63.5058C538.385 64.3569 534.555 64.7825 530.421 64.7825C525.071 64.7825 519.053 64.1138 512.365 62.7763L512.001 59.8582C510.298 59.615 509.265 59.1894 508.9 58.5815C508.535 57.9735 508.292 56.8184 508.17 55.1162C508.17 53.2924 508.11 51.9549 507.988 51.1038C507.867 50.1311 507.745 48.4896 507.623 46.1794C507.623 43.7477 507.137 41.9238 506.164 40.7079C505.192 39.3705 503.55 38.7017 501.24 38.7017C499.902 38.7017 498.383 38.9449 496.68 39.4312C495.1 39.9176 494.005 40.4648 493.397 41.0727C493.154 41.3159 492.79 44.4164 492.303 50.3742C491.817 56.2105 491.574 64.4785 491.574 75.1783L491.574 84.4799ZM498.322 33.2302C501.605 33.2302 504.036 34.0813 505.617 35.7836C507.198 37.3642 508.231 39.3097 508.718 41.6198C509.204 43.93 509.569 47.0305 509.812 50.9214C509.812 51.6509 509.873 52.6844 509.994 54.0219C510.116 55.3594 510.237 56.5145 510.359 57.4872C515.709 58.7031 521.18 59.311 526.774 59.311C530.178 59.311 533.583 58.9462 536.987 58.2167C538.568 53.9611 539.358 49.4623 539.358 44.7204C539.358 37.0603 537.291 30.0081 533.157 23.5639C529.023 17.1197 523.491 12.013 516.56 8.24374C509.751 4.47449 502.456 2.58987 494.674 2.58987C486.406 2.58987 479.476 4.3529 473.882 7.87897C468.289 11.2835 464.095 16.9373 461.298 24.8406C459.839 28.3667 459.109 31.7104 459.109 34.8717C459.109 35.966 459.17 36.6955 459.292 37.0603C459.292 40.8295 459.231 43.6261 459.109 45.4499L458.927 73.7193C458.927 87.5804 459.231 100.59 459.839 112.749C460.568 121.017 464.277 127.218 470.964 131.352C477.652 135.486 485.373 137.553 494.127 137.553C502.638 137.553 510.298 135.912 517.107 132.629C523.916 129.225 529.205 124.483 532.975 118.403C536.865 112.202 538.811 105.028 538.811 96.8819C538.811 92.2616 538.142 87.9452 536.805 83.9327C534.494 83.3248 531.333 83.0208 527.321 83.0208L517.654 83.2032C516.317 83.2032 514.554 83.0816 512.365 82.8384C511.879 84.5407 511.514 87.2764 511.271 91.0457C511.028 94.5717 510.602 97.4899 509.994 99.8001C509.508 101.989 508.353 103.812 506.529 105.272C504.827 106.731 502.213 107.46 498.687 107.46C493.458 107.46 489.993 104.785 488.291 99.4353C486.71 93.9638 485.92 86.8509 485.92 78.0965L485.92 71.5307C485.92 60.1013 486.224 51.4685 486.832 45.6323C487.44 39.796 487.987 36.6347 488.473 36.1484C489.446 35.1756 490.905 34.4461 492.85 33.9598C494.796 33.4734 496.62 33.2302 498.322 33.2302ZM627.865 47.6385C628.108 49.5839 628.23 51.1038 628.23 52.1981L628.23 54.0219C628.108 57.3048 628.047 62.0468 628.047 68.2478L628.23 88.6747C628.351 93.2951 628.412 100.165 628.412 109.284C628.412 116.458 628.23 123.814 627.865 131.352L627.865 132.629C627.865 135.182 627.683 137.067 627.318 138.283C626.953 139.499 625.859 140.289 624.035 140.654L621.482 140.654C619.779 140.654 617.591 140.532 614.916 140.289L609.627 140.107C608.776 140.107 607.499 140.228 605.797 140.471L601.784 140.654C599.839 140.168 598.562 138.952 597.954 137.006C596.374 136.398 595.401 135.73 595.036 135C588.713 138.891 582.452 140.836 576.251 140.836C569.806 140.836 564.092 138.04 559.107 132.447C554.243 126.854 550.474 119.862 547.799 111.473C545.246 102.961 543.969 94.6325 543.969 86.4861C543.969 77.2454 545.549 69.3421 548.711 62.7763C551.872 56.0889 556.189 51.043 561.66 47.6385C567.253 44.234 573.515 42.5318 580.445 42.5318C583.85 42.5318 586.464 42.7749 588.288 43.2613C590.233 43.7477 591.996 44.9635 593.577 46.909C593.699 46.301 593.82 45.3283 593.942 43.9908C594.063 42.6534 594.367 41.8022 594.854 41.4375C595.34 41.0727 596.13 40.8903 597.225 40.8903C598.319 40.8903 599.292 41.0119 600.143 41.2551C601.116 41.3767 602.027 41.4375 602.879 41.4375L604.52 41.4375C607.681 41.4375 613.7 41.7414 622.576 42.3494L624.217 43.9908L624.4 45.997L626.224 45.997L627.865 47.6385ZM602.514 43.2613L597.589 43.0789C596.374 43.0789 595.644 43.8692 595.401 45.4499C595.158 46.909 595.036 49.0368 595.036 51.8333L595.036 52.7452C593.942 50.0703 592.544 48.1248 590.841 46.909C589.139 45.6931 587.254 44.9635 585.187 44.7204C583.12 44.4772 580.202 44.3556 576.433 44.3556C570.718 44.4772 565.49 46.4226 560.748 50.1919C556.128 53.8395 552.48 58.8247 549.805 65.1473C547.13 71.4699 545.793 78.5828 545.793 86.4861C545.793 93.6598 546.765 101.016 548.711 108.554C550.656 116.093 553.635 122.476 557.648 127.705C561.782 132.811 566.767 135.365 572.603 135.365C576.737 135.365 580.993 134.392 585.37 132.447C589.869 130.38 593.638 127.826 596.678 124.787C596.678 125.516 596.556 126.55 596.313 127.887C596.07 129.103 595.948 130.197 595.948 131.17C595.948 133.237 596.678 134.574 598.137 135.182C599.109 135.182 600.447 135.061 602.149 134.818L605.979 134.635L611.998 134.818C614.673 135.061 616.618 135.182 617.834 135.182L620.023 135.182C620.995 134.939 621.603 134.453 621.846 133.723C622.211 132.872 622.394 131.717 622.394 130.258L622.394 127.705C622.88 120.531 623.123 112.567 623.123 103.812L622.941 83.7503C622.698 74.7528 622.576 67.9438 622.576 63.3234C622.576 57.6088 622.637 53.2924 622.758 50.3742L622.758 48.5504C622.758 47.5777 622.637 46.1186 622.394 44.1732C618.989 43.93 613.031 43.6261 604.52 43.2613L602.514 43.2613ZM586.282 68.7949C589.321 68.7949 591.449 69.0989 592.665 69.7068C594.003 70.1932 594.854 71.3483 595.218 73.1721C595.583 74.8744 595.766 77.7925 595.766 81.9265L595.766 91.9576C595.766 96.3348 595.522 99.7393 595.036 102.171C594.671 104.603 593.638 106.487 591.936 107.825C590.355 109.162 587.862 109.831 584.458 109.831C579.473 109.831 575.521 107.947 572.603 104.177C569.685 100.408 568.226 95.7268 568.226 90.1338C568.226 86.1213 568.591 82.8992 569.32 80.4674C570.05 77.1846 571.873 74.4488 574.792 72.2602C577.71 69.95 581.54 68.7949 586.282 68.7949ZM574.792 84.6623C574.062 87.094 573.697 90.1338 573.697 93.7814C573.697 103.265 577.284 108.007 584.458 108.007C587.498 108.007 589.686 107.339 591.024 106.001C592.361 104.664 593.151 102.84 593.395 100.53C593.759 98.2194 593.942 94.6933 593.942 89.9514L593.942 85.2094L594.124 79.7379C594.124 77.7925 593.82 76.3942 593.212 75.5431C592.726 74.692 591.632 74.2664 589.929 74.2664C585.674 74.2664 582.269 75.2391 579.716 77.1846C577.163 79.13 575.521 81.5617 574.792 84.4799L574.792 84.6623ZM664.996 48.368C670.954 44.7204 677.398 42.8965 684.328 42.8965C688.219 42.8965 691.988 43.5653 695.636 44.9027C699.284 46.2402 702.02 48.3072 703.843 51.1038L706.032 52.7452C709.193 55.177 710.774 65.3904 710.774 83.3856C710.774 88.1275 710.652 95.2405 710.409 104.724C710.166 113.965 710.044 120.713 710.044 124.969C710.044 129.832 710.166 134.818 710.409 139.924C706.032 140.532 700.925 140.836 695.089 140.836L684.146 140.836C684.024 139.985 683.964 138.769 683.964 137.189L680.498 137.189C680.134 133.419 679.951 126.063 679.951 115.12L679.951 106.001C679.951 98.9489 679.83 93.4774 679.586 89.5866C679.343 85.6958 678.674 82.4129 677.58 79.7379C676.607 79.3732 675.331 79.1908 673.75 79.1908C670.102 79.1908 667.549 80.4067 666.09 82.8384C664.753 85.2702 664.084 89.9514 664.084 96.8819C664.084 100.165 664.205 104.724 664.449 110.561C664.692 116.64 664.813 121.078 664.813 123.875C664.813 129.103 664.57 133.663 664.084 137.553L664.084 139.56C659.828 140.654 656.302 141.201 653.506 141.201C651.803 141.201 650.466 141.14 649.493 141.019L645.116 140.836L643.11 140.836C641.286 140.836 639.523 140.958 637.821 141.201L637.821 137.189L634.173 137.553L633.991 103.083C633.747 87.7628 633.626 76.151 633.626 68.2478C633.626 61.8036 633.747 53.11 633.991 42.167C636.909 42.5318 639.645 42.7141 642.198 42.7141C643.171 42.7141 644.751 42.5318 646.94 42.167C649.25 41.8022 652.351 41.6198 656.241 41.6198C659.524 41.6198 661.227 42.3494 661.348 43.8085C661.348 44.538 661.895 45.2067 662.99 45.8147C664.205 46.301 664.874 46.8482 664.996 47.4561L664.996 48.368ZM657.336 43.2613C653.931 43.2613 650.101 43.5653 645.846 44.1732C643.9 44.4164 642.684 44.538 642.198 44.538L640.009 44.538C638.429 44.538 637.03 44.4164 635.814 44.1732C635.571 47.9425 635.45 53.4748 635.45 60.7701L635.45 71.8954C635.45 79.3124 635.571 90.073 635.814 104.177L635.997 135.547C637.456 135.426 639.401 135.365 641.833 135.365L650.587 135.547C653.141 135.547 655.816 135.182 658.612 134.453L658.612 133.723C659.099 129.711 659.342 125.212 659.342 120.227C659.342 117.066 659.22 112.445 658.977 106.366C658.734 100.286 658.612 95.666 658.612 92.5047C658.612 85.2094 659.524 80.2851 661.348 77.7317C663.172 75.0568 666.09 73.7193 670.102 73.7193C674.48 73.7193 677.276 75.0568 678.492 77.7317C679.83 80.2851 680.62 83.2032 680.863 86.4861C681.106 89.6474 681.289 91.836 681.41 93.0519C681.653 94.8757 681.775 97.7938 681.775 101.806L681.775 108.19L681.775 121.686L681.775 127.522C681.775 131.17 681.897 133.784 682.14 135.365L692.718 135.547C697.095 135.547 701.168 135.243 704.938 134.635C704.694 130.015 704.573 126.185 704.573 123.145C704.573 118.889 704.694 112.02 704.938 102.536C705.181 92.5655 705.302 85.2702 705.302 80.6498C705.302 72.2602 704.998 65.512 704.391 60.4053C703.783 55.177 702.688 51.8333 701.108 50.3742C696.974 46.605 691.32 44.7204 684.146 44.7204C680.255 44.7204 676.79 45.3283 673.75 46.5442C670.71 47.7601 667.853 49.1584 665.178 50.739C662.503 52.1981 660.74 53.1708 659.889 53.6571L660.071 49.4623C660.071 45.3283 659.159 43.2613 657.336 43.2613ZM744.186 5.87277L747.833 5.87277L748.016 15.7214C748.259 22.7736 748.38 28.0627 748.38 31.5888C747.043 33.6558 744.125 34.6893 739.626 34.6893C738.532 34.6893 736.161 34.5677 732.513 34.3245L732.695 34.3245L726.494 34.1421C724.063 34.1421 721.935 34.2029 720.111 34.3245L720.111 30.4945L716.463 30.6769C716.463 28.3667 716.342 24.9014 716.099 20.281C715.855 14.6879 715.734 9.7636 715.734 5.50799L715.734 1.67795L744.186 2.2251L744.186 5.87277ZM717.558 6.41991C717.558 10.1892 717.679 14.6272 717.922 19.7339C718.166 23.8679 718.287 26.8468 718.287 28.6707L721.388 28.6707C723.212 28.6707 725.826 28.7922 729.23 29.0354L735.796 29.2178C739.808 29.2178 742.179 28.6099 742.909 27.394C742.909 23.5031 742.787 18.1532 742.544 11.3443C742.423 9.15566 742.362 6.72388 742.362 4.04893L717.558 3.50178L717.558 6.41991ZM744.915 45.4499L748.563 45.997C748.563 52.9276 748.441 63.445 748.198 77.5493C747.833 88.1275 747.651 98.9489 747.651 110.014C747.651 120.835 747.894 130.197 748.38 138.101C747.408 139.073 746.07 139.742 744.368 140.107C742.666 140.471 740.477 140.654 737.802 140.654C734.276 140.654 731.601 140.593 729.777 140.471L729.96 140.471L725.583 140.289C722.908 140.289 720.658 140.593 718.834 141.201C718.834 140.35 718.956 138.83 719.199 136.641C717.375 136.885 716.038 137.189 715.187 137.553C715.795 129.407 716.099 121.017 716.099 112.384C716.099 107.521 715.977 100.226 715.734 90.4985C715.491 80.7714 715.369 73.3545 715.369 68.2478C715.369 59.7366 715.795 50.7998 716.646 41.4375C717.497 41.4375 718.105 41.3767 718.47 41.2551L721.388 40.8903C722.36 40.8903 724.184 41.0119 726.859 41.2551C729.656 41.3767 732.635 41.4375 735.796 41.4375L739.991 41.4375L744.915 42.3494L744.915 45.4499ZM735.796 43.2613C731.784 43.2613 727.954 43.1397 724.306 42.8965L719.017 42.7141L718.287 42.7141L718.287 42.8965C717.558 49.3407 717.193 57.6696 717.193 67.883C717.193 72.5034 717.314 79.7987 717.558 89.769C717.801 99.7393 717.922 107.339 717.922 112.567C717.922 120.835 717.679 128.313 717.193 135C717.436 134.878 718.409 134.818 720.111 134.818C722.664 134.818 724.731 134.878 726.312 135L734.519 135.182C737.194 135.182 739.14 135.122 740.356 135C741.693 134.878 742.544 134.514 742.909 133.906C742.423 125.273 742.179 115.485 742.179 104.542C742.179 92.6263 742.362 80.8322 742.727 69.1597C742.97 57.7304 743.091 49.2799 743.091 43.8085L743.091 43.2613L735.796 43.2613ZM784.863 48.368C790.821 44.7204 797.265 42.8965 804.195 42.8965C808.086 42.8965 811.855 43.5653 815.503 44.9027C819.151 46.2402 821.887 48.3072 823.71 51.1038L825.899 52.7452C829.06 55.177 830.641 65.3904 830.641 83.3856C830.641 88.1275 830.519 95.2405 830.276 104.724C830.033 113.965 829.911 120.713 829.911 124.969C829.911 129.832 830.033 134.818 830.276 139.924C825.899 140.532 820.792 140.836 814.956 140.836L804.013 140.836C803.891 139.985 803.831 138.769 803.831 137.189L800.365 137.189C800.001 133.419 799.818 126.063 799.818 115.12L799.818 106.001C799.818 98.9489 799.697 93.4774 799.453 89.5866C799.21 85.6958 798.541 82.4129 797.447 79.7379C796.474 79.3732 795.198 79.1908 793.617 79.1908C789.969 79.1908 787.416 80.4067 785.957 82.8384C784.62 85.2702 783.951 89.9514 783.951 96.8819C783.951 100.165 784.072 104.724 784.316 110.561C784.559 116.64 784.68 121.078 784.68 123.875C784.68 129.103 784.437 133.663 783.951 137.553L783.951 139.56C779.695 140.654 776.169 141.201 773.373 141.201C771.67 141.201 770.333 141.14 769.36 141.019L764.983 140.836L762.977 140.836C761.153 140.836 759.39 140.958 757.688 141.201L757.688 137.189L754.04 137.553L753.858 103.083C753.614 87.7628 753.493 76.151 753.493 68.2478C753.493 61.8036 753.614 53.11 753.858 42.167C756.776 42.5318 759.512 42.7141 762.065 42.7141C763.038 42.7141 764.618 42.5318 766.807 42.167C769.117 41.8022 772.218 41.6198 776.108 41.6198C779.391 41.6198 781.094 42.3494 781.215 43.8085C781.215 44.538 781.762 45.2067 782.857 45.8147C784.072 46.301 784.741 46.8482 784.863 47.4561L784.863 48.368ZM777.203 43.2613C773.798 43.2613 769.968 43.5653 765.713 44.1732C763.767 44.4164 762.551 44.538 762.065 44.538L759.876 44.538C758.296 44.538 756.897 44.4164 755.681 44.1732C755.438 47.9425 755.317 53.4748 755.317 60.7701L755.317 71.8954C755.317 79.3124 755.438 90.073 755.681 104.177L755.864 135.547C757.323 135.426 759.268 135.365 761.7 135.365L770.454 135.547C773.008 135.547 775.683 135.182 778.479 134.453L778.479 133.723C778.966 129.711 779.209 125.212 779.209 120.227C779.209 117.066 779.087 112.445 778.844 106.366C778.601 100.286 778.479 95.666 778.479 92.5047C778.479 85.2094 779.391 80.2851 781.215 77.7317C783.039 75.0568 785.957 73.7193 789.969 73.7193C794.347 73.7193 797.143 75.0568 798.359 77.7317C799.697 80.2851 800.487 83.2032 800.73 86.4861C800.973 89.6474 801.156 91.836 801.277 93.0519C801.52 94.8757 801.642 97.7938 801.642 101.806L801.642 108.19L801.642 121.686L801.642 127.522C801.642 131.17 801.764 133.784 802.007 135.365L812.585 135.547C816.962 135.547 821.035 135.243 824.805 134.635C824.561 130.015 824.44 126.185 824.44 123.145C824.44 118.889 824.561 112.02 824.805 102.536C825.048 92.5655 825.169 85.2702 825.169 80.6498C825.169 72.2602 824.865 65.512 824.258 60.4053C823.65 55.177 822.555 51.8333 820.975 50.3742C816.841 46.605 811.187 44.7204 804.013 44.7204C800.122 44.7204 796.657 45.3283 793.617 46.5442C790.577 47.7601 787.72 49.1584 785.045 50.739C782.37 52.1981 780.607 53.1708 779.756 53.6571L779.938 49.4623C779.938 45.3283 779.027 43.2613 777.203 43.2613ZM837.607 51.1038C839.431 47.2129 843.018 44.2948 848.368 42.3494C853.839 40.404 859.979 39.4312 866.788 39.4312C867.761 39.5528 870.011 39.6136 873.537 39.6136L877.914 39.4312C882.534 39.4312 887.033 40.1608 891.41 41.6199C895.787 43.0789 899.435 45.2067 902.353 48.0033L902.171 48.0033C902.535 48.4896 903.083 49.1584 903.812 50.0095C904.542 50.739 905.21 51.2862 905.818 51.6509L905.636 51.4685C908.919 53.6571 911.108 58.0343 912.202 64.6001C913.418 71.1659 914.026 79.3124 914.026 89.0395C914.026 97.6723 913.478 106.609 912.384 115.85C911.29 125.091 909.77 130.805 907.825 132.994C905.271 136.641 901.806 139.134 897.429 140.471C893.052 141.809 887.945 142.478 882.109 142.478C875.908 142.478 870.862 142.295 866.971 141.931C863.202 141.566 859.432 140.532 855.663 138.83C852.015 137.249 848.489 134.696 845.085 131.17L843.443 129.529C839.674 126.002 837.121 121.504 835.783 116.032C834.446 110.439 833.777 103.934 833.777 96.5172L833.777 89.9514L833.959 83.7503C833.959 82.2913 833.899 80.893 833.777 79.5555C833.655 78.2181 833.595 77.0022 833.595 75.9079C833.595 70.6796 833.716 66.7279 833.959 64.053C834.203 61.378 835.115 58.1559 836.695 54.3867L836.513 54.3867C836.634 53.6571 836.756 52.9276 836.878 52.1981C837.121 51.4685 837.364 50.9822 837.607 50.739L837.607 50.9214L837.425 51.4685L837.607 51.1038ZM835.601 83.3856L835.601 96.8819C835.601 107.582 837.364 116.458 840.89 123.51C844.538 130.44 851.043 134.696 860.405 136.277L868.977 136.459C873.111 136.702 876.333 136.824 878.643 136.824C884.358 136.824 889.222 136.216 893.234 135C897.246 133.784 900.408 131.535 902.718 128.252C904.785 126.185 906.122 121.564 906.73 114.391C907.46 107.217 908.068 97.5507 908.554 85.3918C908.554 84.2975 908.433 80.4067 908.189 73.7193C907.946 66.9103 907.217 61.4996 906.001 57.4872C904.906 53.3532 903.265 50.6174 901.076 49.2799C895.605 43.93 887.641 41.2551 877.184 41.2551L870.254 41.4375C868.673 41.4375 867.457 41.3767 866.606 41.2551C860.405 41.2551 854.69 42.167 849.462 43.9908C844.234 45.8147 840.829 48.4288 839.249 51.8333C837.911 56.5753 836.938 60.7701 836.33 64.4177C835.722 68.0654 835.419 71.8347 835.419 75.7255L835.601 83.3856ZM872.989 68.7949C881.501 68.7949 885.756 75.1176 885.756 87.7628C885.756 92.9911 885.513 97.1859 885.027 100.347C884.54 103.387 883.264 105.88 881.197 107.825C879.13 109.77 875.968 110.743 871.713 110.743C868.065 110.743 865.086 109.953 862.776 108.372C860.466 106.791 859.311 104.238 859.311 100.712C859.432 99.1313 859.493 96.3348 859.493 92.3224C859.493 86.7293 859.615 82.4129 859.858 79.3732C860.223 76.2118 860.952 74.2056 862.046 73.3545C864.478 70.3148 868.126 68.7949 872.989 68.7949ZM866.788 78.4612C865.816 79.0692 865.208 81.8657 864.965 86.8509C864.843 91.7144 864.782 97.6115 864.782 104.542C864.782 106.487 865.39 107.703 866.606 108.19C867.822 108.676 869.524 108.919 871.713 108.919C879.13 108.919 882.838 106.366 882.838 101.259C883.568 94.6933 883.932 89.9514 883.932 87.0332C883.932 83.0208 883.446 79.9203 882.473 77.7317C881.622 75.5431 879.555 74.4488 876.272 74.4488C875.543 74.4488 874.205 74.5704 872.26 74.8136L872.442 74.8136C870.132 75.4215 868.369 76.5158 867.153 78.0965L866.788 78.4612Z" fill="black"/>
</svg>
