<svg width="316" height="291" viewBox="0 0 316 291" fill="none" xmlns="http://www.w3.org/2000/svg">
<path d="M160.501 95.0974C159.71 104.371 160.174 113.703 161.507 122.927C168.773 173.208 192.897 129.036 183.628 86.2844" stroke="black" stroke-opacity="0.9" stroke-width="8.31429" stroke-linecap="round" stroke-linejoin="round"/>
<path d="M193.513 79.6959C201.92 74.6194 259.538 37.132 263.71 56.3777C268.244 77.2894 222.016 97.9635 210.104 111.7C183.96 141.85 189.442 194.381 204.071 228.123" stroke="black" stroke-opacity="0.9" stroke-width="8.31429" stroke-linecap="round" stroke-linejoin="round"/>
<path d="M148.764 125.615C126.705 155.438 112.535 188.374 105.024 223.02" stroke="black" stroke-opacity="0.9" stroke-width="8.31429" stroke-linecap="round" stroke-linejoin="round"/>
<path d="M147.76 183.594C157.828 175.106 183.4 181.88 177.424 196.582C173.561 206.082 162.918 215.601 154.799 222.093C151.913 224.4 148.344 226.794 144.743 228.123C143.905 228.432 141.592 228.462 142.229 229.05C143.676 230.385 179.607 220.409 181.446 227.195C182.282 230.281 155.069 237.72 151.782 238.327C134.695 241.48 114.323 240.954 99.4947 231.833C96.202 229.808 95.1467 225.139 92.4552 223.485C92.1234 223.281 63.8921 240.698 51.2284 233.689" stroke="black" stroke-opacity="0.9" stroke-width="8.31429" stroke-linecap="round" stroke-linejoin="round"/>
<path d="M200.677 84.3396C201.143 85.7008 202.327 86.7585 203.301 87.8367" stroke="black" stroke-opacity="0.9" stroke-width="8.31429" stroke-linecap="round" stroke-linejoin="round"/>
<path d="M258.15 55.833C276.388 53.6752 242.676 69.7352 256.934 56.5807" stroke="black" stroke-opacity="0.9" stroke-width="8.31429" stroke-linecap="round" stroke-linejoin="round"/>
</svg>
